<svg width="1200" height="305" viewBox="0 0 1200 305" fill="none" xmlns="http://www.w3.org/2000/svg">
<path d="M316.421 172.925L266.746 20.0857C264.608 14.4039 260.851 9.47339 255.94 5.90365C251.03 2.33392 245.181 0.281464 239.116 0L78.4113 0C72.3447 0.279477 66.4932 2.33099 61.5803 5.90082C56.6674 9.47066 52.9086 14.4022 50.7687 20.0857L1.10999 172.925C-0.498769 178.78 -0.356087 184.979 1.5204 190.755C3.39688 196.53 6.92488 201.629 11.6682 205.421L141.683 299.881C146.754 303.221 152.693 305.001 158.765 305.001C164.838 305.001 170.777 303.221 175.848 299.881L305.863 205.421C310.606 201.629 314.134 196.531 316.011 190.755C317.887 184.979 318.03 178.78 316.421 172.925ZM110.612 65.8178H206.916C209.948 65.9578 212.873 66.9836 215.329 68.7682C217.785 70.5528 219.664 73.018 220.734 75.8591L230.006 104.37L186.061 110.955C185.857 110.985 185.661 111.055 185.484 111.162C185.308 111.27 185.155 111.411 185.035 111.578C184.914 111.745 184.828 111.935 184.783 112.136C184.737 112.338 184.732 112.546 184.769 112.749L188.424 133.538C188.557 134.56 188.45 135.6 188.113 136.574L182.991 149.62C182.79 150.063 182.498 150.458 182.134 150.78C181.769 151.102 181.341 151.343 180.877 151.488L160.76 156.494C159.746 156.703 158.7 156.703 157.687 156.494L137.57 151.488C137.106 151.343 136.677 151.101 136.313 150.779C135.949 150.458 135.656 150.062 135.455 149.62L130.33 136.571C129.993 135.597 129.886 134.557 130.019 133.535L133.674 112.746C133.711 112.543 133.706 112.335 133.661 112.134C133.615 111.933 133.53 111.743 133.41 111.576C133.289 111.409 133.137 111.267 132.961 111.16C132.785 111.053 132.589 110.982 132.385 110.952L87.5497 104.236L96.7753 75.8435C97.8452 73.002 99.7247 70.5364 102.181 68.7518C104.638 66.9671 107.563 65.9417 110.596 65.8023M67.0062 167.426L86.5377 107.418L119.682 129.705C120.502 130.316 121.146 131.132 121.55 132.072L137.993 175.764C138.401 176.683 139.093 177.447 139.967 177.944L155.224 185.6C155.625 185.825 155.955 186.159 156.175 186.563C156.396 186.968 156.498 187.426 156.469 187.885L155.401 197.497C155.323 197.967 155.135 198.411 154.852 198.795C154.57 199.178 154.201 199.49 153.776 199.705L125.582 211.984C124.611 212.38 123.596 212.66 122.559 212.819L113.975 213.93L72.3211 183.679C69.9469 181.785 68.1801 179.237 67.2393 176.349C66.2985 173.461 66.225 170.361 67.0279 167.432M167.286 240.29C164.749 241.96 161.779 242.849 158.742 242.849C155.705 242.849 152.735 241.96 150.198 240.29L114.641 214.447L125.28 214.494C126.329 214.476 127.372 214.347 128.394 214.111L157.662 206.719C158.674 206.507 159.719 206.507 160.732 206.719L189.999 214.111C191.021 214.348 192.065 214.476 193.113 214.494L202.815 214.45L167.286 240.29ZM245.213 183.679L203.696 213.843L195.912 212.838C194.876 212.678 193.863 212.398 192.892 212.003L164.695 199.723C164.27 199.509 163.902 199.197 163.619 198.813C163.337 198.43 163.149 197.985 163.07 197.516L162.002 187.904C161.974 187.445 162.076 186.987 162.296 186.582C162.516 186.178 162.846 185.844 163.247 185.619L178.504 177.962C179.376 177.464 180.067 176.701 180.475 175.783L196.915 132.09C197.319 131.151 197.963 130.335 198.783 129.724L231.164 107.951L250.5 167.445C251.303 170.374 251.23 173.474 250.289 176.362C249.348 179.249 247.581 181.798 245.207 183.691" fill="#1075B9"/>
<path d="M386.552 64.2198H412.407C430.665 64.2198 440.27 75.0184 440.27 90.8825C440.27 99.4156 437.871 105.149 432.94 110.214C444.132 113.677 450.136 122.878 450.136 136.076C450.136 157.94 437.871 167.537 416.947 167.537H386.552V64.2148V64.2198ZM399.212 76.0869V106.618H411.076C423.341 106.618 427.332 98.352 427.332 90.8825C427.332 80.8852 420.933 76.0869 412.402 76.0869H399.207H399.212ZM417.209 155.407C432.663 155.407 437.198 147.943 437.198 136.209C437.198 123.145 429.597 118.747 417.604 118.747H399.484V155.407H417.214H417.209Z" fill="#1D1E1C"/>
<path d="M516.093 64.4868V75.6861H476.905V106.618H512.359V118.485H476.905V155.546H519.422V167.413H464.245V64.4967H516.093V64.4868Z" fill="#1D1E1C"/>
<path d="M576.987 89.9473C576.319 81.5478 573.386 75.5475 560.593 75.5475C546.33 75.5475 543.531 82.0821 543.531 92.3465C543.531 106.613 555.929 106.479 568.851 107.815C580.716 109.017 592.98 114.879 592.98 136.342C592.98 157.806 584.583 167.937 563.387 167.937H560.86C539.797 167.937 530.203 157.673 529.268 140.206H543.002C543.669 148.872 547.527 155.541 560.731 155.541H563.263C577.12 155.541 579.919 149.006 579.919 137.01C579.919 120.211 568.856 119.944 556.063 118.876C544.07 117.941 530.346 112.079 530.346 92.4801C530.346 72.8812 539.006 63.5518 560.597 63.5518C580.993 63.5518 589.252 73.0197 590.181 89.9473H576.987Z" fill="#1D1E1C"/>
<path d="M634.003 76.8834V167.403H621.343V76.8834H600.018V65.1548H655.328V76.8834H634.003Z" fill="#1D1E1C"/>
<path d="M741.157 167.408L735.954 148.343H705.169L699.966 167.408H686.772L714.095 64.8872H727.028L754.213 167.408H741.157ZM720.5 81.4191L713.566 114.879L708.374 136.342H732.631L727.3 114.478L720.5 81.4141V81.4191Z" fill="#1D1E1C"/>
<path d="M812.184 93.5488C812.05 81.1524 809.513 75.5527 792.456 75.5527C775.399 75.5527 772.467 81.9538 772.467 98.2185V133.414C772.467 149.674 775.137 156.075 792.456 156.075C809.775 156.075 812.446 152.212 812.446 135.942H824.582C824.582 155.808 822.445 168.071 792.456 168.071C762.467 168.071 759.673 155.803 759.673 133.276V98.3472C759.673 75.8149 765.004 63.6807 792.456 63.6807C819.908 63.6807 824.315 73.6829 824.582 93.5439H812.184V93.5488Z" fill="#1D1E1C"/>
<path d="M888.536 93.5488C888.403 81.1524 885.866 75.5527 868.809 75.5527C850.956 75.5527 848.819 81.9538 848.819 98.2185V133.414C848.819 149.674 851.49 156.075 868.809 156.075C886.138 156.075 888.798 152.212 888.798 135.942H900.935C900.935 155.808 898.798 168.071 868.809 168.071C838.825 168.071 836.025 155.803 836.025 133.276V98.3472C836.025 75.8149 841.357 63.6807 868.809 63.6807C895.47 63.6807 900.668 73.6829 900.935 93.5439H888.536V93.5488Z" fill="#1D1E1C"/>
<path d="M979.024 133.681C979.024 156.214 973.955 168.343 945.696 168.343C917.438 168.343 912.379 156.214 912.379 133.681V97.8178C912.379 75.2856 917.448 63.1562 945.696 63.1562C973.945 63.1562 979.024 75.2856 979.024 97.8178V133.681ZM966.225 97.6842C966.225 81.4195 964.89 74.7513 945.696 74.7513C926.503 74.7513 925.173 81.4145 925.173 97.6842V133.81C925.173 150.075 926.508 156.476 945.696 156.476C964.885 156.476 966.225 150.075 966.225 133.81V97.6842Z" fill="#1D1E1C"/>
<path d="M1045.91 64.4868H1058.7V133.543C1058.7 156.075 1051.51 168.204 1027.12 168.204C1002.73 168.204 995.26 156.075 995.26 133.543V64.6204H1008.05V133.681C1008.05 149.941 1011.25 156.342 1027.11 156.342C1042.97 156.342 1045.91 149.941 1045.91 133.681V64.4918L1045.91 64.4868Z" fill="#1D1E1C"/>
<path d="M1123.46 143.278L1121.6 108.349V64.6206H1134.26V167.408H1122.4L1088.54 93.5489L1089.34 127.28V167.408H1076.68V64.6206H1088.67L1123.46 143.278Z" fill="#1D1E1C"/>
<path d="M1178.49 76.8834V167.403H1165.83V76.8834H1144.5V65.1548H1199.81V76.8834H1178.49Z" fill="#1D1E1C"/>
<path d="M1191.84 207.906V241.154H1184.81V207.906H1176.6V201.595H1200V207.906H1191.84Z" fill="#1075B9"/>
<path d="M1165.9 211.6C1165.8 209.993 1165.32 208.881 1164.47 208.265C1163.61 207.615 1162.3 207.29 1160.52 207.29C1158.57 207.29 1157.16 207.718 1156.31 208.573C1155.45 209.394 1155.03 210.745 1155.03 212.627C1155.03 213.961 1155.3 214.97 1155.85 215.654C1156.43 216.304 1157.18 216.766 1158.11 217.039C1159.06 217.279 1160.48 217.518 1162.36 217.757C1163.6 217.894 1164.47 218.014 1164.98 218.117C1167.75 218.561 1169.92 219.519 1171.5 220.99C1173.1 222.461 1173.91 224.992 1173.91 228.584C1173.91 233.167 1172.85 236.502 1170.73 238.589C1168.64 240.641 1165.25 241.668 1160.57 241.668C1151.85 241.668 1147.48 237.956 1147.48 230.533H1154.62C1154.68 232.141 1155.15 233.321 1156 234.074C1156.89 234.826 1158.41 235.203 1160.57 235.203C1162.72 235.203 1164.3 234.707 1165.29 233.715C1166.31 232.688 1166.83 231.064 1166.83 228.84C1166.83 227.575 1166.43 226.6 1165.65 225.916C1164.9 225.232 1163.97 224.753 1162.88 224.479C1161.78 224.205 1160.36 223.983 1158.62 223.812C1158.28 223.744 1157.76 223.675 1157.08 223.607C1154.38 223.265 1152.17 222.29 1150.46 220.682C1148.75 219.04 1147.89 216.372 1147.89 212.678C1147.89 208.984 1148.99 206.127 1151.18 204.109C1153.37 202.091 1156.48 201.082 1160.52 201.082C1164.31 201.082 1167.27 201.903 1169.39 203.545C1171.51 205.153 1172.73 207.838 1173.04 211.6H1165.9Z" fill="#1075B9"/>
<path d="M1128.57 241.668C1123.92 241.668 1120.55 240.727 1118.46 238.846C1116.41 236.964 1115.38 233.971 1115.38 229.866V212.883C1115.38 210.044 1115.81 207.769 1116.67 206.059C1117.56 204.349 1118.96 203.1 1120.87 202.313C1122.82 201.493 1125.39 201.082 1128.57 201.082C1133.36 201.082 1136.8 202.006 1138.88 203.853C1141 205.7 1142.06 208.71 1142.06 212.883V229.866C1142.06 233.937 1140.99 236.93 1138.83 238.846C1136.68 240.727 1133.26 241.668 1128.57 241.668ZM1128.57 235.408C1131 235.408 1132.68 234.929 1133.6 233.971C1134.52 233.013 1134.98 231.525 1134.98 229.507V213.242C1134.98 211.908 1134.81 210.831 1134.47 210.01C1134.16 209.155 1133.53 208.505 1132.57 208.06C1131.65 207.581 1130.32 207.342 1128.57 207.342C1126.18 207.342 1124.55 207.838 1123.7 208.83C1122.88 209.787 1122.46 211.258 1122.46 213.242V229.507C1122.46 230.876 1122.62 231.987 1122.93 232.842C1123.27 233.663 1123.88 234.296 1124.77 234.741C1125.66 235.185 1126.93 235.408 1128.57 235.408Z" fill="#1075B9"/>
<path d="M1101.94 241.154L1090.34 216.115L1090.96 231.097V241.154H1083.93V201.595H1090.96L1102.55 227.711L1101.78 211.036V201.595H1108.81V241.154H1101.94Z" fill="#1075B9"/>
<path d="M1078.13 229.353C1078.13 233.663 1077.05 236.793 1074.9 238.743C1072.78 240.692 1069.36 241.667 1064.63 241.667C1059.98 241.667 1056.61 240.727 1054.53 238.845C1052.47 236.964 1051.45 233.971 1051.45 229.866V212.883C1051.45 210.044 1051.88 207.769 1052.73 206.059C1053.62 204.348 1055.02 203.1 1056.94 202.313C1058.89 201.492 1061.45 201.082 1064.63 201.082C1069.42 201.082 1072.86 202.039 1074.95 203.955C1077.07 205.836 1078.13 208.966 1078.13 213.345H1071.05C1071.05 211.942 1070.88 210.813 1070.54 209.958C1070.23 209.103 1069.61 208.453 1068.69 208.008C1067.76 207.564 1066.41 207.341 1064.63 207.341C1062.99 207.341 1061.73 207.564 1060.84 208.008C1059.95 208.453 1059.33 209.103 1058.99 209.958C1058.68 210.779 1058.53 211.874 1058.53 213.242V229.507C1058.53 230.875 1058.68 231.987 1058.99 232.842C1059.33 233.663 1059.95 234.296 1060.84 234.74C1061.73 235.185 1062.99 235.407 1064.63 235.407C1067.06 235.407 1068.74 234.929 1069.66 233.971C1070.59 232.979 1071.05 231.44 1071.05 229.353H1078.13ZM1073.56 192V192.513L1066.28 199.132H1062.99L1055.76 192.513V192H1062.33L1064.63 194.309L1067.05 192H1073.56Z" fill="#1075B9"/>
<path d="M1045.78 207.752H1030.13V217.962H1043.47V224.325H1030.13V234.689H1046.5V241.154H1023.05V201.595H1045.78V207.752Z" fill="#1075B9"/>
<path d="M995.843 241.154V201.595H1002.98V234.689H1018.21V241.154H995.843Z" fill="#1075B9"/>
<path d="M975.595 241.668C970.943 241.668 967.574 240.727 965.487 238.846C963.435 236.964 962.409 233.971 962.409 229.866V212.883C962.409 210.044 962.837 207.769 963.692 206.059C964.581 204.349 965.984 203.1 967.899 202.313C969.849 201.493 972.414 201.082 975.595 201.082C980.384 201.082 983.822 202.006 985.909 203.853C988.029 205.7 989.09 208.71 989.09 212.883V229.866C989.09 233.937 988.012 236.93 985.857 238.846C983.702 240.727 980.282 241.668 975.595 241.668ZM975.595 235.408C978.024 235.408 979.7 234.929 980.624 233.971C981.547 233.013 982.009 231.525 982.009 229.507V213.242C982.009 211.908 981.838 210.831 981.496 210.01C981.188 209.155 980.555 208.505 979.597 208.06C978.674 207.581 977.34 207.342 975.595 207.342C973.201 207.342 971.576 207.838 970.721 208.83C969.9 209.787 969.49 211.258 969.49 213.242V229.507C969.49 230.876 969.644 231.987 969.951 232.842C970.293 233.663 970.909 234.296 971.799 234.741C972.688 235.185 973.954 235.408 975.595 235.408Z" fill="#1075B9"/>
<path d="M944.617 201.595C949.44 201.595 952.981 202.535 955.238 204.417C957.496 206.264 958.625 209.257 958.625 213.396V217.09C958.625 221.161 957.462 224.171 955.136 226.12C952.844 228.07 949.338 229.045 944.617 229.045H941.898V241.154H934.663V201.595H944.617ZM944.617 222.221C947.114 222.221 948.876 221.793 949.902 220.938C950.928 220.049 951.441 218.646 951.441 216.731V213.755C951.441 212.421 951.253 211.343 950.877 210.523C950.501 209.702 949.816 209.086 948.824 208.675C947.867 208.265 946.499 208.06 944.72 208.06H941.847V222.221H944.617Z" fill="#1075B9"/>
<path d="M920.783 211.6C920.681 209.993 920.202 208.881 919.347 208.265C918.491 207.615 917.174 207.29 915.396 207.29C913.446 207.29 912.044 207.718 911.188 208.573C910.333 209.394 909.906 210.745 909.906 212.627C909.906 213.961 910.179 214.97 910.727 215.654C911.308 216.304 912.061 216.766 912.984 217.039C913.942 217.279 915.362 217.518 917.243 217.757C918.474 217.894 919.347 218.014 919.86 218.117C922.63 218.561 924.802 219.519 926.376 220.99C927.984 222.461 928.787 224.992 928.787 228.584C928.787 233.167 927.727 236.502 925.606 238.589C923.52 240.641 920.133 241.668 915.447 241.668C906.725 241.668 902.363 237.956 902.363 230.533H909.495C909.564 232.141 910.025 233.321 910.881 234.074C911.77 234.826 913.292 235.203 915.447 235.203C917.602 235.203 919.176 234.707 920.168 233.715C921.194 232.688 921.707 231.064 921.707 228.84C921.707 227.575 921.313 226.6 920.527 225.916C919.774 225.232 918.851 224.753 917.756 224.479C916.661 224.205 915.242 223.983 913.497 223.812C913.155 223.744 912.642 223.675 911.958 223.607C909.256 223.265 907.05 222.29 905.339 220.682C903.629 219.04 902.774 216.372 902.774 212.678C902.774 208.984 903.868 206.127 906.058 204.109C908.247 202.091 911.359 201.082 915.396 201.082C919.193 201.082 922.151 201.903 924.272 203.545C926.393 205.153 927.607 207.838 927.915 211.6H920.783Z" fill="#1075B9"/>
<path d="M879.474 241.154L877.473 234.176H867.365L865.313 241.154H858.027L868.956 201.595H875.985L886.76 241.154H879.474ZM872.393 212.626L869.11 227.249H875.677L872.393 212.626ZM868.904 199.029L871.829 192.051H878.91L875.01 199.029H868.904Z" fill="#1075B9"/>
<path d="M837.612 225.3H835.611V241.154H828.581V201.595H835.662V218.27H837.561L847.925 201.595H856.186L843.307 221.4L857.366 241.154H848.746L837.612 225.3Z" fill="#1075B9"/>
<path d="M814.958 211.6C814.856 209.993 814.377 208.881 813.522 208.265C812.666 207.615 811.35 207.29 809.571 207.29C807.621 207.29 806.219 207.718 805.364 208.573C804.508 209.394 804.081 210.745 804.081 212.627C804.081 213.961 804.354 214.97 804.902 215.654C805.483 216.304 806.236 216.766 807.159 217.039C808.117 217.279 809.537 217.518 811.418 217.757C812.649 217.894 813.522 218.014 814.035 218.117C816.805 218.561 818.977 219.519 820.551 220.99C822.159 222.461 822.963 224.992 822.963 228.584C822.963 233.167 821.902 236.502 819.781 238.589C817.695 240.641 814.308 241.668 809.622 241.668C800.9 241.668 796.538 237.956 796.538 230.533H803.67C803.739 232.141 804.2 233.321 805.056 234.074C805.945 234.826 807.467 235.203 809.622 235.203C811.777 235.203 813.351 234.707 814.343 233.715C815.369 232.688 815.882 231.064 815.882 228.84C815.882 227.575 815.488 226.6 814.702 225.916C813.949 225.232 813.026 224.753 811.931 224.479C810.836 224.205 809.417 223.983 807.672 223.812C807.33 223.744 806.817 223.675 806.133 223.607C803.431 223.265 801.225 222.29 799.514 220.682C797.804 219.04 796.949 216.372 796.949 212.678C796.949 208.984 798.043 206.127 800.233 204.109C802.422 202.091 805.535 201.082 809.571 201.082C813.368 201.082 816.327 201.903 818.447 203.545C820.568 205.153 821.782 207.838 822.09 211.6H814.958Z" fill="#1075B9"/>
<path d="M783.863 241.154L772.267 216.115L772.882 231.097V241.154H765.853V201.595H772.882L784.478 227.711L783.709 211.036V201.595H790.738V241.154H783.863Z" fill="#1075B9"/>
<path d="M759.673 207.752H744.024V217.962H757.364V224.325H744.024V234.689H760.391V241.154H736.943V201.595H759.673V207.752Z" fill="#1075B9"/>
<path d="M717.156 201.595C721.944 201.595 725.382 202.518 727.469 204.365C729.589 206.213 730.65 209.223 730.65 213.396V229.558C730.65 233.629 729.572 236.588 727.417 238.435C725.297 240.248 721.876 241.154 717.156 241.154H704.174V201.595H717.156ZM717.156 234.74C719.618 234.74 721.294 234.313 722.184 233.458C723.107 232.603 723.569 231.183 723.569 229.199V213.755C723.569 212.387 723.415 211.309 723.107 210.523C722.8 209.702 722.184 209.086 721.26 208.675C720.371 208.265 719.037 208.06 717.258 208.06H711.204V234.74H717.156Z" fill="#1075B9"/>
<path d="M692.777 241.154L690.776 234.176H680.668L678.616 241.154H671.33L682.259 201.595H689.288L700.063 241.154H692.777ZM685.697 212.626L682.413 227.249H688.98L685.697 212.626Z" fill="#1075B9"/>
<path d="M653.693 227.249H651.076V241.154H643.995V201.595H653.949C658.772 201.595 662.313 202.535 664.57 204.417C666.828 206.298 667.957 209.308 667.957 213.447V215.551C667.957 218.493 667.409 220.801 666.315 222.478C665.254 224.154 663.527 225.368 661.133 226.12L669.804 241.154H661.543L653.693 227.249ZM653.949 220.733C656.412 220.733 658.122 220.305 659.08 219.45C660.038 218.561 660.517 217.141 660.517 215.192V213.806C660.517 212.438 660.346 211.361 660.004 210.574C659.696 209.753 659.063 209.137 658.105 208.727C657.182 208.316 655.831 208.111 654.052 208.111H651.025V220.733H653.949Z" fill="#1075B9"/>
<path d="M623.747 241.668C619.095 241.668 615.726 240.727 613.639 238.846C611.587 236.964 610.561 233.971 610.561 229.866V212.883C610.561 210.044 610.988 207.769 611.844 206.059C612.733 204.349 614.135 203.1 616.051 202.313C618.001 201.493 620.566 201.082 623.747 201.082C628.536 201.082 631.974 202.006 634.06 203.853C636.181 205.7 637.242 208.71 637.242 212.883V229.866C637.242 233.937 636.164 236.93 634.009 238.846C631.854 240.727 628.434 241.668 623.747 241.668ZM623.747 235.408C626.176 235.408 627.852 234.929 628.776 233.971C629.699 233.013 630.161 231.525 630.161 229.507V213.242C630.161 211.908 629.99 210.831 629.648 210.01C629.34 209.155 628.707 208.505 627.749 208.06C626.826 207.581 625.492 207.342 623.747 207.342C621.353 207.342 619.728 207.838 618.873 208.83C618.052 209.787 617.642 211.258 617.642 213.242V229.507C617.642 230.876 617.795 231.987 618.103 232.842C618.445 233.663 619.061 234.296 619.95 234.741C620.84 235.185 622.105 235.408 623.747 235.408Z" fill="#1075B9"/>
<path d="M592.769 201.595C597.592 201.595 601.133 202.535 603.39 204.417C605.648 206.264 606.777 209.257 606.777 213.396V217.09C606.777 221.161 605.614 224.171 603.287 226.12C600.996 228.07 597.49 229.045 592.769 229.045H590.05V241.154H582.815V201.595H592.769ZM592.769 222.221C595.266 222.221 597.028 221.793 598.054 220.938C599.08 220.049 599.593 218.646 599.593 216.731V213.755C599.593 212.421 599.405 211.343 599.029 210.523C598.653 209.702 597.968 209.086 596.976 208.675C596.019 208.265 594.65 208.06 592.872 208.06H589.998V222.221H592.769Z" fill="#1075B9"/>
<path d="M563.706 207.752H548.057V217.962H561.397V224.325H548.057V234.689H564.425V241.154H540.976V201.595H563.706V207.752ZM561.295 192V192.513L554.009 199.132H550.725L543.49 192.513V192H550.058L552.367 194.309L554.778 192H561.295Z" fill="#1075B9"/>
<path d="M526.294 241.154H518.906L508.233 201.595H515.468L518.906 213.704L522.6 232.175L526.243 213.601L529.68 201.595H536.915L526.294 241.154Z" fill="#1075B9"/>
<path d="M492.468 241.668C487.816 241.668 484.447 240.727 482.36 238.846C480.308 236.964 479.282 233.971 479.282 229.866V212.883C479.282 210.044 479.709 207.769 480.565 206.059C481.454 204.349 482.856 203.1 484.772 202.313C486.722 201.493 489.287 201.082 492.468 201.082C497.257 201.082 500.695 202.006 502.781 203.853C504.902 205.7 505.963 208.71 505.963 212.883V229.866C505.963 233.937 504.885 236.93 502.73 238.846C500.575 240.727 497.155 241.668 492.468 241.668ZM492.468 235.408C494.897 235.408 496.573 234.929 497.497 233.971C498.42 233.013 498.882 231.525 498.882 229.507V213.242C498.882 211.908 498.711 210.831 498.369 210.01C498.061 209.155 497.428 208.505 496.47 208.06C495.547 207.581 494.213 207.342 492.468 207.342C490.074 207.342 488.449 207.838 487.594 208.83C486.773 209.787 486.363 211.258 486.363 213.242V229.507C486.363 230.876 486.516 231.987 486.824 232.842C487.166 233.663 487.782 234.296 488.671 234.741C489.561 235.185 490.826 235.408 492.468 235.408Z" fill="#1075B9"/>
<path d="M465.836 241.154L454.241 216.115L454.856 231.098V241.154H447.827V201.595H454.856L466.452 227.711L465.682 211.036V201.595H472.712V241.154H465.836ZM469.223 192V192.513L461.937 199.132H458.653L451.419 192.513V192H457.986L460.295 194.309L462.707 192H469.223Z" fill="#1075B9"/>
<path d="M436.532 241.154L434.531 234.176H424.423L422.371 241.154H415.085L426.014 201.595H433.043L443.818 241.154H436.532ZM429.452 212.626L426.168 227.249H432.736L429.452 212.626Z" fill="#1075B9"/>
<path d="M399.981 201.595C404.77 201.595 408.208 202.518 410.294 204.365C412.415 206.213 413.475 209.223 413.475 213.396V229.558C413.475 233.629 412.398 236.588 410.243 238.435C408.122 240.248 404.702 241.154 399.981 241.154H387V201.595H399.981ZM399.981 234.74C402.444 234.74 404.12 234.313 405.009 233.458C405.933 232.603 406.395 231.183 406.395 229.199V213.755C406.395 212.387 406.241 211.309 405.933 210.523C405.625 209.702 405.009 209.086 404.086 208.675C403.197 208.265 401.863 208.06 400.084 208.06H394.029V234.74H399.981Z" fill="#1075B9"/>
</svg>
