<svg width="1200" height="305" viewBox="0 0 1200 305" fill="none" xmlns="http://www.w3.org/2000/svg">
<path d="M316.421 172.925L266.746 20.0857C264.608 14.4039 260.851 9.47339 255.94 5.90365C251.03 2.33392 245.181 0.281464 239.116 0L78.4113 0C72.3447 0.279477 66.4932 2.33099 61.5803 5.90082C56.6674 9.47066 52.9086 14.4022 50.7687 20.0857L1.10999 172.925C-0.498769 178.78 -0.356087 184.979 1.5204 190.755C3.39688 196.53 6.92488 201.629 11.6682 205.421L141.683 299.881C146.754 303.221 152.693 305.001 158.765 305.001C164.838 305.001 170.777 303.221 175.848 299.881L305.863 205.421C310.606 201.629 314.134 196.531 316.011 190.755C317.887 184.979 318.03 178.78 316.421 172.925ZM110.612 65.8178H206.916C209.948 65.9578 212.873 66.9836 215.329 68.7682C217.785 70.5528 219.664 73.018 220.734 75.8591L230.006 104.37L186.061 110.955C185.857 110.985 185.661 111.055 185.484 111.162C185.308 111.27 185.155 111.411 185.035 111.578C184.914 111.745 184.828 111.935 184.783 112.136C184.737 112.338 184.732 112.546 184.769 112.749L188.424 133.538C188.557 134.56 188.45 135.6 188.113 136.574L182.991 149.62C182.79 150.063 182.498 150.458 182.134 150.78C181.769 151.102 181.341 151.343 180.877 151.488L160.76 156.494C159.746 156.703 158.7 156.703 157.687 156.494L137.57 151.488C137.106 151.343 136.677 151.101 136.313 150.779C135.949 150.458 135.656 150.062 135.455 149.62L130.33 136.571C129.993 135.597 129.886 134.557 130.019 133.535L133.674 112.746C133.711 112.543 133.706 112.335 133.661 112.134C133.615 111.933 133.53 111.743 133.41 111.576C133.289 111.409 133.137 111.267 132.961 111.16C132.785 111.053 132.589 110.982 132.385 110.952L87.5497 104.236L96.7753 75.8435C97.8452 73.002 99.7247 70.5364 102.181 68.7518C104.638 66.9671 107.563 65.9417 110.596 65.8023M67.0062 167.426L86.5377 107.418L119.682 129.705C120.502 130.316 121.146 131.132 121.55 132.072L137.993 175.764C138.401 176.683 139.093 177.447 139.967 177.944L155.224 185.6C155.625 185.825 155.955 186.159 156.175 186.563C156.396 186.968 156.498 187.426 156.469 187.885L155.401 197.497C155.323 197.967 155.135 198.411 154.852 198.795C154.57 199.178 154.201 199.49 153.776 199.705L125.582 211.984C124.611 212.38 123.596 212.66 122.559 212.819L113.975 213.93L72.3211 183.679C69.9469 181.785 68.1801 179.237 67.2393 176.349C66.2985 173.461 66.225 170.361 67.0279 167.432M167.286 240.29C164.749 241.96 161.779 242.849 158.742 242.849C155.705 242.849 152.735 241.96 150.198 240.29L114.641 214.447L125.28 214.494C126.329 214.476 127.372 214.347 128.394 214.111L157.662 206.719C158.674 206.507 159.719 206.507 160.732 206.719L189.999 214.111C191.021 214.348 192.065 214.476 193.113 214.494L202.815 214.45L167.286 240.29ZM245.213 183.679L203.696 213.843L195.912 212.838C194.876 212.678 193.863 212.398 192.892 212.003L164.695 199.723C164.27 199.509 163.902 199.197 163.619 198.813C163.337 198.43 163.149 197.985 163.07 197.516L162.002 187.904C161.974 187.445 162.076 186.987 162.296 186.582C162.516 186.178 162.846 185.844 163.247 185.619L178.504 177.962C179.376 177.464 180.067 176.701 180.475 175.783L196.915 132.09C197.319 131.151 197.963 130.335 198.783 129.724L231.164 107.951L250.5 167.445C251.303 170.374 251.23 173.474 250.289 176.362C249.348 179.249 247.581 181.798 245.207 183.691" fill="#1075B9"/>
<path d="M386.552 101.064H412.407C430.665 101.064 440.27 111.862 440.27 127.726C440.27 136.259 437.871 141.993 432.94 147.058C444.132 150.521 450.136 159.721 450.136 172.919C450.136 194.784 437.871 204.38 416.947 204.38H386.552V101.059V101.064ZM399.212 112.931V143.462H411.076C423.341 143.462 427.332 135.196 427.332 127.726C427.332 117.729 420.933 112.931 412.402 112.931H399.207H399.212ZM417.209 192.251C432.663 192.251 437.198 184.786 437.198 173.053C437.198 159.989 429.597 155.591 417.604 155.591H399.484V192.251H417.214H417.209Z" fill="#1D1E1C"/>
<path d="M516.093 101.331V112.53H476.905V143.462H512.359V155.329H476.905V192.389H519.422V204.257H464.245V101.34H516.093V101.331Z" fill="#1D1E1C"/>
<path d="M576.987 126.791C576.319 118.392 573.386 112.391 560.593 112.391C546.33 112.391 543.531 118.926 543.531 129.19C543.531 143.457 555.929 143.323 568.851 144.659C580.716 145.861 592.98 151.722 592.98 173.186C592.98 194.65 584.583 204.781 563.387 204.781H560.86C539.797 204.781 530.203 194.516 529.268 177.05H543.002C543.669 185.716 547.527 192.384 560.731 192.384H563.263C577.12 192.384 579.919 185.85 579.919 173.854C579.919 157.055 568.856 156.788 556.063 155.719C544.07 154.784 530.346 148.923 530.346 129.324C530.346 109.725 539.006 100.396 560.597 100.396C580.993 100.396 589.252 109.863 590.181 126.791H576.987Z" fill="#1D1E1C"/>
<path d="M634.003 113.727V204.247H621.343V113.727H600.018V101.999H655.328V113.727H634.003Z" fill="#1D1E1C"/>
<path d="M741.157 204.251L735.954 185.187H705.169L699.966 204.251H686.772L714.095 101.731H727.028L754.213 204.251H741.157ZM720.5 118.263L713.566 151.722L708.374 173.186H732.631L727.3 151.322L720.5 118.258V118.263Z" fill="#1D1E1C"/>
<path d="M812.184 130.393C812.05 117.996 809.513 112.396 792.456 112.396C775.399 112.396 772.467 118.798 772.467 135.062V170.258C772.467 186.518 775.137 192.919 792.456 192.919C809.775 192.919 812.446 189.056 812.446 172.786H824.582C824.582 192.652 822.445 204.915 792.456 204.915C762.467 204.915 759.673 192.647 759.673 170.12V135.191C759.673 112.659 765.004 100.524 792.456 100.524C819.908 100.524 824.315 110.527 824.582 130.388H812.184V130.393Z" fill="#1D1E1C"/>
<path d="M888.536 130.393C888.403 117.996 885.866 112.396 868.809 112.396C850.956 112.396 848.819 118.798 848.819 135.062V170.258C848.819 186.518 851.49 192.919 868.809 192.919C886.138 192.919 888.798 189.056 888.798 172.786H900.935C900.935 192.652 898.798 204.915 868.809 204.915C838.825 204.915 836.025 192.647 836.025 170.12V135.191C836.025 112.659 841.357 100.524 868.809 100.524C895.47 100.524 900.668 110.527 900.935 130.388H888.536V130.393Z" fill="#1D1E1C"/>
<path d="M979.024 170.525C979.024 193.057 973.955 205.187 945.696 205.187C917.438 205.187 912.379 193.057 912.379 170.525V134.662C912.379 112.129 917.448 100 945.696 100C973.945 100 979.024 112.129 979.024 134.662V170.525ZM966.225 134.528C966.225 118.263 964.89 111.595 945.696 111.595C926.503 111.595 925.173 118.258 925.173 134.528V170.654C925.173 186.918 926.508 193.32 945.696 193.32C964.885 193.32 966.225 186.918 966.225 170.654V134.528Z" fill="#1D1E1C"/>
<path d="M1045.91 101.331H1058.7V170.386C1058.7 192.919 1051.51 205.048 1027.12 205.048C1002.73 205.048 995.26 192.919 995.26 170.386V101.464H1008.05V170.525C1008.05 186.785 1011.25 193.186 1027.11 193.186C1042.97 193.186 1045.91 186.785 1045.91 170.525V101.336L1045.91 101.331Z" fill="#1D1E1C"/>
<path d="M1123.46 180.122L1121.6 145.193V101.464H1134.26V204.252H1122.4L1088.54 130.393L1089.34 164.124V204.252H1076.68V101.464H1088.67L1123.46 180.122Z" fill="#1D1E1C"/>
<path d="M1178.49 113.727V204.247H1165.83V113.727H1144.5V101.999H1199.81V113.727H1178.49Z" fill="#1D1E1C"/>
</svg>
