<svg width="1200" height="305" viewBox="0 0 1200 305" fill="none" xmlns="http://www.w3.org/2000/svg">
<path d="M316.421 172.925L266.746 20.0857C264.608 14.4039 260.851 9.47339 255.94 5.90365C251.03 2.33392 245.181 0.281464 239.116 0L78.4113 0C72.3447 0.279477 66.4932 2.33099 61.5803 5.90082C56.6674 9.47066 52.9086 14.4022 50.7687 20.0857L1.10999 172.925C-0.498769 178.78 -0.356087 184.979 1.5204 190.755C3.39688 196.53 6.92488 201.629 11.6682 205.421L141.683 299.881C146.754 303.221 152.693 305.001 158.765 305.001C164.838 305.001 170.777 303.221 175.848 299.881L305.863 205.421C310.606 201.629 314.134 196.531 316.011 190.755C317.887 184.979 318.03 178.78 316.421 172.925ZM110.612 65.8178H206.916C209.948 65.9578 212.873 66.9836 215.329 68.7682C217.785 70.5528 219.664 73.018 220.734 75.8591L230.006 104.37L186.061 110.955C185.857 110.985 185.661 111.055 185.484 111.162C185.308 111.27 185.155 111.411 185.035 111.578C184.914 111.745 184.828 111.935 184.783 112.136C184.737 112.338 184.732 112.546 184.769 112.749L188.424 133.538C188.557 134.56 188.45 135.6 188.113 136.574L182.991 149.62C182.79 150.063 182.498 150.458 182.134 150.78C181.769 151.102 181.341 151.343 180.877 151.488L160.76 156.494C159.746 156.703 158.7 156.703 157.687 156.494L137.57 151.488C137.106 151.343 136.677 151.101 136.313 150.779C135.949 150.458 135.656 150.062 135.455 149.62L130.33 136.571C129.993 135.597 129.886 134.557 130.019 133.535L133.674 112.746C133.711 112.543 133.706 112.335 133.661 112.134C133.615 111.933 133.53 111.743 133.41 111.576C133.289 111.409 133.137 111.267 132.961 111.16C132.785 111.053 132.589 110.982 132.385 110.952L87.5497 104.236L96.7753 75.8435C97.8452 73.002 99.7247 70.5364 102.181 68.7518C104.638 66.9671 107.563 65.9417 110.596 65.8023M67.0062 167.426L86.5377 107.418L119.682 129.705C120.502 130.316 121.146 131.132 121.55 132.072L137.993 175.764C138.401 176.683 139.093 177.447 139.967 177.944L155.224 185.6C155.625 185.825 155.955 186.159 156.175 186.563C156.396 186.968 156.498 187.426 156.469 187.885L155.401 197.497C155.323 197.967 155.135 198.411 154.852 198.795C154.57 199.178 154.201 199.49 153.776 199.705L125.582 211.984C124.611 212.38 123.596 212.66 122.559 212.819L113.975 213.93L72.3211 183.679C69.9469 181.785 68.1801 179.237 67.2393 176.349C66.2985 173.461 66.225 170.361 67.0279 167.432M167.286 240.29C164.749 241.96 161.779 242.849 158.742 242.849C155.705 242.849 152.735 241.96 150.198 240.29L114.641 214.447L125.28 214.494C126.329 214.476 127.372 214.347 128.394 214.111L157.662 206.719C158.674 206.507 159.719 206.507 160.732 206.719L189.999 214.111C191.021 214.348 192.065 214.476 193.113 214.494L202.815 214.45L167.286 240.29ZM245.213 183.679L203.696 213.843L195.912 212.838C194.876 212.678 193.863 212.398 192.892 212.003L164.695 199.723C164.27 199.509 163.902 199.197 163.619 198.813C163.337 198.43 163.149 197.985 163.07 197.516L162.002 187.904C161.974 187.445 162.076 186.987 162.296 186.582C162.516 186.178 162.846 185.844 163.247 185.619L178.504 177.962C179.376 177.464 180.067 176.701 180.475 175.783L196.915 132.09C197.319 131.151 197.963 130.335 198.783 129.724L231.164 107.951L250.5 167.445C251.303 170.374 251.23 173.474 250.289 176.362C249.348 179.249 247.581 181.798 245.207 183.691" fill="#1075B9"/>
<path d="M386.552 64.22H412.407C430.666 64.22 440.27 75.0187 440.27 90.8827C440.27 99.4158 437.871 105.149 432.94 110.214C444.132 113.677 450.136 122.878 450.136 136.076C450.136 157.94 437.871 167.537 416.947 167.537H386.552V64.2151V64.22ZM399.212 76.0872V106.618H411.077C423.341 106.618 427.332 98.3523 427.332 90.8827C427.332 80.8855 420.933 76.0872 412.402 76.0872H399.207H399.212ZM417.209 155.408C432.664 155.408 437.199 147.943 437.199 136.209C437.199 123.145 429.597 118.748 417.605 118.748H399.484V155.408H417.214H417.209Z" fill="#1D1E1C"/>
<path d="M516.093 64.4871V75.6864H476.906V106.618H512.36V118.485H476.906V155.546H519.422V167.413H464.245V64.4969H516.093V64.4871Z" fill="#1D1E1C"/>
<path d="M576.987 89.9476C576.319 81.5481 573.387 75.5478 560.593 75.5478C546.33 75.5478 543.531 82.0824 543.531 92.3468C543.531 106.613 555.929 106.479 568.852 107.815C580.716 109.017 592.981 114.879 592.981 136.343C592.981 157.806 584.583 167.937 563.387 167.937H560.86C539.797 167.937 530.203 157.673 529.268 140.206H543.002C543.669 148.873 547.527 155.541 560.731 155.541H563.263C577.12 155.541 579.92 149.006 579.92 137.011C579.92 120.212 568.857 119.944 556.063 118.876C544.07 117.941 530.346 112.079 530.346 92.4803C530.346 72.8815 539.006 63.552 560.598 63.552C580.993 63.552 589.252 73.02 590.181 89.9476H576.987Z" fill="#1D1E1C"/>
<path d="M634.003 76.8834V167.403H621.343V76.8834H600.018V65.1548H655.328V76.8834H634.003Z" fill="#1D1E1C"/>
<path d="M741.157 167.408L735.954 148.343H705.169L699.966 167.408H686.772L714.095 64.8875H727.028L754.213 167.408H741.157ZM720.5 81.4193L713.566 114.879L708.374 136.343H732.631L727.3 114.478L720.5 81.4144V81.4193Z" fill="#1D1E1C"/>
<path d="M812.184 93.5488C812.05 81.1524 809.513 75.5527 792.456 75.5527C775.399 75.5527 772.467 81.9538 772.467 98.2185V133.414C772.467 149.674 775.137 156.075 792.456 156.075C809.775 156.075 812.446 152.212 812.446 135.942H824.582C824.582 155.808 822.445 168.071 792.456 168.071C762.467 168.071 759.673 155.803 759.673 133.276V98.3472C759.673 75.8149 765.004 63.6807 792.456 63.6807C819.908 63.6807 824.315 73.6829 824.582 93.5439H812.184V93.5488Z" fill="#1D1E1C"/>
<path d="M888.536 93.5488C888.403 81.1524 885.866 75.5527 868.809 75.5527C850.956 75.5527 848.819 81.9538 848.819 98.2185V133.414C848.819 149.674 851.49 156.075 868.809 156.075C886.138 156.075 888.799 152.212 888.799 135.942H900.935C900.935 155.808 898.798 168.071 868.809 168.071C838.825 168.071 836.026 155.803 836.026 133.276V98.3472C836.026 75.8149 841.357 63.6807 868.809 63.6807C895.47 63.6807 900.668 73.6829 900.935 93.5439H888.536V93.5488Z" fill="#1D1E1C"/>
<path d="M979.024 133.682C979.024 156.214 973.955 168.343 945.696 168.343C917.438 168.343 912.379 156.214 912.379 133.682V97.818C912.379 75.2858 917.448 63.1565 945.696 63.1565C973.945 63.1565 979.024 75.2858 979.024 97.818V133.682ZM966.225 97.6845C966.225 81.4197 964.89 74.7516 945.696 74.7516C926.503 74.7516 925.173 81.4148 925.173 97.6845V133.81C925.173 150.075 926.508 156.476 945.696 156.476C964.885 156.476 966.225 150.075 966.225 133.81V97.6845Z" fill="#1D1E1C"/>
<path d="M1045.91 64.4871H1058.7V133.543C1058.7 156.075 1051.51 168.205 1027.12 168.205C1002.73 168.205 995.26 156.075 995.26 133.543V64.6206H1008.05V133.682C1008.05 149.941 1011.25 156.342 1027.11 156.342C1042.97 156.342 1045.91 149.941 1045.91 133.682V64.492L1045.91 64.4871Z" fill="#1D1E1C"/>
<path d="M1123.46 143.278L1121.6 108.35V64.6208H1134.26V167.408H1122.4L1088.54 93.5492L1089.34 127.281V167.408H1076.68V64.6208H1088.68L1123.46 143.278Z" fill="#1D1E1C"/>
<path d="M1178.49 76.8834V167.403H1165.83V76.8834H1144.5V65.1548H1199.81V76.8834H1178.49Z" fill="#1D1E1C"/>
<path d="M393.688 205.33C394.104 205.33 394.148 205.518 394.336 206.067L401.512 233.907C401.833 234.966 401.927 235.287 402.521 235.287C403.258 235.287 403.396 234.966 403.673 233.907L410.76 206.067C410.899 205.518 410.988 205.33 411.403 205.33H417.293C417.753 205.33 417.98 205.518 417.847 206.067L410.256 235.708C408.97 240.63 408.139 241.184 402.575 241.184C397.012 241.184 396.364 240.674 395.029 235.708L387.254 206.067C387.116 205.518 387.348 205.33 387.808 205.33H393.698H393.688Z" fill="#1075B9"/>
<path d="M440.972 210.578L449.068 240.214C449.162 240.768 448.929 240.951 448.469 240.951H442.579C442.169 240.951 442.119 240.768 441.981 240.214L439.36 230.642H427.031L424.36 240.214C424.222 240.768 424.177 240.951 423.717 240.951H417.877C417.367 240.951 417.184 240.768 417.278 240.214L425.512 210.578C426.892 205.562 427.812 205.058 433.148 205.058C438.484 205.058 439.592 205.562 440.972 210.578ZM432.001 212.468L428.643 224.662H437.752L434.439 212.468C434.113 211.365 434.073 211.132 433.148 211.132C432.367 211.132 432.273 211.365 432.001 212.468Z" fill="#1075B9"/>
<path d="M474.27 205.978C474.823 206.161 475.095 206.393 475.095 206.804V210.534C475.095 211.132 474.823 211.365 474.22 211.365H463.315C460.511 211.365 459.082 212.329 459.082 214.358V215.001C459.082 216.608 459.73 217.672 461.797 218.453L470.402 221.812C474.819 223.563 476.797 225.725 476.797 231.063V232.349C476.797 239.16 471.505 241.183 463.548 241.183C460.145 241.183 456.51 240.906 452.183 240.214C451.585 240.075 451.402 239.798 451.402 239.2V235.708C451.402 235.153 451.679 234.876 452.277 234.876H465.343C468.103 234.876 469.527 234.045 469.527 232.027V231.429C469.527 229.45 468.612 228.525 466.213 227.61L457.242 224.251C453.424 222.826 451.768 220.2 451.768 214.862V213.848C451.768 207.036 456.505 205.058 464.651 205.058C468.469 205.058 470.674 205.33 474.265 205.978H474.27ZM471.045 196.173C471.367 196.356 471.461 196.634 471.184 196.955L466.812 203.074C466.629 203.307 466.446 203.44 465.892 203.44H461.985C461.387 203.44 461.204 203.302 461.06 203.074L456.644 196.955C456.416 196.634 456.461 196.356 456.782 196.173L458.256 195.436C458.528 195.253 458.761 195.209 459.038 195.436L463.914 198.889L468.79 195.436C469.067 195.209 469.344 195.253 469.621 195.436L471.045 196.173Z" fill="#1075B9"/>
<path d="M505.312 205.33C505.772 205.33 506.005 205.562 506.005 206.022V210.944C506.005 211.404 505.772 211.632 505.312 211.632H488.8V220.328H503.888C504.348 220.328 504.625 220.56 504.625 221.016V225.71C504.625 226.17 504.348 226.398 503.888 226.398H488.8V234.634H505.312C505.772 234.634 506.005 234.866 506.005 235.326V240.248C506.005 240.708 505.772 240.936 505.312 240.936H482.262C481.802 240.936 481.574 240.703 481.574 240.199V206.007C481.574 205.547 481.807 205.315 482.262 205.315H505.312V205.33Z" fill="#1075B9"/>
<path d="M549.001 205.33C549.505 205.33 549.693 205.518 549.693 206.022V223.187C549.693 237.587 546.79 241.179 535.153 241.179C523.517 241.179 520.574 237.587 520.574 223.187V206.022C520.574 205.518 520.757 205.33 521.262 205.33H527.102C527.612 205.33 527.79 205.518 527.79 206.022V223.187C527.79 232.527 529.263 234.877 535.149 234.877C541.034 234.877 542.468 232.532 542.468 223.187V206.022C542.468 205.518 542.651 205.33 543.155 205.33H548.996H549.001ZM542.102 195.303C542.374 195.303 542.562 195.441 542.562 195.763V196.089C542.562 196.322 542.473 196.5 542.334 196.644L534.283 203.361C534.051 203.544 533.917 203.5 533.64 203.361L531.662 202.214C531.43 202.026 531.385 201.798 531.523 201.565L534.881 195.585C534.975 195.397 535.153 195.308 535.435 195.308H542.107L542.102 195.303Z" fill="#1075B9"/>
<path d="M578.708 205.745C579.396 205.928 579.767 206.205 579.767 206.992V210.672C579.767 211.132 579.534 211.36 579.079 211.36H569.648C563.298 211.36 562.195 214.12 562.195 223.093C562.195 232.067 563.298 234.871 569.648 234.871H579.079C579.539 234.871 579.767 235.104 579.767 235.559V239.289C579.767 240.026 579.401 240.298 578.708 240.486C576.453 240.946 573.693 241.174 569.643 241.174C557.908 241.174 554.876 237.028 554.876 223.088C554.876 209.149 557.913 205.048 569.643 205.048C573.693 205.048 576.453 205.32 578.708 205.735V205.745ZM574.752 196.173C575.073 196.356 575.167 196.634 574.935 196.955L570.518 203.074C570.336 203.307 570.197 203.44 569.599 203.44H565.687C565.093 203.44 564.905 203.302 564.767 203.074L560.351 196.955C560.118 196.634 560.168 196.356 560.534 196.173L561.958 195.436C562.235 195.253 562.467 195.209 562.739 195.436L567.665 198.889L572.541 195.436C572.818 195.209 573.046 195.253 573.323 195.436L574.747 196.173H574.752Z" fill="#1075B9"/>
<path d="M608.326 205.33C608.786 205.33 609.019 205.562 609.019 206.022V210.944C609.019 211.404 608.786 211.632 608.326 211.632H591.813V220.328H606.902C607.362 220.328 607.639 220.56 607.639 221.016V225.71C607.639 226.17 607.362 226.398 606.902 226.398H591.813V234.634H608.326C608.786 234.634 609.019 234.866 609.019 235.326V240.248C609.019 240.708 608.786 240.936 608.326 240.936H585.276C584.816 240.936 584.588 240.703 584.588 240.199V206.007C584.588 205.547 584.821 205.315 585.276 205.315H608.326V205.33Z" fill="#1075B9"/>
<path d="M638.998 205.33C639.458 205.33 639.735 205.562 639.735 206.022V210.944C639.735 211.404 639.463 211.632 638.998 211.632H629.384V240.209C629.384 240.714 629.152 240.946 628.692 240.946H622.851C622.391 240.946 622.164 240.714 622.164 240.209V211.632H612.55C612.09 211.632 611.863 211.404 611.863 210.944V206.022C611.863 205.562 612.095 205.33 612.55 205.33H639.003H638.998Z" fill="#1075B9"/>
<path d="M672.618 205.33C673.078 205.33 673.305 205.562 673.305 206.067V240.214C673.305 240.718 673.078 240.951 672.618 240.951H668.34C667.237 240.951 666.678 240.674 666.04 239.798L650.952 217.667V240.214C650.952 240.718 650.719 240.951 650.264 240.951H644.424C643.964 240.951 643.731 240.718 643.731 240.214V206.067C643.731 205.562 643.964 205.33 644.424 205.33H648.979C650.818 205.33 651.051 205.745 651.827 206.848L666.09 227.694V206.062C666.09 205.557 666.317 205.325 666.777 205.325H672.618V205.33Z" fill="#1075B9"/>
<path d="M686.361 205.33C686.821 205.33 687.048 205.562 687.048 206.067V240.214C687.048 240.719 686.816 240.951 686.361 240.951H680.52C680.061 240.951 679.828 240.719 679.828 240.214V206.067C679.828 205.562 680.061 205.33 680.52 205.33H686.361ZM690.916 195.303C691.193 195.303 691.376 195.441 691.376 195.763V196.089C691.376 196.322 691.237 196.5 691.148 196.644L683.053 203.361C682.82 203.544 682.687 203.5 682.405 203.361L680.427 202.214C680.194 202.026 680.155 201.798 680.288 201.565L683.646 195.585C683.74 195.397 683.923 195.308 684.2 195.308H690.916V195.303Z" fill="#1075B9"/>
<path d="M722.784 210.578L730.88 240.214C730.969 240.768 730.742 240.951 730.282 240.951H724.392C723.976 240.951 723.932 240.768 723.798 240.214L721.177 230.642H708.848L706.178 240.214C706.039 240.768 705.995 240.951 705.535 240.951H699.689C699.185 240.951 699.002 240.768 699.096 240.214L707.33 210.578C708.71 205.562 709.629 205.058 714.971 205.058C720.312 205.058 721.41 205.562 722.789 210.578H722.784ZM713.818 212.468L710.46 224.662H719.57L716.256 212.468C715.935 211.365 715.89 211.132 714.971 211.132C714.189 211.132 714.095 211.365 713.818 212.468Z" fill="#1075B9"/>
<path d="M771.952 223.143C771.952 235.885 767.857 241.183 757.047 241.183C752.536 241.183 747.754 241.045 743.704 240.723C743.155 240.679 743.016 240.585 743.016 240.13V206.215C743.016 205.706 743.155 205.617 743.704 205.567C747.754 205.201 752.536 205.062 757.047 205.062C767.857 205.062 771.952 210.449 771.952 223.148V223.143ZM750.237 211.36V234.871H757.047C762.615 234.871 764.638 231.374 764.638 223.138C764.638 214.902 762.521 211.36 756.676 211.36H750.237Z" fill="#1075B9"/>
<path d="M797.475 210.578L805.571 240.214C805.66 240.768 805.433 240.951 804.973 240.951H799.083C798.667 240.951 798.623 240.768 798.489 240.214L795.868 230.642H783.539L780.869 240.214C780.73 240.768 780.686 240.951 780.226 240.951H774.38C773.876 240.951 773.693 240.768 773.787 240.214L782.021 210.578C783.401 205.562 784.32 205.058 789.662 205.058C795.003 205.058 796.101 205.562 797.48 210.578H797.475ZM788.504 212.468L785.146 224.662H794.256L790.942 212.468C790.621 211.365 790.576 211.132 789.657 211.132C788.875 211.132 788.781 211.365 788.504 212.468Z" fill="#1075B9"/>
<path d="M838.222 205.33C838.681 205.33 838.914 205.562 838.914 206.067V240.214C838.914 240.719 838.681 240.951 838.222 240.951H833.944C832.841 240.951 832.292 240.674 831.644 239.798L816.555 217.667V240.214C816.555 240.719 816.323 240.951 815.868 240.951H810.023C809.563 240.951 809.335 240.719 809.335 240.214V206.067C809.335 205.562 809.568 205.33 810.023 205.33H814.577C816.417 205.33 816.644 205.745 817.426 206.848L831.689 227.694V206.062C831.689 205.557 831.921 205.325 832.376 205.325H838.217L838.222 205.33ZM831.229 196.173C831.555 196.356 831.644 196.634 831.412 196.955L826.995 203.074C826.812 203.307 826.629 203.44 826.075 203.44H822.164C821.57 203.44 821.382 203.302 821.249 203.074L816.832 196.955C816.6 196.634 816.644 196.356 816.971 196.173L818.445 195.436C818.717 195.253 818.949 195.209 819.226 195.436L824.102 198.889L828.978 195.436C829.25 195.209 829.527 195.253 829.804 195.436L831.229 196.173Z" fill="#1075B9"/>
<path d="M874.135 223.187C874.135 237.083 870.965 241.178 859.23 241.178C847.494 241.178 844.324 237.083 844.324 223.187C844.324 209.292 847.499 205.053 859.23 205.053C870.961 205.053 874.135 209.198 874.135 223.187ZM851.639 223.187C851.639 232.111 852.885 234.876 859.23 234.876C865.575 234.876 866.821 232.116 866.821 223.187C866.821 214.259 865.58 211.36 859.23 211.36C852.88 211.36 851.639 214.165 851.639 223.187Z" fill="#1075B9"/>
<path d="M882.775 205.33C883.191 205.33 883.235 205.518 883.423 206.067L890.599 233.907C890.921 234.966 891.01 235.287 891.608 235.287C892.345 235.287 892.483 234.966 892.76 233.907L899.842 206.067C899.981 205.518 900.075 205.33 900.49 205.33H906.38C906.84 205.33 907.067 205.518 906.934 206.067L899.343 235.708C898.057 240.63 897.226 241.184 891.662 241.184C886.099 241.184 885.451 240.674 884.116 235.708L876.341 206.067C876.203 205.518 876.435 205.33 876.895 205.33H882.785H882.775Z" fill="#1075B9"/>
<path d="M931.805 210.578L939.9 240.214C939.989 240.768 939.762 240.951 939.302 240.951H933.412C932.997 240.951 932.952 240.768 932.818 240.214L930.197 230.642H917.868L915.198 240.214C915.059 240.768 915.015 240.951 914.555 240.951H908.709C908.205 240.951 908.022 240.768 908.116 240.214L916.35 210.578C917.73 205.562 918.65 205.058 923.991 205.058C929.332 205.058 930.43 205.562 931.81 210.578H931.805ZM922.834 212.468L919.476 224.662H928.585L925.272 212.468C924.95 211.365 924.906 211.132 923.986 211.132C923.204 211.132 923.111 211.365 922.834 212.468ZM931.716 195.303C931.988 195.303 932.176 195.441 932.176 195.763V196.089C932.176 196.322 932.087 196.5 931.943 196.644L923.892 203.361C923.659 203.544 923.476 203.5 923.249 203.361L921.266 202.214C921.038 202.026 920.994 201.798 921.127 201.565L924.485 195.585C924.574 195.397 924.757 195.308 925.039 195.308H931.711L931.716 195.303Z" fill="#1075B9"/>
<path d="M979.361 205.33C980.187 205.33 980.142 205.696 979.776 206.205L967.813 221.713L981.017 239.704C981.428 240.298 981.477 240.946 980.236 240.946H973.797C973.337 240.946 972.966 240.763 972.788 240.441L960.365 223.365V240.209C960.365 240.713 960.133 240.946 959.678 240.946H953.832C953.372 240.946 953.145 240.713 953.145 240.209V206.017C953.145 205.557 953.377 205.325 953.832 205.325H959.678C960.138 205.325 960.365 205.557 960.365 206.017V220.65L971.913 205.785C972.145 205.513 972.467 205.325 972.882 205.325H979.371L979.361 205.33Z" fill="#1075B9"/>
<path d="M1005.16 210.578L1013.25 240.214C1013.35 240.768 1013.11 240.951 1012.65 240.951H1006.76C1006.35 240.951 1006.3 240.768 1006.17 240.214L1003.54 230.642H991.215L988.544 240.214C988.406 240.768 988.361 240.951 987.901 240.951H982.061C981.551 240.951 981.368 240.768 981.462 240.214L989.697 210.578C991.076 205.562 991.996 205.058 997.332 205.058C1002.67 205.058 1003.78 205.562 1005.16 210.578ZM996.185 212.468L992.827 224.662H1001.94L998.623 212.468C998.297 211.365 998.257 211.132 997.332 211.132C996.551 211.132 996.457 211.365 996.185 212.468Z" fill="#1075B9"/>
<path d="M1045.9 205.33C1046.36 205.33 1046.59 205.562 1046.59 206.067V240.214C1046.59 240.718 1046.36 240.951 1045.9 240.951H1041.62C1040.52 240.951 1039.96 240.674 1039.32 239.798L1024.24 217.667V240.214C1024.24 240.718 1024 240.951 1023.55 240.951H1017.71C1017.25 240.951 1017.02 240.718 1017.02 240.214V206.067C1017.02 205.562 1017.25 205.33 1017.71 205.33H1022.26C1024.1 205.33 1024.33 205.745 1025.11 206.848L1039.37 227.694V206.062C1039.37 205.557 1039.6 205.325 1040.06 205.325H1045.9V205.33Z" fill="#1075B9"/>
<path d="M1075.89 205.745C1076.57 205.928 1076.94 206.205 1076.94 206.992V210.672C1076.94 211.132 1076.71 211.36 1076.26 211.36H1066.83C1060.48 211.36 1059.37 214.12 1059.37 223.093C1059.37 232.067 1060.48 234.871 1066.83 234.871H1076.26C1076.72 234.871 1076.94 235.104 1076.94 235.559V239.289C1076.94 240.026 1076.58 240.298 1075.89 240.486C1073.63 240.946 1070.87 241.174 1066.82 241.174C1055.09 241.174 1052.05 237.028 1052.05 223.088C1052.05 209.149 1055.09 205.048 1066.82 205.048C1070.87 205.048 1073.63 205.32 1075.89 205.735V205.745Z" fill="#1075B9"/>
<path d="M1105.5 205.33C1105.96 205.33 1106.19 205.562 1106.19 206.022V210.944C1106.19 211.404 1105.96 211.632 1105.5 211.632H1088.99V220.328H1104.07C1104.53 220.328 1104.81 220.56 1104.81 221.016V225.71C1104.81 226.17 1104.53 226.398 1104.07 226.398H1088.99V234.634H1105.5C1105.96 234.634 1106.19 234.866 1106.19 235.326V240.248C1106.19 240.708 1105.96 240.936 1105.5 240.936H1082.45C1081.99 240.936 1081.76 240.703 1081.76 240.199V206.007C1081.76 205.547 1081.99 205.315 1082.45 205.315H1105.5V205.33Z" fill="#1075B9"/>
<path d="M1118.1 205.33C1118.56 205.33 1118.78 205.562 1118.78 206.022V234.644H1133.87C1134.33 234.644 1134.56 234.876 1134.56 235.336V240.258C1134.56 240.718 1134.33 240.946 1133.87 240.946H1112.24C1111.78 240.946 1111.56 240.713 1111.56 240.209V206.017C1111.56 205.557 1111.79 205.325 1112.24 205.325H1118.09L1118.1 205.33Z" fill="#1075B9"/>
<path d="M1159.39 210.578L1167.49 240.214C1167.58 240.768 1167.35 240.951 1166.89 240.951H1161C1160.59 240.951 1160.54 240.768 1160.41 240.214L1157.79 230.642H1145.46L1142.79 240.214C1142.65 240.768 1142.6 240.951 1142.14 240.951H1136.3C1135.8 240.951 1135.61 240.768 1135.71 240.214L1143.94 210.578C1145.32 205.562 1146.24 205.058 1151.58 205.058C1156.92 205.058 1158.02 205.562 1159.4 210.578H1159.39ZM1150.43 212.468L1147.07 224.662H1156.18L1152.87 212.468C1152.55 211.365 1152.5 211.132 1151.58 211.132C1150.8 211.132 1150.71 211.365 1150.43 212.468ZM1159.31 195.303C1159.58 195.303 1159.77 195.441 1159.77 195.763V196.089C1159.77 196.322 1159.68 196.5 1159.53 196.644L1151.48 203.361C1151.25 203.544 1151.07 203.5 1150.84 203.361L1148.86 202.214C1148.63 202.026 1148.58 201.798 1148.72 201.565L1152.08 195.585C1152.16 195.397 1152.35 195.308 1152.63 195.308H1159.3L1159.31 195.303Z" fill="#1075B9"/>
<path d="M1197.66 216.885C1197.66 223.835 1195.82 226.596 1190.63 227.61L1198.45 240.031C1198.82 240.535 1198.59 240.951 1197.9 240.951H1192.1C1191.04 240.951 1190.72 240.629 1190.26 239.937L1182.71 228.065H1178.48V240.214C1178.48 240.812 1178.34 240.951 1177.79 240.951H1171.95C1171.4 240.951 1171.26 240.812 1171.26 240.214V206.21C1171.26 205.701 1171.4 205.612 1171.95 205.562C1176 205.196 1180.42 205.058 1184.19 205.058C1194.26 205.058 1197.67 207.679 1197.67 216.885H1197.66ZM1190.9 196.173C1191.22 196.356 1191.31 196.634 1191.09 196.955L1186.67 203.074C1186.48 203.307 1186.34 203.44 1185.74 203.44H1181.84C1181.24 203.44 1181.06 203.302 1180.92 203.074L1176.5 196.955C1176.27 196.634 1176.32 196.356 1176.68 196.173L1178.11 195.436C1178.38 195.253 1178.61 195.209 1178.89 195.436L1183.81 198.889L1188.69 195.436C1188.96 195.209 1189.2 195.253 1189.47 195.436L1190.89 196.173H1190.9ZM1178.48 211.36V222.495H1183.45C1188.92 222.495 1190.35 221.758 1190.35 217.068C1190.35 212.379 1188.92 211.36 1183.45 211.36H1178.48Z" fill="#1075B9"/>
</svg>
