<?xml version="1.0" encoding="UTF-8" standalone="no"?>
<svg
   width="324.88431"
   height="311.96326"
   viewBox="0 0 324.88431 311.96326"
   fill="none"
   version="1.1"
   id="svg13"
   xmlns="http://www.w3.org/2000/svg"
   xmlns:svg="http://www.w3.org/2000/svg">
  <defs
     id="defs13" />
  <path
     d="M 323.65356,176.874 272.86856,20.5453 C 269.19756,9.24328 256.47756,0 244.60156,0 H 80.275562 c -11.876,0 -24.596,9.24328 -28.267,20.5453 L 1.2235624,176.874 c -3.667,11.293 1.191,26.253 10.7969996,33.236 l 132.950998,96.616 c 9.612,6.983 25.327,6.983 34.939,0 l 132.951,-96.616 c 9.611,-6.988 14.468,-21.943 10.797,-33.236 M 113.20256,67.3057 h 98.472 c 5.94,0 12.293,4.624 14.136,10.2703 l 9.475,29.174 -44.934,6.739 c -0.882,0.132 -1.477,0.957 -1.318,1.834 l 3.737,21.263 c 0.159,0.877 0.019,2.274 -0.309,3.104 l -5.237,13.347 c -0.329,0.83 -1.299,1.688 -2.162,1.899 l -20.568,5.126 c -0.863,0.211 -2.279,0.211 -3.146,0 l -20.568,-5.126 c -0.863,-0.211 -1.834,-1.069 -2.162,-1.899 l -5.237,-13.347 c -0.328,-0.83 -0.464,-2.227 -0.309,-3.104 l 3.737,-21.263 c 0.159,-0.877 -0.441,-1.707 -1.318,-1.834 l -45.843998,-6.87 9.433,-29.043 c 1.837998,-5.651 8.195998,-10.2703 14.135998,-10.2703 m -44.553998,103.9463 19.94,-61.378 33.892998,22.796 c 0.736,0.497 1.603,1.59 1.917,2.42 l 16.813,44.692 c 0.314,0.835 1.224,1.843 2.021,2.246 l 15.608,7.827 c 0.797,0.399 1.369,1.454 1.266,2.336 l -1.088,9.829 c -0.099,0.891 -0.849,1.9 -1.665,2.256 l -28.829,12.559 c -0.816,0.356 -2.208,0.736 -3.09,0.853 l -8.776,1.14 -42.594998,-30.961 c -4.811,-3.489 -7.235,-10.969 -5.401,-16.615 m 102.531998,74.513 c -4.811,3.489 -12.664,3.489 -17.474,0 l -36.359,-26.426 10.882,0.047 c 0.895,0 2.33,-0.169 3.193,-0.389 l 29.931,-7.56 c 0.858,-0.216 2.274,-0.216 3.136,0 l 29.936,7.56 c 0.863,0.215 2.298,0.394 3.188,0.389 l 9.921,-0.042 -36.354,26.426 z m 79.662,-57.893 -42.455,30.853 -7.97,-1.027 c -0.881,-0.118 -2.274,-0.502 -3.09,-0.854 l -28.834,-12.559 c -0.815,-0.356 -1.561,-1.374 -1.664,-2.255 l -1.088,-9.83 c -0.098,-0.891 0.474,-1.937 1.271,-2.335 l 15.608,-7.827 c 0.792,-0.399 1.697,-1.412 2.016,-2.247 l 16.813,-44.692 c 0.314,-0.835 1.172,-1.923 1.917,-2.42 l 33.105,-22.266 19.772,60.853 c 1.833,5.651 -0.591,13.126 -5.401,16.615"
     fill="#1075b9"
     id="path13" />
</svg>
