<svg width="1197" height="302" viewBox="0 0 1197 302" fill="none" xmlns="http://www.w3.org/2000/svg">
<g clip-path="url(#clip0_58_1848)">
<mask id="mask0_58_1848" style="mask-type:luminance" maskUnits="userSpaceOnUse" x="0" y="0" width="1197" height="302">
<path d="M1196.99 0H0V302H1196.99V0Z" fill="white"/>
</mask>
<g mask="url(#mask0_58_1848)">
<path d="M365.818 59.1807H392.239C410.901 59.1807 420.715 70.3116 420.715 86.6703C420.715 95.4662 418.262 101.383 413.224 106.604C424.664 110.179 430.797 119.663 430.797 133.274C430.797 155.818 418.268 165.716 396.877 165.716H365.818V59.1738V59.1807ZM378.76 71.4136V102.898H390.889C403.417 102.898 407.504 94.371 407.504 86.6772C407.504 76.366 400.964 71.4205 392.239 71.4205H378.76V71.4136ZM397.153 153.201C412.948 153.201 417.579 145.5 417.579 133.405C417.579 119.932 409.813 115.4 397.553 115.4H379.029V153.201H397.146H397.153Z" fill="#1D1E1C"/>
<path d="M498.209 59.4492V71.0002H458.156V102.891H494.391V115.124H458.156V153.338H501.606V165.571H445.214V59.4561H498.202L498.209 59.4492Z" fill="#1D1E1C"/>
<path d="M560.452 85.7063C559.77 77.0482 556.772 70.856 543.699 70.856C529.117 70.856 526.264 77.5923 526.264 88.179C526.264 102.892 538.93 102.754 552.141 104.131C564.27 105.371 576.799 111.412 576.799 133.55C576.799 155.687 568.219 166.129 546.552 166.129H543.968C522.439 166.129 512.633 155.543 511.682 137.538H525.719C526.402 146.471 530.351 153.345 543.837 153.345H546.428C560.59 153.345 563.45 146.609 563.45 134.238C563.45 116.915 552.141 116.647 539.061 115.545C526.801 114.58 512.777 108.54 512.777 88.3237C512.777 68.1077 521.626 58.4922 543.692 58.4922C564.539 58.4922 572.981 68.2523 573.925 85.7063H560.445H560.452Z" fill="#1D1E1C"/>
<path d="M618.719 72.2407V165.579H605.784V72.2407H583.987V60.1455H640.517V72.2407H618.712H618.719Z" fill="#1D1E1C"/>
<path d="M728.238 165.578L722.918 145.92H691.458L686.138 165.578H672.659L700.576 59.8623H713.787L741.573 165.578H728.224H728.238ZM707.123 76.9099L700.038 111.418L694.725 133.556H719.513L714.069 111.012L707.123 76.9167V76.9099Z" fill="#1D1E1C"/>
<path d="M800.826 89.4188C800.695 76.6348 798.103 70.8627 780.661 70.8627C763.219 70.8627 760.228 77.4614 760.228 94.2334V130.526C760.228 147.291 762.95 153.896 780.661 153.896C798.372 153.896 801.094 149.915 801.094 133.143H813.499C813.499 153.628 811.314 166.274 780.661 166.274C750.008 166.274 747.148 153.628 747.148 130.395V94.378C747.148 71.1452 752.599 58.6367 780.661 58.6367C808.723 58.6367 813.216 68.9479 813.499 89.4325H800.826V89.4188Z" fill="#1D1E1C"/>
<path d="M878.85 89.4188C878.719 76.6348 876.128 70.8627 858.686 70.8627C841.244 70.8627 838.253 77.4614 838.253 94.2334V130.526C838.253 147.291 840.975 153.896 858.686 153.896C876.397 153.896 879.119 149.915 879.119 133.143H891.524C891.524 153.628 889.339 166.274 858.686 166.274C828.033 166.274 825.173 153.628 825.173 130.395V94.378C825.173 71.1452 830.624 58.6367 858.686 58.6367C886.748 58.6367 891.241 68.9479 891.524 89.4325H878.85V89.4188Z" fill="#1D1E1C"/>
<path d="M971.34 130.802C971.34 154.034 966.165 166.543 937.276 166.543C908.387 166.543 903.225 154.034 903.225 130.802V93.8204C903.225 70.5875 908.401 58.0791 937.276 58.0791C966.151 58.0791 971.34 70.5875 971.34 93.8204V130.802ZM958.26 93.6827C958.26 76.9106 956.896 70.0365 937.276 70.0365C917.656 70.0365 916.298 76.9106 916.298 93.6827V130.932C916.298 147.704 917.663 154.303 937.276 154.303C956.889 154.303 958.26 147.704 958.26 130.932V93.6827Z" fill="#1D1E1C"/>
<path d="M1039.7 59.4492H1052.78V130.656C1052.78 153.889 1045.42 166.398 1020.49 166.398C995.557 166.398 987.935 153.889 987.935 130.656V59.5801H1001.01V130.794C1001.01 147.559 1004.28 154.165 1020.49 154.165C1036.7 154.165 1039.7 147.566 1039.7 130.794V59.4492H1039.7Z" fill="#1D1E1C"/>
<path d="M1118.96 140.692L1117.05 104.675V59.5801H1129.99V165.571H1117.87L1083.27 89.4116L1084.08 124.195V165.571H1071.15V59.587H1083.4L1118.95 140.692H1118.96Z" fill="#1D1E1C"/>
<path d="M1175.2 72.2407V165.579H1162.26V72.2407H1140.46V60.1455H1196.99V72.2407H1175.2H1175.2Z" fill="#1D1E1C"/>
<path d="M310.542 171.226L261.812 19.8923C258.291 8.95427 246.086 0 234.688 0H77.0187C65.6272 0 53.4156 8.94738 49.8941 19.8923L1.17854 171.226C-2.34299 182.157 2.32251 196.643 11.5364 203.4L139.097 296.924C148.311 303.681 163.396 303.681 172.624 296.924L300.184 203.4C309.405 196.636 314.063 182.157 310.542 171.226ZM108.616 65.1595H203.097C208.797 65.1595 214.896 69.6298 216.66 75.0988L225.756 103.339L182.644 109.862C181.803 109.993 181.224 110.785 181.376 111.639L184.966 132.22C185.111 133.067 184.98 134.424 184.67 135.223L179.646 148.145C179.336 148.944 178.399 149.777 177.572 149.984L157.835 154.943C157.008 155.15 155.65 155.15 154.816 154.943L135.079 149.984C134.252 149.777 133.322 148.951 133.005 148.145L127.981 135.223C127.664 134.417 127.533 133.067 127.685 132.22L131.275 111.639C131.42 110.792 130.855 109.993 130.007 109.862L86.0189 103.215L95.0674 75.1057C96.8247 69.6367 102.931 65.1664 108.63 65.1664M65.8615 165.785L84.9921 106.37L117.513 128.439C118.223 128.921 119.05 129.975 119.353 130.781L135.486 174.043C135.789 174.849 136.657 175.827 137.422 176.213L152.397 183.797C153.162 184.182 153.707 185.202 153.61 186.056L152.563 195.568C152.473 196.422 151.749 197.407 150.971 197.752L123.308 209.916C122.523 210.253 121.193 210.632 120.345 210.742L111.924 211.844L71.0576 181.875C66.4473 178.493 64.118 171.261 65.8753 165.785M164.244 237.915C159.633 241.297 152.087 241.297 147.477 237.915L112.592 212.333L123.033 212.375C123.894 212.375 125.266 212.209 126.099 211.996L154.816 204.674C155.643 204.467 157.001 204.467 157.828 204.674L186.544 211.996C187.371 212.209 188.749 212.375 189.604 212.375L199.128 212.333L164.244 237.915ZM240.676 181.875L199.948 211.748L192.305 210.756C191.465 210.646 190.121 210.274 189.342 209.929L161.68 197.765C160.894 197.421 160.178 196.443 160.088 195.575L159.041 186.063C158.951 185.202 159.495 184.189 160.253 183.804L175.228 176.227C175.987 175.841 176.862 174.863 177.165 174.057L193.298 130.794C193.601 129.988 194.428 128.935 195.138 128.452L226.9 106.893L245.873 165.799C247.63 171.268 245.301 178.507 240.69 181.889" fill="#1075B9"/>
<path d="M755.108 293.252C751.29 293.528 747.513 293.355 743.778 292.742C740.126 292.191 736.728 291.11 733.586 289.491C730.519 287.866 727.997 285.655 726.019 282.845C724.048 280.11 722.918 276.652 722.615 272.471C722.491 270.708 722.746 268.552 723.373 266.004C724.069 263.448 725.171 260.858 726.688 258.241C728.266 255.617 730.347 253.254 732.931 251.153C735.509 249.052 738.686 247.496 742.448 246.483C742.662 246.394 742.951 246.339 743.317 246.311C744.123 246.256 744.722 246.394 745.115 246.731C745.508 247.069 745.729 247.496 745.763 248.012C745.853 249.183 745.17 250.01 743.73 250.485C740.691 251.367 738.058 252.737 735.833 254.59C733.669 256.367 731.898 258.379 730.512 260.617C729.196 262.78 728.204 264.915 727.542 267.023C726.949 269.055 726.708 270.77 726.805 272.168C727.115 276.425 728.576 279.862 731.201 282.473C733.82 285.083 737.204 286.908 741.332 287.942C745.467 289.044 749.96 289.422 754.805 289.071C759.649 288.72 764.232 287.838 768.56 286.419C772.888 285 776.664 283.141 779.889 280.847C783.197 278.546 785.733 275.929 787.518 272.995C789.296 270.061 790.068 266.913 789.827 263.538C789.606 260.459 788.504 257.952 786.512 256.03C784.603 254.032 782.081 252.331 778.952 250.933C775.899 249.528 772.557 248.15 768.911 246.786C763.226 244.686 759.112 242.364 756.569 239.823C754.095 237.274 752.772 234.712 752.586 232.143C752.365 229.064 753.406 226.074 755.7 223.175C758.002 220.282 761.186 217.836 765.245 215.853C769.38 213.855 773.983 212.677 779.049 212.312C786.03 211.81 791.088 212.443 794.244 214.207C797.387 215.901 799.054 218.029 799.241 220.599C799.434 223.312 798.117 226.061 795.292 228.85C792.459 231.564 788.573 233.431 783.631 234.45L783.19 234.485C782.536 234.533 781.964 234.354 781.495 233.94C781.095 233.527 780.882 233.066 780.84 232.549C780.785 231.743 781.226 231.192 782.164 230.903C785.795 230.125 788.8 228.802 791.178 226.935C793.617 224.986 794.775 223.099 794.644 221.267C794.534 219.724 793.293 218.45 790.936 217.444C788.579 216.431 784.72 216.121 779.359 216.507C774.666 216.845 770.634 217.836 767.292 219.476C763.936 221.115 761.379 223.037 759.622 225.227C757.933 227.342 757.155 229.422 757.306 231.481C757.472 233.83 758.43 235.786 760.166 237.364C761.903 238.934 763.915 240.229 766.196 241.242C768.477 242.185 770.489 242.964 772.233 243.57C775.562 244.734 778.835 246.084 782.04 247.62C785.251 249.156 787.98 251.139 790.213 253.557C792.453 255.975 793.721 259.205 794.01 263.242C794.327 267.643 793.438 271.617 791.322 275.164C789.214 278.636 786.257 281.653 782.453 284.208C778.656 286.839 774.383 288.92 769.614 290.442C764.928 291.957 760.09 292.901 755.101 293.259L755.108 293.252ZM825.552 240.615C824.67 240.677 823.843 240.443 823.064 239.905C822.354 239.292 821.968 238.507 821.9 237.557C821.824 236.53 822.093 235.662 822.706 234.953C823.319 234.243 824.098 233.858 825.056 233.789C826.083 233.713 826.958 233.982 827.668 234.595C828.378 235.208 828.763 236.027 828.839 237.054C828.901 238.004 828.598 238.838 827.909 239.554C827.296 240.188 826.503 240.539 825.552 240.608V240.615ZM811.638 274.806C810.687 274.875 809.895 274.675 809.268 274.2C808.641 273.656 808.282 272.761 808.193 271.514C808.075 269.971 808.31 268.077 808.882 265.824C809.454 263.496 810.239 261.12 811.245 258.682C812.245 256.175 813.34 253.888 814.519 251.808C815.759 249.652 816.972 247.944 818.13 246.676C818.605 246.125 819.212 245.822 819.942 245.774C820.535 245.732 821.059 245.843 821.521 246.104C821.982 246.366 822.23 246.717 822.265 247.158C822.286 247.523 822.134 247.902 821.789 248.302C821.314 248.853 820.714 249.741 819.991 250.974C819.336 252.124 818.681 253.357 818.04 254.652C817.393 255.878 816.91 256.912 816.607 257.745C816.049 259.185 815.429 260.817 814.746 262.635C814.064 264.454 813.582 265.928 813.292 267.057C813.127 267.808 813.051 268.366 813.079 268.731C813.134 269.537 813.464 269.923 814.05 269.881C814.56 269.847 815.139 269.585 815.766 269.096C816.386 268.538 816.945 268.049 817.434 267.65C819.157 266.052 820.742 264.385 822.161 262.663C823.657 260.858 825.008 259.178 826.227 257.614C826.496 257.228 826.841 257.015 827.282 256.987C827.647 256.96 827.998 257.16 828.322 257.58C828.715 257.917 828.936 258.386 828.97 258.971C829.025 259.632 828.881 260.197 828.543 260.659C827.557 262.277 826.138 264.116 824.291 266.162C822.52 268.132 820.935 269.723 819.543 270.928C818.64 271.734 817.413 272.561 815.849 273.408C814.36 274.255 812.954 274.724 811.638 274.82V274.806ZM825.841 277.541C825.325 277.575 824.835 277.431 824.374 277.093C823.905 276.756 823.65 276.335 823.616 275.819C823.602 275.674 823.657 275.371 823.774 274.923C825.014 271.665 826.241 268.697 827.447 266.031C828.722 263.283 830.045 260.61 831.41 258C831.995 256.925 832.636 255.555 833.326 253.881C834.084 252.131 834.793 250.272 835.469 248.309C836.13 246.27 836.654 244.348 837.04 242.55C837.502 240.746 837.688 239.292 837.612 238.197C837.571 237.612 837.509 237.212 837.412 236.992C837.336 236.923 837.288 236.778 837.274 236.558C837.233 235.972 837.454 235.476 837.943 235.07C838.501 234.588 839.039 234.326 839.549 234.292C840.134 234.25 840.706 234.505 841.264 235.056C841.816 235.532 842.14 236.434 842.236 237.749C842.319 238.851 842.167 240.332 841.781 242.206C841.464 243.997 840.851 246.18 839.928 248.756C839.431 250.044 838.963 251.257 838.536 252.4C838.094 253.461 837.653 254.494 837.205 255.486C839.852 252.269 842.595 249.383 845.434 246.814C848.266 244.176 850.816 242.075 853.063 240.511C855.309 238.948 856.839 238.135 857.645 238.08C858.528 238.018 859.168 238.232 859.575 238.714C859.975 239.203 860.202 239.774 860.25 240.436C860.319 241.386 860.106 242.509 859.609 243.804C859.182 245.016 858.7 246.118 858.183 247.117C857.666 248.116 857.308 248.804 857.115 249.183C856.391 250.492 855.426 252.441 854.214 255.031C853.001 257.628 852.001 260.135 851.216 262.546C850.975 263.372 850.747 264.24 850.513 265.143C850.354 265.962 850.292 266.672 850.341 267.257C850.403 268.215 850.844 268.662 851.657 268.6C852.387 268.545 853.428 268.104 854.772 267.271C856.46 266.19 857.99 264.86 859.354 263.29C860.781 261.637 862.008 260.225 863.034 259.04C863.097 258.964 863.407 258.572 863.944 257.869C864.558 257.16 865.13 256.457 865.667 255.754C866.28 255.045 866.584 254.694 866.584 254.694C866.852 254.308 867.204 254.094 867.645 254.067C868.01 254.039 868.362 254.239 868.686 254.652C869.078 254.99 869.299 255.458 869.333 256.044C869.388 256.705 869.244 257.27 868.906 257.731C867.921 259.35 866.535 261.148 864.757 263.118C862.979 265.087 861.401 266.713 860.016 267.994C858.555 269.282 857.046 270.35 855.488 271.197C853.993 271.969 852.47 272.409 850.933 272.52C849.617 272.616 848.494 272.437 847.577 271.989C846.66 271.541 846.116 270.212 845.964 268.015C845.758 265.225 846.261 262.422 847.467 259.612C848.742 256.788 850.154 253.998 851.733 251.229C853.38 248.453 854.703 245.85 855.709 243.418C853.952 244.651 851.615 246.518 848.693 249.011C845.847 251.505 842.849 254.411 839.693 257.738C836.606 260.982 833.836 264.502 831.375 268.29C830.927 269.282 830.452 270.35 829.949 271.493C829.439 272.637 828.936 273.89 828.446 275.254C827.881 276.694 827.02 277.458 825.841 277.541ZM874.846 272.244C871.766 272.464 869.361 271.865 867.638 270.439C865.984 269.007 865.068 267.085 864.895 264.66C864.688 261.871 865.054 259.191 865.977 256.615C866.97 254.039 868.127 251.629 869.444 249.397C871.352 246.16 873.696 243.377 876.48 241.035C879.333 238.617 882.372 237.295 885.604 237.061C887.733 236.909 889.236 237.315 890.118 238.287C890.993 239.182 891.482 240.367 891.593 241.834C891.703 243.377 891.489 245.016 890.945 246.745C890.4 248.405 889.76 249.741 889.022 250.754C888.554 251.381 888.016 251.711 887.43 251.753C886.259 251.835 885.632 251.367 885.556 250.34C885.521 249.824 885.707 249.335 886.114 248.86C886.458 248.467 886.837 247.592 887.251 246.235C887.74 244.796 887.94 243.57 887.871 242.536C887.795 241.51 887.423 240.98 886.762 240.959C886.534 240.904 886.238 240.883 885.873 240.911C884.405 241.014 882.792 241.724 881.042 243.026C879.284 244.258 877.624 245.85 876.073 247.806C874.516 249.762 873.227 251.808 872.2 253.95C871.366 255.63 870.712 257.414 870.257 259.288C869.802 261.161 869.623 262.766 869.719 264.082C869.816 265.473 870.305 266.548 871.173 267.299C872.111 268.042 873.385 268.359 875.005 268.242C877.575 268.056 880.208 267.168 882.889 265.57C885.652 263.972 887.864 262.374 889.518 260.776C890.897 259.426 892.165 258.041 893.315 256.629C894.466 255.148 895.548 253.778 896.561 252.524C896.83 252.138 897.182 251.925 897.623 251.897C897.988 251.87 898.339 252.069 898.663 252.49C899.049 252.827 899.277 253.295 899.311 253.881C899.359 254.542 899.221 255.107 898.884 255.568C897.822 257.194 896.403 259.026 894.632 261.072C892.854 263.042 891.276 264.633 889.884 265.838C887.933 267.457 885.569 268.876 882.778 270.109C879.987 271.342 877.348 272.051 874.846 272.23V272.244ZM903.921 271.039C901.647 271.204 899.649 270.646 897.94 269.365C896.293 268.084 895.355 265.714 895.107 262.27C894.942 259.922 895.328 257.132 896.272 253.888C897.292 250.644 898.725 247.475 900.565 244.396C902.405 241.242 904.507 238.617 906.864 236.53C909.214 234.367 911.674 233.197 914.252 233.011C915.94 232.887 917.236 233.424 918.125 234.615C919.089 235.724 919.634 237.123 919.758 238.81C919.937 241.304 919.303 243.783 917.856 246.249C916.409 248.715 914.493 250.768 912.102 252.414C909.786 254.053 907.415 254.962 904.99 255.141C903.005 255.286 901.454 254.769 900.338 253.598C899.855 255.107 899.483 256.574 899.214 257.993C898.946 259.412 898.863 260.748 898.946 261.995C899.104 264.123 899.649 265.597 900.593 266.41C901.606 267.147 902.805 267.471 904.204 267.367C905.892 267.243 907.732 266.672 909.724 265.645C911.791 264.612 913.7 263.441 915.451 262.133C917.201 260.755 918.483 259.625 919.303 258.758C920.688 257.407 921.984 255.947 923.197 254.384C924.479 252.744 925.588 251.222 926.518 249.831C926.856 249.362 927.242 249.114 927.683 249.08C928.124 249.046 928.51 249.245 928.834 249.659C929.227 249.996 929.447 250.464 929.489 251.05C929.523 251.567 929.378 252.09 929.048 252.627C927.979 254.177 926.629 255.975 925.009 258.007C923.452 259.963 921.667 261.823 919.654 263.593C918.552 264.633 917.118 265.694 915.347 266.782C913.576 267.87 911.695 268.814 909.69 269.62C907.753 270.426 905.83 270.894 903.921 271.032V271.039ZM904.521 251.635C905.982 251.532 907.532 250.94 909.152 249.865C910.84 248.784 912.294 247.427 913.507 245.788C914.782 244.072 915.582 242.282 915.892 240.415C915.954 240.263 915.981 240.078 915.961 239.857C915.94 239.637 915.933 239.451 915.919 239.306C915.83 237.984 915.306 237.357 914.348 237.426C912.811 237.536 911.233 238.238 909.627 239.533C908.015 240.753 906.513 242.378 905.107 244.396C903.777 246.339 902.598 248.446 901.578 250.733C901.895 250.933 902.199 251.133 902.509 251.332C902.812 251.456 903.115 251.546 903.418 251.601C903.57 251.663 903.756 251.684 903.976 251.67C904.197 251.656 904.376 251.642 904.528 251.629L904.521 251.635ZM982.022 263.09C979.376 263.283 976.343 263.2 972.925 262.863C969.576 262.511 966.234 262.167 962.884 261.816C959.542 261.464 956.655 261.382 954.236 261.554C952.775 261.657 951.5 261.933 950.425 262.381C949.784 262.718 949.102 262.918 948.364 262.973C947.558 263.028 946.917 262.856 946.448 262.449C946.042 261.96 945.821 261.423 945.78 260.838C945.725 260.108 945.897 259.391 946.283 258.702C946.752 258.007 947.379 257.552 948.185 257.345C955.835 252.889 962.299 248.956 967.584 245.547C972.87 242.068 977.356 238.831 981.05 235.835C986.639 231.447 990.864 227.645 993.73 224.414C996.604 221.184 998.251 218.484 998.679 216.314C998.844 215.495 998.899 214.751 998.851 214.089C998.727 212.402 997.927 210.983 996.439 209.84C994.95 208.62 992.449 208.138 988.92 208.386C985.323 208.648 982.07 209.578 979.155 211.19C976.323 212.795 973.828 214.558 971.685 216.486C969.604 218.332 967.908 219.896 966.592 221.17C965.834 221.962 965.131 222.382 964.469 222.431C963.443 222.506 962.884 221.921 962.788 220.667C962.719 219.641 963.146 218.505 964.097 217.258C965.248 215.846 967.006 214.172 969.376 212.23C971.747 210.287 974.572 208.538 977.853 206.974C981.133 205.335 984.71 204.378 988.603 204.095C993.372 203.751 997.011 204.522 999.505 206.409C1002.08 208.214 1003.46 210.625 1003.67 213.635C1003.7 214 1003.7 214.406 1003.65 214.854C1003.67 215.219 1003.67 215.591 1003.62 215.963C1003.21 219.462 1001.23 223.14 997.665 227.011C994.178 230.8 989.74 234.733 984.344 238.81C981.126 241.255 977.329 243.887 972.96 246.711C968.659 249.528 963.126 253.137 956.358 257.531C958.426 257.531 960.727 257.731 963.27 258.138C965.882 258.468 968.549 258.751 971.299 258.999C974.049 259.24 976.667 259.274 979.169 259.095C980.265 259.012 981.333 258.868 982.346 258.647C983.366 258.427 984.337 258.138 985.268 257.773C985.626 257.6 986.26 257.222 987.177 256.636C988.162 255.975 988.962 255.252 989.568 254.473C989.982 253.998 990.436 253.75 990.96 253.709C991.47 253.674 991.89 253.86 992.214 254.28C992.614 254.694 992.835 255.196 992.876 255.782C992.917 256.367 992.745 257.008 992.352 257.704C989.851 260.982 986.405 262.78 982.001 263.097L982.022 263.09ZM1016.4 263.049C1011.92 263.372 1008.64 262.387 1006.56 260.108C1004.54 257.745 1003.41 254.873 1003.17 251.505C1003.13 250.988 1003.1 250.513 1003.07 250.072C1003.11 249.624 1003.15 249.142 1003.19 248.625C1003.51 242.922 1005 237.398 1007.64 232.039C1010.35 226.681 1013.72 221.721 1017.74 217.155C1021.83 212.581 1026.1 208.738 1030.52 205.61L1032.53 204.247C1031.94 204.212 1031.43 203.957 1031.03 203.468C1030.63 202.979 1030.41 202.483 1030.37 201.967C1030.31 201.085 1030.71 200.507 1031.58 200.224C1033.67 199.556 1035.86 199.143 1038.13 198.977C1039.15 198.902 1040.19 198.902 1041.23 198.977C1042.34 199.046 1043.38 199.156 1044.35 199.308C1044.71 199.28 1045.04 199.26 1045.34 199.239C1045.7 199.136 1046.03 199.081 1046.33 199.06C1048.01 198.936 1049.57 199.081 1051.01 199.494C1052.51 199.832 1053.96 200.534 1055.37 201.615C1055.83 201.877 1056.08 202.304 1056.13 202.89C1056.19 203.771 1055.8 204.502 1054.95 205.073C1056.16 206.465 1057.12 208.049 1057.85 209.847C1058.64 211.63 1059.11 213.594 1059.27 215.722C1059.57 219.903 1058.68 224.504 1056.61 229.518C1054.71 233.934 1052.21 238.094 1049.1 242.006C1045.99 245.918 1042.55 249.411 1038.79 252.483C1035.02 255.555 1031.21 258.041 1027.37 259.942C1023.52 261.768 1019.86 262.808 1016.41 263.056L1016.4 263.049ZM1016.2 258.751C1019.13 258.537 1022.32 257.649 1025.74 256.071C1029.24 254.418 1032.69 252.214 1036.11 249.459C1039.52 246.635 1042.69 243.384 1045.6 239.706C1048.5 236.027 1050.84 232.06 1052.6 227.803C1053.54 225.599 1054.21 223.519 1054.58 221.577C1054.95 219.558 1055.08 217.74 1054.97 216.128C1054.72 212.677 1053.6 209.881 1051.6 207.739C1049.67 205.59 1047.17 204.185 1044.09 203.523C1041.41 204.157 1038.59 205.431 1035.63 207.339C1032.74 209.24 1029.94 211.396 1027.24 213.807C1024.6 216.211 1022.27 218.553 1020.21 220.84C1018.24 223.12 1016.79 224.993 1015.86 226.467C1013.08 230.944 1010.9 235.49 1009.31 240.105C1007.8 244.637 1007.14 248.412 1007.36 251.422C1007.7 256.044 1009.83 258.475 1013.75 258.709C1014.12 258.758 1014.5 258.806 1014.87 258.847C1015.31 258.813 1015.75 258.785 1016.19 258.751H1016.2ZM1076.08 258.751C1071.6 259.074 1068.32 258.089 1066.24 255.809C1064.22 253.447 1063.1 250.575 1062.85 247.2C1062.81 246.683 1062.78 246.208 1062.75 245.767C1062.79 245.319 1062.83 244.837 1062.87 244.32C1063.2 238.617 1064.68 233.093 1067.32 227.734C1070.03 222.376 1073.4 217.416 1077.42 212.843C1081.52 208.269 1085.78 204.426 1090.2 201.299L1092.21 199.935C1091.62 199.907 1091.12 199.646 1090.71 199.157C1090.31 198.667 1090.09 198.172 1090.05 197.655C1089.99 196.773 1090.39 196.195 1091.26 195.905C1093.35 195.237 1095.54 194.824 1097.81 194.659C1098.84 194.583 1099.87 194.583 1100.91 194.659C1102.02 194.728 1103.06 194.838 1104.03 194.989C1104.4 194.962 1104.73 194.941 1105.02 194.92C1105.38 194.824 1105.71 194.762 1106.01 194.741C1107.69 194.617 1109.25 194.769 1110.69 195.175C1112.19 195.513 1113.64 196.215 1115.05 197.297C1115.51 197.559 1115.76 197.986 1115.81 198.571C1115.87 199.453 1115.48 200.183 1114.64 200.754C1115.85 202.146 1116.81 203.73 1117.53 205.528C1118.32 207.312 1118.8 209.275 1118.95 211.396C1119.25 215.577 1118.36 220.178 1116.29 225.193C1114.39 229.608 1111.89 233.768 1108.78 237.681C1105.67 241.593 1102.23 245.085 1098.47 248.157C1094.7 251.229 1090.89 253.716 1087.05 255.617C1083.2 257.442 1079.54 258.482 1076.1 258.73L1076.08 258.751ZM1075.88 254.453C1078.83 254.239 1082 253.351 1085.43 251.773C1088.93 250.12 1092.38 247.916 1095.8 245.161C1099.21 242.337 1102.37 239.079 1105.28 235.408C1108.19 231.729 1110.53 227.769 1112.28 223.512C1113.23 221.308 1113.9 219.228 1114.27 217.285C1114.63 215.267 1114.76 213.449 1114.65 211.837C1114.41 208.386 1113.28 205.597 1111.28 203.448C1109.35 201.299 1106.85 199.894 1103.78 199.232C1101.09 199.866 1098.27 201.14 1095.31 203.048C1092.42 204.949 1089.62 207.105 1086.92 209.516C1084.29 211.92 1081.95 214.262 1079.89 216.548C1077.92 218.828 1076.47 220.702 1075.54 222.169C1072.76 226.646 1070.58 231.192 1069 235.807C1067.48 240.339 1066.83 244.114 1067.05 247.124C1067.38 251.746 1069.52 254.177 1073.44 254.411C1073.81 254.459 1074.18 254.508 1074.55 254.549C1074.99 254.515 1075.44 254.487 1075.87 254.453H1075.88ZM1137.6 255.32C1135.54 255.465 1133.31 255.148 1130.89 254.363C1128.55 253.647 1126.47 252.503 1124.66 250.94C1122.93 249.369 1121.97 247.372 1121.79 244.954C1121.77 244.658 1121.75 244.403 1121.74 244.183C1121.72 243.962 1121.74 243.701 1121.79 243.404C1122.28 241.007 1123.48 238.707 1125.39 236.51C1127.3 234.237 1129.57 232.081 1132.23 230.042C1134.96 228.003 1137.66 226.15 1140.35 224.476C1143.11 222.803 1145.56 221.37 1147.68 220.185C1145.73 217.671 1144.65 214.985 1144.44 212.12C1144.22 209.041 1145 206.106 1146.79 203.324C1148.66 200.534 1151.18 198.213 1154.37 196.36C1157.55 194.431 1161.09 193.329 1164.98 193.054C1167.33 192.882 1169.68 193.233 1172.03 194.094C1174.38 194.955 1176.31 196.112 1177.81 197.552C1178.21 198.041 1178.43 198.502 1178.46 198.943C1178.5 199.46 1178.35 199.949 1178.01 200.41C1177.68 200.878 1177.21 201.133 1176.63 201.175C1175.75 201.237 1174.87 200.892 1174.01 200.148C1173.29 199.391 1172.32 198.757 1171.1 198.254C1169.96 197.676 1168.41 197.338 1166.49 197.255C1163.62 197.317 1160.83 198.068 1158.13 199.515C1155.5 200.885 1153.38 202.697 1151.78 204.949C1150.17 207.133 1149.45 209.502 1149.64 212.071C1149.77 214.055 1150.54 216.059 1151.95 218.098L1159.62 213.897C1163.18 212.092 1166.77 210.177 1170.39 208.145C1174 206.044 1177.3 203.737 1180.29 201.237C1183.28 198.661 1185.58 195.802 1187.2 192.661C1187.85 191.435 1188.59 190.795 1189.39 190.733C1190.05 190.684 1190.59 190.981 1191 191.614C1191.49 192.172 1191.68 192.744 1191.58 193.343C1190.64 195.699 1189.04 198.061 1186.77 200.438C1184.58 202.731 1182.01 204.984 1179.08 207.188C1176.13 209.316 1173.06 211.348 1169.88 213.27C1166.69 215.123 1163.68 216.817 1160.83 218.346C1159.98 218.773 1159.06 219.283 1158.07 219.875C1157.08 220.461 1156.12 220.977 1155.2 221.411C1155.51 221.687 1155.74 221.852 1155.89 221.914C1157.94 223.609 1159.97 225.64 1161.98 228.003C1163.99 230.29 1165.1 232.907 1165.31 235.841C1165.33 236.138 1165.31 236.468 1165.27 236.84C1165.29 237.136 1165.29 237.467 1165.23 237.839C1164.58 241.131 1162.84 244.059 1160 246.621C1157.23 249.108 1153.87 251.084 1149.91 252.545C1145.96 254.081 1141.85 255.004 1137.6 255.314V255.32ZM1138.5 250.94C1140.99 250.761 1143.54 250.278 1146.14 249.507C1148.75 248.729 1151.14 247.709 1153.34 246.442C1155.53 245.106 1157.27 243.618 1158.55 241.972C1159.83 240.257 1160.39 238.369 1160.24 236.317C1160.09 234.188 1159.26 232.294 1157.73 230.634C1156.2 228.898 1154.65 227.314 1153.07 225.882L1150.58 223.519C1149.02 224.366 1146.93 225.592 1144.31 227.176C1141.77 228.685 1139.19 230.421 1136.6 232.377C1134.01 234.257 1131.75 236.193 1129.83 238.176C1127.98 240.153 1126.89 242.041 1126.58 243.831C1126.53 244.128 1126.48 244.431 1126.42 244.727C1126.45 244.947 1126.46 245.168 1126.48 245.388C1126.64 247.592 1127.89 249.121 1130.24 249.982C1132.59 250.843 1135.34 251.167 1138.51 250.94H1138.5Z" fill="#1075B9"/>
</g>
</g>
<defs>
<clipPath id="clip0_58_1848">
<rect width="1197" height="302" fill="white"/>
</clipPath>
</defs>
</svg>
