<svg width="771" height="521" viewBox="0 0 771 521" fill="none" xmlns="http://www.w3.org/2000/svg">
<g clip-path="url(#clip0_58_1562)">
<path d="M0 360.535H24.5113C41.8211 360.535 50.9262 370.772 50.9262 385.812C50.9262 393.901 48.6522 399.337 43.9778 404.139C54.5879 407.422 60.2797 416.144 60.2797 428.656C60.2797 449.385 48.6522 458.482 28.8153 458.482H0V360.53V360.535ZM12.0025 371.785V400.73H23.2501C34.8775 400.73 38.6611 392.893 38.6611 385.812C38.6611 376.334 32.5942 371.785 24.5066 371.785H11.9978H12.0025ZM29.0638 446.983C43.7153 446.983 48.0146 439.907 48.0146 428.783C48.0146 416.398 40.8084 412.229 29.4389 412.229H12.2603V446.983H29.0685H29.0638Z" fill="#1D1E1C"/>
<path d="M122.81 360.788V371.405H85.6582V400.729H119.27V411.98H85.6582V447.115H125.965V458.365H73.6558V360.797H122.81V360.788Z" fill="#1D1E1C"/>
<path d="M180.539 384.925C179.906 376.962 177.126 371.274 164.997 371.274C151.475 371.274 148.821 377.469 148.821 387.2C148.821 400.725 160.575 400.598 172.826 401.864C184.074 403.004 195.701 408.561 195.701 428.91C195.701 449.258 187.74 458.862 167.646 458.862H165.25C145.282 458.862 136.186 449.131 135.3 432.572H148.32C148.953 440.788 152.61 447.11 165.128 447.11H167.528C180.665 447.11 183.319 440.915 183.319 429.543C183.319 413.617 172.831 413.363 160.702 412.35C149.332 411.464 136.322 405.907 136.322 387.326C136.322 368.746 144.531 359.901 165.001 359.901C184.337 359.901 192.166 368.877 193.048 384.925H180.539Z" fill="#1D1E1C"/>
<path d="M234.592 372.54V458.356H222.59V372.54H202.373V361.421H254.809V372.54H234.592Z" fill="#1D1E1C"/>
<path d="M336.177 458.36L331.245 440.287H302.059L297.127 458.36H284.618L310.522 361.168H322.782L348.555 458.36H336.177ZM316.594 376.84L310.02 408.561L305.097 428.91H328.094L323.04 408.181L316.594 376.836V376.84Z" fill="#1D1E1C"/>
<path d="M403.513 388.339C403.387 376.587 400.981 371.279 384.811 371.279C368.64 371.279 365.86 377.347 365.86 392.766V426.133C365.86 441.548 368.392 447.616 384.811 447.616C401.23 447.616 403.762 443.954 403.762 428.53H415.267C415.267 447.363 413.242 458.989 384.811 458.989C356.38 458.989 353.731 447.359 353.731 426.002V392.888C353.731 371.527 358.785 360.023 384.811 360.023C410.837 360.023 415.014 369.506 415.267 388.335H403.513V388.339Z" fill="#1D1E1C"/>
<path d="M475.898 388.339C475.772 376.587 473.367 371.279 457.196 371.279C440.271 371.279 438.245 377.347 438.245 392.766V426.133C438.245 441.548 440.777 447.616 457.196 447.616C473.624 447.616 476.147 443.954 476.147 428.53H487.652C487.652 447.363 485.627 458.989 457.196 458.989C428.77 458.989 426.116 447.359 426.116 426.002V392.888C426.116 371.527 431.17 360.023 457.196 360.023C482.472 360.023 487.399 369.506 487.652 388.335H475.898V388.339Z" fill="#1D1E1C"/>
<path d="M561.683 426.387C561.683 447.748 556.878 459.247 530.088 459.247C503.298 459.247 498.501 447.748 498.501 426.387V392.387C498.501 371.025 503.307 359.526 530.088 359.526C556.868 359.526 561.683 371.025 561.683 392.387V426.387ZM549.55 392.26C549.55 376.841 548.284 370.519 530.088 370.519C511.892 370.519 510.631 376.836 510.631 392.26V426.508C510.631 441.928 511.896 447.996 530.088 447.996C548.279 447.996 549.55 441.928 549.55 426.508V392.26Z" fill="#1D1E1C"/>
<path d="M625.095 360.788H637.224V426.255C637.224 447.616 630.402 459.115 607.279 459.115C584.155 459.115 577.075 447.616 577.075 426.255V360.914H589.205V426.386C589.205 441.801 592.238 447.87 607.274 447.87C622.31 447.87 625.09 441.801 625.09 426.386V360.793L625.095 360.788Z" fill="#1D1E1C"/>
<path d="M698.615 435.484L696.847 402.371V360.915H708.85V458.361H697.607L665.509 388.34L666.269 420.318V458.361H654.266V360.915H665.636L698.615 435.484Z" fill="#1D1E1C"/>
<path d="M750.783 372.54V458.356H738.781V372.54H718.564V361.421H771V372.54H750.783Z" fill="#1D1E1C"/>
<path d="M6.76557 487.01C7.1594 487.01 7.20159 487.188 7.37976 487.708L14.1827 514.102C14.4875 515.105 14.5766 515.41 15.1392 515.41C15.8378 515.41 15.969 515.105 16.2316 514.102L22.9502 487.708C23.0814 487.188 23.1658 487.01 23.5597 487.01H29.1436C29.5797 487.01 29.7953 487.188 29.6687 487.708L22.4719 515.809C21.2529 520.475 20.4653 521 15.1907 521C9.91622 521 9.30203 520.517 8.03614 515.809L0.665867 487.708C0.53459 487.188 0.754948 487.01 1.19098 487.01H6.77494H6.76557Z" fill="#1075B9"/>
<path d="M51.5921 491.985L59.2671 520.081C59.3562 520.606 59.1358 520.78 58.6998 520.78H53.1158C52.7267 520.78 52.6798 520.606 52.5485 520.081L50.0636 511.007H38.3753L35.8435 520.081C35.7122 520.606 35.67 520.78 35.234 520.78H29.6969C29.214 520.78 29.0405 520.606 29.1296 520.081L36.9359 491.985C38.244 487.23 39.1161 486.752 44.1749 486.752C49.2338 486.752 50.284 487.23 51.5921 491.985ZM43.0872 493.777L39.9037 505.337H48.5399L45.3986 493.777C45.0892 492.731 45.0517 492.511 44.1749 492.511C43.4341 492.511 43.3451 492.731 43.0872 493.777Z" fill="#1075B9"/>
<path d="M83.1595 487.624C83.6846 487.797 83.9424 488.018 83.9424 488.407V491.943C83.9424 492.511 83.6846 492.731 83.1126 492.731H72.7745C70.1161 492.731 68.7612 493.645 68.7612 495.568V496.178C68.7612 497.702 69.3754 498.71 71.3351 499.451L79.4931 502.635C83.6799 504.296 85.5553 506.345 85.5553 511.405V512.624C85.5553 519.082 80.5386 521 72.9949 521C69.7692 521 66.3232 520.737 62.2208 520.081C61.6535 519.95 61.48 519.687 61.48 519.119V515.809C61.48 515.283 61.7425 515.021 62.3098 515.021H74.6968C77.3129 515.021 78.6632 514.233 78.6632 512.32V511.752C78.6632 509.876 77.7959 508.999 75.5219 508.132L67.0171 504.947C63.3976 503.597 61.8269 501.107 61.8269 496.046V495.085C61.8269 488.627 66.3185 486.752 74.0404 486.752C77.6599 486.752 79.7509 487.01 83.1548 487.624H83.1595ZM80.1026 478.329C80.4073 478.503 80.4964 478.765 80.2339 479.07L76.0892 484.871C75.9158 485.092 75.7423 485.218 75.2172 485.218H71.5133C70.946 485.218 70.7725 485.087 70.6366 484.871L66.4498 479.07C66.2341 478.765 66.2763 478.503 66.581 478.329L67.9782 477.63C68.2361 477.457 68.4564 477.415 68.719 477.63L73.3418 480.904L77.9646 477.63C78.2272 477.415 78.4897 477.457 78.7523 477.63L80.1026 478.329Z" fill="#1075B9"/>
<path d="M112.589 487.009C113.025 487.009 113.246 487.23 113.246 487.666V492.332C113.246 492.768 113.025 492.984 112.589 492.984H96.9343V501.228H111.239C111.675 501.228 111.937 501.449 111.937 501.88V506.331C111.937 506.767 111.675 506.983 111.239 506.983H96.9343V514.791H112.589C113.025 514.791 113.246 515.011 113.246 515.447V520.114C113.246 520.55 113.025 520.765 112.589 520.765H90.7362C90.3001 520.765 90.0845 520.545 90.0845 520.067V487.652C90.0845 487.216 90.3048 486.995 90.7362 486.995H112.589V487.009Z" fill="#1075B9"/>
<path d="M154.007 487.01C154.485 487.01 154.663 487.188 154.663 487.666V503.939C154.663 517.591 151.911 520.995 140.879 520.995C129.847 520.995 127.058 517.591 127.058 503.939V487.666C127.058 487.188 127.231 487.01 127.709 487.01H133.246C133.729 487.01 133.898 487.188 133.898 487.666V503.939C133.898 512.793 135.295 515.021 140.875 515.021C146.454 515.021 147.813 512.798 147.813 503.939V487.666C147.813 487.188 147.987 487.01 148.465 487.01H154.002H154.007ZM147.467 477.504C147.724 477.504 147.903 477.635 147.903 477.94V478.249C147.903 478.47 147.818 478.639 147.687 478.775L140.054 485.143C139.834 485.317 139.707 485.274 139.445 485.143L137.569 484.055C137.349 483.877 137.307 483.661 137.438 483.441L140.621 477.771C140.71 477.593 140.879 477.508 141.146 477.508H147.471L147.467 477.504Z" fill="#1075B9"/>
<path d="M182.171 487.403C182.822 487.577 183.174 487.84 183.174 488.585V492.074C183.174 492.511 182.954 492.726 182.522 492.726H173.581C167.561 492.726 166.516 495.343 166.516 503.85C166.516 512.357 167.561 515.016 173.581 515.016H182.522C182.958 515.016 183.174 515.236 183.174 515.668V519.204C183.174 519.903 182.827 520.161 182.171 520.339C180.033 520.775 177.417 520.991 173.577 520.991C162.451 520.991 159.577 517.061 159.577 503.845C159.577 490.63 162.456 486.742 173.577 486.742C177.417 486.742 180.033 487 182.171 487.394V487.403ZM178.42 478.329C178.725 478.503 178.814 478.765 178.593 479.07L174.407 484.871C174.233 485.092 174.102 485.218 173.534 485.218H169.826C169.263 485.218 169.085 485.087 168.954 484.871L164.767 479.07C164.547 478.765 164.594 478.503 164.941 478.329L166.291 477.63C166.553 477.457 166.774 477.415 167.032 477.63L171.701 480.904L176.324 477.63C176.587 477.415 176.802 477.457 177.065 477.63L178.415 478.329H178.42Z" fill="#1075B9"/>
<path d="M210.25 487.009C210.686 487.009 210.906 487.23 210.906 487.666V492.332C210.906 492.768 210.686 492.984 210.25 492.984H194.595V501.228H208.899C209.336 501.228 209.598 501.449 209.598 501.88V506.331C209.598 506.767 209.336 506.983 208.899 506.983H194.595V514.791H210.25C210.686 514.791 210.906 515.011 210.906 515.447V520.114C210.906 520.55 210.686 520.765 210.25 520.765H188.397C187.961 520.765 187.745 520.545 187.745 520.067V487.652C187.745 487.216 187.965 486.995 188.397 486.995H210.25V487.009Z" fill="#1075B9"/>
<path d="M239.328 487.01C239.764 487.01 240.026 487.23 240.026 487.666V492.332C240.026 492.768 239.768 492.984 239.328 492.984H230.213V520.076C230.213 520.555 229.993 520.775 229.557 520.775H224.02C223.584 520.775 223.368 520.555 223.368 520.076V492.984H214.254C213.818 492.984 213.602 492.768 213.602 492.332V487.666C213.602 487.23 213.822 487.01 214.254 487.01H239.332H239.328Z" fill="#1075B9"/>
<path d="M271.2 487.01C271.636 487.01 271.852 487.23 271.852 487.708V520.081C271.852 520.559 271.636 520.78 271.2 520.78H267.144C266.099 520.78 265.569 520.517 264.964 519.687L250.66 498.706V520.081C250.66 520.559 250.439 520.78 250.008 520.78H244.471C244.035 520.78 243.815 520.559 243.815 520.081V487.708C243.815 487.23 244.035 487.01 244.471 487.01H248.789C250.533 487.01 250.754 487.404 251.49 488.449L265.011 508.211V487.704C265.011 487.225 265.227 487.005 265.663 487.005H271.2V487.01Z" fill="#1075B9"/>
<path d="M284.229 487.01C284.665 487.01 284.881 487.23 284.881 487.708V520.081C284.881 520.559 284.66 520.78 284.229 520.78H278.692C278.256 520.78 278.036 520.559 278.036 520.081V487.708C278.036 487.23 278.256 487.01 278.692 487.01H284.229ZM288.547 477.504C288.81 477.504 288.983 477.635 288.983 477.94V478.249C288.983 478.47 288.852 478.639 288.768 478.775L281.093 485.143C280.872 485.317 280.746 485.274 280.478 485.143L278.603 484.055C278.383 483.877 278.345 483.661 278.472 483.441L281.655 477.771C281.744 477.593 281.918 477.508 282.18 477.508H288.547V477.504Z" fill="#1075B9"/>
<path d="M318.76 491.985L326.435 520.081C326.519 520.606 326.304 520.78 325.867 520.78H320.284C319.89 520.78 319.848 520.606 319.721 520.081L317.236 511.007H305.548L303.016 520.081C302.885 520.606 302.842 520.78 302.406 520.78H296.865C296.386 520.78 296.213 520.606 296.302 520.081L304.108 491.985C305.416 487.23 306.288 486.752 311.352 486.752C316.416 486.752 317.456 487.23 318.764 491.985H318.76ZM310.26 493.777L307.076 505.337H315.712L312.571 493.777C312.266 492.731 312.224 492.511 311.352 492.511C310.611 492.511 310.522 492.731 310.26 493.777Z" fill="#1075B9"/>
<path d="M365.373 503.897C365.373 515.978 361.49 521 351.241 521C346.966 521 342.432 520.869 338.592 520.564C338.072 520.522 337.94 520.433 337.94 520.001V487.849C337.94 487.366 338.072 487.282 338.592 487.235C342.432 486.888 346.966 486.756 351.241 486.756C361.49 486.756 365.373 491.863 365.373 503.902V503.897ZM344.785 492.726V515.016H351.241C356.521 515.016 358.438 511.701 358.438 503.892C358.438 496.084 356.432 492.726 350.89 492.726H344.785Z" fill="#1075B9"/>
<path d="M389.57 491.985L397.245 520.081C397.329 520.606 397.113 520.78 396.677 520.78H391.093C390.7 520.78 390.657 520.606 390.531 520.081L388.046 511.007H376.358L373.826 520.081C373.695 520.606 373.652 520.78 373.216 520.78H367.675C367.196 520.78 367.023 520.606 367.112 520.081L374.918 491.985C376.226 487.23 377.098 486.752 382.162 486.752C387.225 486.752 388.266 487.23 389.574 491.985H389.57ZM381.065 493.777L377.881 505.337H386.518L383.376 493.777C383.071 492.731 383.029 492.511 382.157 492.511C381.416 492.511 381.327 492.731 381.065 493.777Z" fill="#1075B9"/>
<path d="M428.198 487.01C428.634 487.01 428.854 487.23 428.854 487.708V520.081C428.854 520.559 428.634 520.78 428.198 520.78H424.142C423.097 520.78 422.576 520.517 421.962 519.687L407.658 498.706V520.081C407.658 520.559 407.437 520.78 407.006 520.78H401.464C401.028 520.78 400.813 520.559 400.813 520.081V487.708C400.813 487.23 401.033 487.01 401.464 487.01H405.782C407.526 487.01 407.742 487.404 408.483 488.449L422.005 508.211V487.704C422.005 487.225 422.225 487.005 422.656 487.005H428.193L428.198 487.01ZM421.568 478.329C421.878 478.503 421.962 478.765 421.742 479.07L417.555 484.871C417.382 485.092 417.208 485.218 416.683 485.218H412.975C412.412 485.218 412.234 485.087 412.107 484.871L407.92 479.07C407.7 478.765 407.742 478.503 408.052 478.329L409.449 477.63C409.707 477.457 409.927 477.415 410.19 477.63L414.812 480.904L419.435 477.63C419.693 477.415 419.956 477.457 420.218 477.63L421.568 478.329Z" fill="#1075B9"/>
<path d="M462.246 503.939C462.246 517.112 459.24 520.995 448.115 520.995C436.989 520.995 433.984 517.112 433.984 503.939C433.984 490.766 436.994 486.747 448.115 486.747C459.236 486.747 462.246 490.677 462.246 503.939ZM440.918 503.939C440.918 512.399 442.099 515.021 448.115 515.021C454.13 515.021 455.311 512.404 455.311 503.939C455.311 495.474 454.135 492.726 448.115 492.726C442.095 492.726 440.918 495.385 440.918 503.939Z" fill="#1075B9"/>
<path d="M470.436 487.01C470.83 487.01 470.872 487.188 471.051 487.708L477.854 514.102C478.158 515.105 478.243 515.41 478.81 515.41C479.509 515.41 479.64 515.105 479.902 514.102L486.616 487.708C486.748 487.188 486.837 487.01 487.231 487.01H492.815C493.251 487.01 493.466 487.188 493.34 487.708L486.143 515.809C484.924 520.475 484.136 521 478.862 521C473.587 521 472.973 520.517 471.707 515.809L464.337 487.708C464.205 487.188 464.426 487.01 464.862 487.01H470.446H470.436Z" fill="#1075B9"/>
<path d="M516.918 491.985L524.593 520.081C524.677 520.606 524.462 520.78 524.026 520.78H518.442C518.048 520.78 518.006 520.606 517.879 520.081L515.394 511.006H503.706L501.174 520.081C501.043 520.606 501.001 520.78 500.565 520.78H495.023C494.545 520.78 494.371 520.606 494.46 520.081L502.267 491.985C503.575 487.23 504.447 486.752 509.51 486.752C514.574 486.752 515.615 487.23 516.923 491.985H516.918ZM508.413 493.777L505.23 505.337H513.866L510.724 493.777C510.42 492.731 510.378 492.51 509.505 492.51C508.765 492.51 508.676 492.731 508.413 493.777ZM516.834 477.504C517.091 477.504 517.27 477.635 517.27 477.94V478.249C517.27 478.47 517.185 478.639 517.049 478.775L509.416 485.143C509.196 485.317 509.023 485.274 508.807 485.143L506.927 484.055C506.711 483.877 506.669 483.661 506.796 483.441L509.979 477.771C510.063 477.593 510.237 477.508 510.504 477.508H516.829L516.834 477.504Z" fill="#1075B9"/>
<path d="M562.002 487.01C562.785 487.01 562.743 487.357 562.396 487.84L551.055 502.542L563.573 519.598C563.962 520.161 564.009 520.775 562.832 520.775H556.728C556.292 520.775 555.94 520.601 555.771 520.297L543.994 504.108V520.076C543.994 520.555 543.773 520.775 543.342 520.775H537.8C537.364 520.775 537.149 520.555 537.149 520.076V487.661C537.149 487.225 537.369 487.005 537.8 487.005H543.342C543.778 487.005 543.994 487.225 543.994 487.661V501.533L554.941 487.441C555.162 487.183 555.466 487.005 555.86 487.005H562.012L562.002 487.01Z" fill="#1075B9"/>
<path d="M586.457 491.985L594.132 520.081C594.221 520.606 594.001 520.78 593.565 520.78H587.981C587.592 520.78 587.545 520.606 587.414 520.081L584.929 511.007H573.241L570.709 520.081C570.577 520.606 570.535 520.78 570.099 520.78H564.562C564.079 520.78 563.906 520.606 563.995 520.081L571.801 491.985C573.109 487.23 573.981 486.752 579.04 486.752C584.099 486.752 585.149 487.23 586.457 491.985ZM577.952 493.777L574.769 505.337H583.405L580.264 493.777C579.954 492.731 579.917 492.511 579.04 492.511C578.299 492.511 578.21 492.731 577.952 493.777Z" fill="#1075B9"/>
<path d="M625.086 487.01C625.522 487.01 625.737 487.23 625.737 487.708V520.081C625.737 520.559 625.522 520.78 625.086 520.78H621.03C619.984 520.78 619.455 520.517 618.85 519.687L604.545 498.706V520.081C604.545 520.559 604.325 520.78 603.894 520.78H598.357C597.921 520.78 597.7 520.559 597.7 520.081V487.708C597.7 487.23 597.921 487.01 598.357 487.01H602.675C604.419 487.01 604.639 487.404 605.375 488.449L618.897 508.211V487.704C618.897 487.225 619.112 487.005 619.549 487.005H625.086V487.01Z" fill="#1075B9"/>
<path d="M653.512 487.403C654.163 487.577 654.515 487.84 654.515 488.585V492.074C654.515 492.51 654.295 492.726 653.863 492.726H644.923C638.903 492.726 637.857 495.343 637.857 503.85C637.857 512.357 638.903 515.016 644.923 515.016H653.863C654.299 515.016 654.515 515.236 654.515 515.668V519.204C654.515 519.903 654.168 520.161 653.512 520.339C651.374 520.775 648.758 520.991 644.918 520.991C633.792 520.991 630.918 517.061 630.918 503.845C630.918 490.63 633.797 486.742 644.918 486.742C648.758 486.742 651.374 487 653.512 487.394V487.403Z" fill="#1075B9"/>
<path d="M681.586 487.009C682.022 487.009 682.243 487.23 682.243 487.666V492.332C682.243 492.768 682.022 492.984 681.586 492.984H665.932V501.228H680.236C680.672 501.228 680.935 501.449 680.935 501.88V506.331C680.935 506.767 680.672 506.983 680.236 506.983H665.932V514.791H681.586C682.022 514.791 682.243 515.011 682.243 515.447V520.114C682.243 520.55 682.022 520.765 681.586 520.765H659.733C659.297 520.765 659.082 520.545 659.082 520.067V487.652C659.082 487.216 659.302 486.995 659.733 486.995H681.586V487.009Z" fill="#1075B9"/>
<path d="M693.528 487.01C693.964 487.01 694.18 487.23 694.18 487.666V514.8H708.484C708.92 514.8 709.136 515.021 709.136 515.457V520.123C709.136 520.559 708.915 520.775 708.484 520.775H687.981C687.545 520.775 687.33 520.555 687.33 520.076V487.661C687.33 487.225 687.55 487.005 687.981 487.005H693.523L693.528 487.01Z" fill="#1075B9"/>
<path d="M732.681 491.985L740.356 520.081C740.441 520.606 740.225 520.78 739.789 520.78H734.205C733.811 520.78 733.769 520.606 733.642 520.081L731.157 511.006H719.469L716.937 520.081C716.806 520.606 716.764 520.78 716.328 520.78H710.786C710.308 520.78 710.134 520.606 710.223 520.081L718.03 491.985C719.338 487.23 720.21 486.752 725.273 486.752C730.337 486.752 731.378 487.23 732.686 491.985H732.681ZM724.181 493.777L720.998 505.337H729.634L726.492 493.777C726.188 492.731 726.145 492.51 725.273 492.51C724.533 492.51 724.444 492.731 724.181 493.777ZM732.597 477.504C732.855 477.504 733.033 477.635 733.033 477.94V478.249C733.033 478.47 732.948 478.639 732.812 478.775L725.18 485.143C724.959 485.317 724.786 485.274 724.57 485.143L722.69 484.055C722.474 483.877 722.432 483.661 722.559 483.441L725.742 477.771C725.827 477.593 726 477.508 726.267 477.508H732.592L732.597 477.504Z" fill="#1075B9"/>
<path d="M768.961 497.965C768.961 504.553 767.217 507.17 762.289 508.132L769.706 519.907C770.053 520.386 769.837 520.78 769.181 520.78H763.686C762.683 520.78 762.378 520.475 761.942 519.818L754.787 508.563H750.774V520.081C750.774 520.648 750.643 520.78 750.122 520.78H744.585C744.06 520.78 743.929 520.648 743.929 520.081V487.844C743.929 487.361 744.06 487.277 744.585 487.23C748.425 486.883 752.612 486.752 756.185 486.752C765.735 486.752 768.965 489.237 768.965 497.965H768.961ZM762.547 478.329C762.856 478.503 762.941 478.765 762.725 479.07L758.538 484.871C758.36 485.092 758.229 485.218 757.661 485.218H753.958C753.39 485.218 753.217 485.087 753.086 484.871L748.899 479.07C748.678 478.765 748.725 478.503 749.072 478.329L750.422 477.63C750.68 477.457 750.901 477.415 751.163 477.63L755.828 480.904L760.451 477.63C760.714 477.415 760.934 477.457 761.192 477.63L762.542 478.329H762.547ZM750.774 492.726V503.283H755.486C760.676 503.283 762.031 502.584 762.031 498.138C762.031 493.692 760.676 492.726 755.486 492.726H750.774Z" fill="#1075B9"/>
<path d="M430.162 62.2971H344.95C311.775 62.2971 284.881 89.1975 284.881 122.381V190.849C284.881 224.033 311.775 250.933 344.95 250.933H430.162C463.337 250.933 490.231 224.033 490.231 190.849V122.381C490.231 89.1975 463.337 62.2971 430.162 62.2971Z" fill="white"/>
<path d="M549.024 176.874L498.239 20.5453C494.568 9.24328 481.848 0 469.972 0H305.646C293.77 0 281.05 9.24328 277.379 20.5453L226.594 176.874C222.927 188.167 227.785 203.127 237.391 210.11L370.342 306.726C379.954 313.709 395.669 313.709 405.281 306.726L538.232 210.11C547.843 203.122 552.7 188.167 549.029 176.874M338.573 67.3057H437.045C442.985 67.3057 449.338 71.9297 451.181 77.576L460.656 106.75L415.722 113.489C414.84 113.621 414.245 114.446 414.404 115.323L418.141 136.586C418.3 137.463 418.16 138.86 417.832 139.69L412.595 153.037C412.266 153.867 411.296 154.725 410.433 154.936L389.865 160.062C389.002 160.273 387.586 160.273 386.719 160.062L366.151 154.936C365.288 154.725 364.317 153.867 363.989 153.037L358.752 139.69C358.424 138.86 358.288 137.463 358.443 136.586L362.18 115.323C362.339 114.446 361.739 113.616 360.862 113.489L315.018 106.619L324.451 77.576C326.289 71.925 332.647 67.3057 338.587 67.3057M294.033 171.252L313.973 109.874L347.866 132.67C348.602 133.167 349.469 134.26 349.783 135.09L366.596 179.782C366.91 180.617 367.82 181.625 368.617 182.028L384.225 189.855C385.022 190.254 385.594 191.309 385.491 192.191L384.403 202.02C384.304 202.911 383.554 203.92 382.738 204.276L353.909 216.835C353.093 217.191 351.701 217.571 350.819 217.688L342.043 218.828L299.448 187.867C294.637 184.378 292.213 176.898 294.047 171.252M396.579 245.765C391.768 249.254 383.915 249.254 379.105 245.765L342.746 219.339L353.628 219.386C354.523 219.386 355.958 219.217 356.821 218.997L386.752 211.437C387.61 211.221 389.026 211.221 389.888 211.437L419.824 218.997C420.687 219.212 422.122 219.391 423.012 219.386L432.933 219.344L396.579 245.77V245.765ZM476.241 187.872L433.786 218.725L425.816 217.698C424.935 217.58 423.542 217.196 422.726 216.844L393.892 204.285C393.077 203.929 392.331 202.911 392.228 202.03L391.14 192.2C391.042 191.309 391.614 190.263 392.411 189.865L408.019 182.038C408.811 181.639 409.716 180.626 410.035 179.791L426.848 135.099C427.162 134.264 428.02 133.176 428.765 132.679L461.87 110.413L481.642 171.266C483.475 176.917 481.051 184.392 476.241 187.881" fill="#1075B9"/>
</g>
<defs>
<clipPath id="clip0_58_1562">
<rect width="771" height="521" fill="white"/>
</clipPath>
</defs>
</svg>
