<svg width="771" height="534" viewBox="0 0 771 534" fill="none" xmlns="http://www.w3.org/2000/svg">
<path d="M0 360.534H24.5113C41.8211 360.534 50.9262 370.772 50.9262 385.812C50.9262 393.901 48.6522 399.337 43.9778 404.139C54.5879 407.421 60.2797 416.144 60.2797 428.656C60.2797 449.384 48.6522 458.482 28.8153 458.482H0V360.53V360.534ZM12.0025 371.785V400.729H23.2501C34.8775 400.729 38.6611 392.893 38.6611 385.812C38.6611 376.334 32.5942 371.785 24.5066 371.785H11.9978H12.0025ZM29.0638 446.983C43.7153 446.983 48.0146 439.907 48.0146 428.783C48.0146 416.397 40.8084 412.228 29.4389 412.228H12.2603V446.983H29.0685H29.0638Z" fill="#1D1E1C"/>
<path d="M122.81 360.788V371.405H85.6582V400.73H119.27V411.98H85.6582V447.115H125.965V458.365H73.6558V360.797H122.81V360.788Z" fill="#1D1E1C"/>
<path d="M180.539 384.925C179.906 376.962 177.126 371.274 164.997 371.274C151.475 371.274 148.821 377.469 148.821 387.2C148.821 400.725 160.575 400.598 172.826 401.864C184.074 403.004 195.701 408.561 195.701 428.909C195.701 449.258 187.74 458.862 167.646 458.862H165.25C145.282 458.862 136.186 449.131 135.3 432.572H148.32C148.953 440.788 152.61 447.11 165.128 447.11H167.528C180.665 447.11 183.319 440.915 183.319 429.542C183.319 413.616 172.831 413.363 160.702 412.35C149.332 411.464 136.322 405.907 136.322 387.326C136.322 368.746 144.531 359.901 165.001 359.901C184.337 359.901 192.166 368.877 193.048 384.925H180.539Z" fill="#1D1E1C"/>
<path d="M234.592 372.54V458.356H222.59V372.54H202.373V361.421H254.809V372.54H234.592Z" fill="#1D1E1C"/>
<path d="M336.177 458.361L331.245 440.287H302.059L297.127 458.361H284.618L310.522 361.168H322.782L348.555 458.361H336.177ZM316.594 376.841L310.02 408.561L305.097 428.91H328.094L323.04 408.182L316.594 376.836V376.841Z" fill="#1D1E1C"/>
<path d="M403.513 388.339C403.387 376.587 400.981 371.279 384.811 371.279C368.64 371.279 365.86 377.347 365.86 392.766V426.133C365.86 441.548 368.392 447.616 384.811 447.616C401.23 447.616 403.762 443.954 403.762 428.53H415.267C415.267 447.363 413.242 458.989 384.811 458.989C356.38 458.989 353.731 447.359 353.731 426.002V392.888C353.731 371.527 358.785 360.023 384.811 360.023C410.837 360.023 415.014 369.506 415.267 388.335H403.513V388.339Z" fill="#1D1E1C"/>
<path d="M475.898 388.339C475.772 376.587 473.367 371.279 457.196 371.279C440.271 371.279 438.245 377.347 438.245 392.766V426.133C438.245 441.548 440.777 447.616 457.196 447.616C473.624 447.616 476.147 443.954 476.147 428.53H487.652C487.652 447.363 485.627 458.989 457.196 458.989C428.77 458.989 426.116 447.359 426.116 426.002V392.888C426.116 371.527 431.17 360.023 457.196 360.023C482.472 360.023 487.399 369.506 487.652 388.335H475.898V388.339Z" fill="#1D1E1C"/>
<path d="M561.683 426.387C561.683 447.748 556.878 459.247 530.088 459.247C503.298 459.247 498.501 447.748 498.501 426.387V392.387C498.501 371.025 503.307 359.526 530.088 359.526C556.868 359.526 561.683 371.025 561.683 392.387V426.387ZM549.55 392.26C549.55 376.841 548.284 370.519 530.088 370.519C511.892 370.519 510.631 376.836 510.631 392.26V426.508C510.631 441.928 511.896 447.996 530.088 447.996C548.279 447.996 549.55 441.928 549.55 426.508V392.26Z" fill="#1D1E1C"/>
<path d="M625.095 360.788H637.224V426.255C637.224 447.617 630.402 459.116 607.279 459.116C584.155 459.116 577.075 447.617 577.075 426.255V360.915H589.205V426.387C589.205 441.802 592.238 447.87 607.274 447.87C622.31 447.87 625.09 441.802 625.09 426.387V360.793L625.095 360.788Z" fill="#1D1E1C"/>
<path d="M698.615 435.484L696.847 402.371V360.915H708.85V458.361H697.607L665.509 388.34L666.269 420.318V458.361H654.266V360.915H665.636L698.615 435.484Z" fill="#1D1E1C"/>
<path d="M750.783 372.54V458.356H738.781V372.54H718.564V361.421H771V372.54H750.783Z" fill="#1D1E1C"/>
<path d="M430.162 62.2974H344.95C311.775 62.2974 284.881 89.1977 284.881 122.381V190.85C284.881 224.033 311.775 250.933 344.95 250.933H430.162C463.337 250.933 490.231 224.033 490.231 190.85V122.381C490.231 89.1977 463.337 62.2974 430.162 62.2974Z" fill="white"/>
<path d="M549.024 176.874L498.239 20.5453C494.568 9.24328 481.848 0 469.972 0H305.646C293.77 0 281.05 9.24328 277.379 20.5453L226.594 176.874C222.927 188.167 227.785 203.127 237.391 210.11L370.342 306.726C379.954 313.709 395.669 313.709 405.281 306.726L538.232 210.11C547.843 203.122 552.7 188.167 549.029 176.874M338.573 67.3057H437.045C442.985 67.3057 449.338 71.9297 451.181 77.576L460.656 106.75L415.722 113.489C414.84 113.621 414.245 114.446 414.404 115.323L418.141 136.586C418.3 137.463 418.16 138.86 417.832 139.69L412.595 153.037C412.266 153.867 411.296 154.725 410.433 154.936L389.865 160.062C389.002 160.273 387.586 160.273 386.719 160.062L366.151 154.936C365.288 154.725 364.317 153.867 363.989 153.037L358.752 139.69C358.424 138.86 358.288 137.463 358.443 136.586L362.18 115.323C362.339 114.446 361.739 113.616 360.862 113.489L315.018 106.619L324.451 77.576C326.289 71.925 332.647 67.3057 338.587 67.3057M294.033 171.252L313.973 109.874L347.866 132.67C348.602 133.167 349.469 134.26 349.783 135.09L366.596 179.782C366.91 180.617 367.82 181.625 368.617 182.028L384.225 189.855C385.022 190.254 385.594 191.309 385.491 192.191L384.403 202.02C384.304 202.911 383.554 203.92 382.738 204.276L353.909 216.835C353.093 217.191 351.701 217.571 350.819 217.688L342.043 218.828L299.448 187.867C294.637 184.378 292.213 176.898 294.047 171.252M396.579 245.765C391.768 249.254 383.915 249.254 379.105 245.765L342.746 219.339L353.628 219.386C354.523 219.386 355.958 219.217 356.821 218.997L386.752 211.437C387.61 211.221 389.026 211.221 389.888 211.437L419.824 218.997C420.687 219.212 422.122 219.391 423.012 219.386L432.933 219.344L396.579 245.77V245.765ZM476.241 187.872L433.786 218.725L425.816 217.698C424.935 217.58 423.542 217.196 422.726 216.844L393.892 204.285C393.077 203.929 392.331 202.911 392.228 202.03L391.14 192.2C391.042 191.309 391.614 190.263 392.411 189.865L408.019 182.038C408.811 181.639 409.716 180.626 410.035 179.791L426.848 135.099C427.162 134.264 428.02 133.176 428.765 132.679L461.87 110.413L481.642 171.266C483.475 176.917 481.051 184.392 476.241 187.881" fill="#1D1E1C"/>
<path d="M754.343 501.88V532.984H747.767V501.88H740.087V495.976H761.975V501.88H754.343Z" fill="#1D1E1C"/>
<path d="M730.078 505.336C729.982 503.832 729.534 502.792 728.734 502.216C727.934 501.608 726.702 501.304 725.038 501.304C723.214 501.304 721.902 501.704 721.102 502.504C720.302 503.272 719.902 504.536 719.902 506.296C719.902 507.544 720.158 508.488 720.67 509.128C721.214 509.736 721.918 510.168 722.782 510.424C723.678 510.648 725.006 510.872 726.766 511.096C727.918 511.224 728.734 511.336 729.214 511.432C731.806 511.848 733.838 512.744 735.31 514.12C736.814 515.496 737.566 517.864 737.566 521.224C737.566 525.512 736.574 528.632 734.59 530.584C732.638 532.504 729.47 533.464 725.086 533.464C716.926 533.464 712.846 529.992 712.846 523.048H719.518C719.582 524.552 720.014 525.656 720.814 526.36C721.646 527.064 723.07 527.416 725.086 527.416C727.102 527.416 728.574 526.952 729.502 526.024C730.462 525.064 730.942 523.544 730.942 521.464C730.942 520.28 730.574 519.368 729.838 518.728C729.134 518.088 728.27 517.64 727.246 517.384C726.222 517.128 724.894 516.92 723.262 516.76C722.942 516.696 722.462 516.632 721.822 516.568C719.294 516.248 717.23 515.336 715.63 513.832C714.03 512.296 713.23 509.8 713.23 506.344C713.23 502.888 714.254 500.216 716.302 498.328C718.35 496.44 721.262 495.496 725.038 495.496C728.59 495.496 731.358 496.264 733.342 497.8C735.326 499.304 736.462 501.816 736.75 505.336H730.078Z" fill="#1D1E1C"/>
<path d="M695.152 533.464C690.8 533.464 687.648 532.584 685.696 530.824C683.776 529.064 682.816 526.264 682.816 522.424V506.536C682.816 503.88 683.216 501.752 684.016 500.152C684.848 498.552 686.16 497.384 687.952 496.648C689.776 495.88 692.176 495.496 695.152 495.496C699.632 495.496 702.848 496.36 704.8 498.088C706.784 499.816 707.776 502.632 707.776 506.536V522.424C707.776 526.232 706.768 529.032 704.752 530.824C702.736 532.584 699.536 533.464 695.152 533.464ZM695.152 527.608C697.424 527.608 698.992 527.16 699.856 526.264C700.72 525.368 701.152 523.976 701.152 522.088V506.872C701.152 505.624 700.992 504.616 700.672 503.848C700.384 503.048 699.792 502.44 698.896 502.024C698.032 501.576 696.784 501.352 695.152 501.352C692.912 501.352 691.392 501.816 690.592 502.744C689.824 503.64 689.44 505.016 689.44 506.872V522.088C689.44 523.368 689.584 524.408 689.872 525.208C690.192 525.976 690.768 526.568 691.6 526.984C692.432 527.4 693.616 527.608 695.152 527.608Z" fill="#1D1E1C"/>
<path d="M670.238 532.984L659.39 509.56L659.966 523.576V532.984H653.39V495.976H659.966L670.814 520.408L670.094 504.808V495.976H676.67V532.984H670.238Z" fill="#1D1E1C"/>
<path d="M647.964 521.944C647.964 525.976 646.956 528.904 644.94 530.728C642.956 532.552 639.756 533.464 635.34 533.464C630.988 533.464 627.836 532.584 625.884 530.824C623.964 529.064 623.004 526.264 623.004 522.424V506.536C623.004 503.88 623.404 501.752 624.204 500.152C625.036 498.552 626.348 497.384 628.14 496.648C629.964 495.88 632.364 495.496 635.34 495.496C639.82 495.496 643.036 496.392 644.988 498.184C646.972 499.944 647.964 502.872 647.964 506.968H641.34C641.34 505.656 641.18 504.6 640.86 503.8C640.572 503 639.996 502.392 639.132 501.976C638.268 501.56 637.004 501.352 635.34 501.352C633.804 501.352 632.62 501.56 631.788 501.976C630.956 502.392 630.38 503 630.06 503.8C629.772 504.568 629.628 505.592 629.628 506.872V522.088C629.628 523.368 629.772 524.408 630.06 525.208C630.38 525.976 630.956 526.568 631.788 526.984C632.62 527.4 633.804 527.608 635.34 527.608C637.612 527.608 639.18 527.16 640.044 526.264C640.908 525.336 641.34 523.896 641.34 521.944H647.964ZM643.692 487V487.48L636.876 493.672H633.804L627.036 487.48V487H633.18L635.34 489.16L637.596 487H643.692Z" fill="#1D1E1C"/>
<path d="M617.702 501.736H603.062V511.288H615.542V517.24H603.062V526.936H618.374V532.984H596.438V495.976H617.702V501.736Z" fill="#1D1E1C"/>
<path d="M570.985 532.984V495.976H577.657V526.936H591.913V532.984H570.985Z" fill="#1D1E1C"/>
<path d="M552.043 533.464C547.691 533.464 544.539 532.584 542.587 530.824C540.667 529.064 539.707 526.264 539.707 522.424V506.536C539.707 503.88 540.107 501.752 540.907 500.152C541.739 498.552 543.051 497.384 544.843 496.648C546.667 495.88 549.067 495.496 552.043 495.496C556.523 495.496 559.739 496.36 561.691 498.088C563.675 499.816 564.667 502.632 564.667 506.536V522.424C564.667 526.232 563.659 529.032 561.643 530.824C559.627 532.584 556.427 533.464 552.043 533.464ZM552.043 527.608C554.315 527.608 555.883 527.16 556.747 526.264C557.611 525.368 558.043 523.976 558.043 522.088V506.872C558.043 505.624 557.883 504.616 557.563 503.848C557.275 503.048 556.683 502.44 555.787 502.024C554.923 501.576 553.675 501.352 552.043 501.352C549.803 501.352 548.283 501.816 547.483 502.744C546.715 503.64 546.331 505.016 546.331 506.872V522.088C546.331 523.368 546.475 524.408 546.763 525.208C547.083 525.976 547.659 526.568 548.491 526.984C549.323 527.4 550.507 527.608 552.043 527.608Z" fill="#1D1E1C"/>
<path d="M523.063 495.976C527.575 495.976 530.887 496.856 532.999 498.616C535.111 500.344 536.167 503.144 536.167 507.016V510.472C536.167 514.28 535.079 517.096 532.903 518.92C530.759 520.744 527.479 521.656 523.063 521.656H520.519V532.984H513.751V495.976H523.063ZM523.063 515.272C525.399 515.272 527.047 514.872 528.007 514.072C528.967 513.24 529.447 511.928 529.447 510.136V507.352C529.447 506.104 529.271 505.096 528.919 504.328C528.567 503.56 527.927 502.984 526.999 502.6C526.103 502.216 524.823 502.024 523.159 502.024H520.471V515.272H523.063Z" fill="#1D1E1C"/>
<path d="M500.766 505.336C500.67 503.832 500.222 502.792 499.422 502.216C498.622 501.608 497.39 501.304 495.726 501.304C493.902 501.304 492.59 501.704 491.79 502.504C490.99 503.272 490.59 504.536 490.59 506.296C490.59 507.544 490.846 508.488 491.358 509.128C491.902 509.736 492.606 510.168 493.47 510.424C494.366 510.648 495.694 510.872 497.454 511.096C498.606 511.224 499.422 511.336 499.902 511.432C502.494 511.848 504.526 512.744 505.998 514.12C507.502 515.496 508.254 517.864 508.254 521.224C508.254 525.512 507.262 528.632 505.278 530.584C503.326 532.504 500.158 533.464 495.774 533.464C487.614 533.464 483.534 529.992 483.534 523.048H490.206C490.27 524.552 490.702 525.656 491.502 526.36C492.334 527.064 493.758 527.416 495.774 527.416C497.79 527.416 499.262 526.952 500.19 526.024C501.15 525.064 501.63 523.544 501.63 521.464C501.63 520.28 501.262 519.368 500.526 518.728C499.822 518.088 498.958 517.64 497.934 517.384C496.91 517.128 495.582 516.92 493.95 516.76C493.63 516.696 493.15 516.632 492.51 516.568C489.982 516.248 487.918 515.336 486.318 513.832C484.718 512.296 483.918 509.8 483.918 506.344C483.918 502.888 484.942 500.216 486.99 498.328C489.038 496.44 491.95 495.496 495.726 495.496C499.278 495.496 502.046 496.264 504.03 497.8C506.014 499.304 507.15 501.816 507.438 505.336H500.766Z" fill="#1D1E1C"/>
<path d="M462.121 532.984L460.249 526.456H450.793L448.873 532.984H442.057L452.281 495.976H458.857L468.937 532.984H462.121ZM455.497 506.296L452.425 519.976H458.569L455.497 506.296ZM452.233 493.576L454.969 487.048H461.593L457.945 493.576H452.233Z" fill="#1D1E1C"/>
<path d="M422.959 518.152H421.087V532.984H414.511V495.976H421.135V511.576H422.911L432.607 495.976H440.335L428.287 514.504L441.439 532.984H433.375L422.959 518.152Z" fill="#1D1E1C"/>
<path d="M401.766 505.336C401.67 503.832 401.222 502.792 400.422 502.216C399.622 501.608 398.39 501.304 396.726 501.304C394.902 501.304 393.59 501.704 392.79 502.504C391.99 503.272 391.59 504.536 391.59 506.296C391.59 507.544 391.846 508.488 392.358 509.128C392.902 509.736 393.606 510.168 394.47 510.424C395.366 510.648 396.694 510.872 398.454 511.096C399.606 511.224 400.422 511.336 400.902 511.432C403.494 511.848 405.526 512.744 406.998 514.12C408.502 515.496 409.254 517.864 409.254 521.224C409.254 525.512 408.262 528.632 406.278 530.584C404.326 532.504 401.158 533.464 396.774 533.464C388.614 533.464 384.534 529.992 384.534 523.048H391.206C391.27 524.552 391.702 525.656 392.502 526.36C393.334 527.064 394.758 527.416 396.774 527.416C398.79 527.416 400.262 526.952 401.19 526.024C402.15 525.064 402.63 523.544 402.63 521.464C402.63 520.28 402.262 519.368 401.526 518.728C400.822 518.088 399.958 517.64 398.934 517.384C397.91 517.128 396.582 516.92 394.95 516.76C394.63 516.696 394.15 516.632 393.51 516.568C390.982 516.248 388.918 515.336 387.318 513.832C385.718 512.296 384.918 509.8 384.918 506.344C384.918 502.888 385.942 500.216 387.99 498.328C390.038 496.44 392.95 495.496 396.726 495.496C400.278 495.496 403.046 496.264 405.03 497.8C407.014 499.304 408.15 501.816 408.438 505.336H401.766Z" fill="#1D1E1C"/>
<path d="M372.676 532.984L361.828 509.56L362.404 523.576V532.984H355.828V495.976H362.404L373.252 520.408L372.532 504.808V495.976H379.108V532.984H372.676Z" fill="#1D1E1C"/>
<path d="M350.046 501.736H335.406V511.288H347.886V517.24H335.406V526.936H350.718V532.984H328.782V495.976H350.046V501.736Z" fill="#1D1E1C"/>
<path d="M310.271 495.976C314.751 495.976 317.967 496.84 319.919 498.568C321.903 500.296 322.895 503.112 322.895 507.016V522.136C322.895 525.944 321.887 528.712 319.871 530.44C317.887 532.136 314.687 532.984 310.271 532.984H298.127V495.976H310.271ZM310.271 526.984C312.575 526.984 314.143 526.584 314.975 525.784C315.839 524.984 316.271 523.656 316.271 521.8V507.352C316.271 506.072 316.127 505.064 315.839 504.328C315.551 503.56 314.975 502.984 314.111 502.6C313.279 502.216 312.031 502.024 310.367 502.024H304.703V526.984H310.271Z" fill="#1D1E1C"/>
<path d="M287.465 532.984L285.593 526.456H276.137L274.217 532.984H267.401L277.625 495.976H284.201L294.281 532.984H287.465ZM280.841 506.296L277.769 519.976H283.913L280.841 506.296Z" fill="#1D1E1C"/>
<path d="M250.901 519.976H248.453V532.984H241.829V495.976H251.141C255.653 495.976 258.965 496.856 261.077 498.616C263.189 500.376 264.245 503.192 264.245 507.064V509.032C264.245 511.784 263.733 513.944 262.709 515.512C261.717 517.08 260.101 518.216 257.861 518.92L265.973 532.984H258.245L250.901 519.976ZM251.141 513.88C253.445 513.88 255.045 513.48 255.941 512.68C256.837 511.848 257.285 510.52 257.285 508.696V507.4C257.285 506.12 257.125 505.112 256.805 504.376C256.517 503.608 255.925 503.032 255.029 502.648C254.165 502.264 252.901 502.072 251.237 502.072H248.405V513.88H251.141Z" fill="#1D1E1C"/>
<path d="M222.887 533.464C218.535 533.464 215.383 532.584 213.431 530.824C211.511 529.064 210.551 526.264 210.551 522.424V506.536C210.551 503.88 210.951 501.752 211.751 500.152C212.583 498.552 213.895 497.384 215.687 496.648C217.511 495.88 219.911 495.496 222.887 495.496C227.367 495.496 230.583 496.36 232.535 498.088C234.519 499.816 235.511 502.632 235.511 506.536V522.424C235.511 526.232 234.503 529.032 232.487 530.824C230.471 532.584 227.271 533.464 222.887 533.464ZM222.887 527.608C225.159 527.608 226.727 527.16 227.591 526.264C228.455 525.368 228.887 523.976 228.887 522.088V506.872C228.887 505.624 228.727 504.616 228.407 503.848C228.119 503.048 227.527 502.44 226.631 502.024C225.767 501.576 224.519 501.352 222.887 501.352C220.647 501.352 219.127 501.816 218.327 502.744C217.559 503.64 217.175 505.016 217.175 506.872V522.088C217.175 523.368 217.319 524.408 217.607 525.208C217.927 525.976 218.503 526.568 219.335 526.984C220.167 527.4 221.351 527.608 222.887 527.608Z" fill="#1D1E1C"/>
<path d="M193.906 495.976C198.418 495.976 201.73 496.856 203.842 498.616C205.954 500.344 207.01 503.144 207.01 507.016V510.472C207.01 514.28 205.922 517.096 203.746 518.92C201.602 520.744 198.322 521.656 193.906 521.656H191.362V532.984H184.594V495.976H193.906ZM193.906 515.272C196.242 515.272 197.89 514.872 198.85 514.072C199.81 513.24 200.29 511.928 200.29 510.136V507.352C200.29 506.104 200.114 505.096 199.762 504.328C199.41 503.56 198.77 502.984 197.842 502.6C196.946 502.216 195.666 502.024 194.002 502.024H191.314V515.272H193.906Z" fill="#1D1E1C"/>
<path d="M166.718 501.736H152.078V511.288H164.558V517.24H152.078V526.936H167.39V532.984H145.454V495.976H166.718V501.736ZM164.462 487V487.48L157.646 493.672H154.574L147.806 487.48V487H153.95L156.11 489.16L158.366 487H164.462Z" fill="#1D1E1C"/>
<path d="M131.719 532.984H124.807L114.823 495.976H121.591L124.807 507.304L128.263 524.584L131.671 507.208L134.887 495.976H141.655L131.719 532.984Z" fill="#1D1E1C"/>
<path d="M100.074 533.464C95.7223 533.464 92.5703 532.584 90.6183 530.824C88.6983 529.064 87.7383 526.264 87.7383 522.424V506.536C87.7383 503.88 88.1383 501.752 88.9383 500.152C89.7703 498.552 91.0823 497.384 92.8743 496.648C94.6983 495.88 97.0983 495.496 100.074 495.496C104.554 495.496 107.77 496.36 109.722 498.088C111.706 499.816 112.698 502.632 112.698 506.536V522.424C112.698 526.232 111.69 529.032 109.674 530.824C107.658 532.584 104.458 533.464 100.074 533.464ZM100.074 527.608C102.346 527.608 103.914 527.16 104.778 526.264C105.642 525.368 106.074 523.976 106.074 522.088V506.872C106.074 505.624 105.914 504.616 105.594 503.848C105.306 503.048 104.714 502.44 103.818 502.024C102.954 501.576 101.706 501.352 100.074 501.352C97.8343 501.352 96.3143 501.816 95.5143 502.744C94.7463 503.64 94.3623 505.016 94.3623 506.872V522.088C94.3623 523.368 94.5063 524.408 94.7943 525.208C95.1143 525.976 95.6903 526.568 96.5223 526.984C97.3543 527.4 98.5383 527.608 100.074 527.608Z" fill="#1D1E1C"/>
<path d="M75.16 532.984L64.312 509.56L64.888 523.576V532.984H58.312V495.976H64.888L75.736 520.408L75.016 504.808V495.976H81.592V532.984H75.16ZM78.328 487V487.48L71.512 493.672H68.44L61.672 487.48V487H67.816L69.976 489.16L72.232 487H78.328Z" fill="#1D1E1C"/>
<path d="M47.7461 532.984L45.8741 526.456H36.4181L34.4981 532.984H27.6821L37.9061 495.976H44.4821L54.5621 532.984H47.7461ZM41.1221 506.296L38.0501 519.976H44.1941L41.1221 506.296Z" fill="#1D1E1C"/>
<path d="M13.552 495.976C18.032 495.976 21.248 496.84 23.2 498.568C25.184 500.296 26.176 503.112 26.176 507.016V522.136C26.176 525.944 25.168 528.712 23.152 530.44C21.168 532.136 17.968 532.984 13.552 532.984H1.40796V495.976H13.552ZM13.552 526.984C15.856 526.984 17.424 526.584 18.256 525.784C19.12 524.984 19.552 523.656 19.552 521.8V507.352C19.552 506.072 19.408 505.064 19.12 504.328C18.832 503.56 18.256 502.984 17.392 502.6C16.56 502.216 15.312 502.024 13.648 502.024H7.98396V526.984H13.552Z" fill="#1D1E1C"/>
</svg>
