<svg width="771" height="460" viewBox="0 0 771 460" fill="none" xmlns="http://www.w3.org/2000/svg">
<path d="M0 360.534H24.5113C41.8211 360.534 50.9262 370.772 50.9262 385.812C50.9262 393.901 48.6522 399.337 43.9778 404.139C54.5879 407.421 60.2797 416.144 60.2797 428.656C60.2797 449.384 48.6522 458.482 28.8153 458.482H0V360.53V360.534ZM12.0025 371.785V400.729H23.2501C34.8775 400.729 38.6611 392.893 38.6611 385.812C38.6611 376.334 32.5942 371.785 24.5066 371.785H11.9978H12.0025ZM29.0638 446.983C43.7153 446.983 48.0146 439.907 48.0146 428.783C48.0146 416.397 40.8084 412.228 29.4389 412.228H12.2603V446.983H29.0685H29.0638Z" fill="white"/>
<path d="M122.81 360.788V371.405H85.6582V400.73H119.27V411.98H85.6582V447.115H125.965V458.365H73.6558V360.797H122.81V360.788Z" fill="white"/>
<path d="M180.539 384.925C179.906 376.962 177.126 371.274 164.997 371.274C151.475 371.274 148.821 377.469 148.821 387.2C148.821 400.725 160.575 400.598 172.826 401.864C184.074 403.004 195.701 408.561 195.701 428.909C195.701 449.258 187.74 458.862 167.646 458.862H165.25C145.282 458.862 136.186 449.131 135.3 432.572H148.32C148.953 440.788 152.61 447.11 165.128 447.11H167.528C180.665 447.11 183.319 440.915 183.319 429.542C183.319 413.616 172.831 413.363 160.702 412.35C149.332 411.464 136.322 405.907 136.322 387.326C136.322 368.746 144.531 359.901 165.001 359.901C184.337 359.901 192.166 368.877 193.048 384.925H180.539Z" fill="white"/>
<path d="M234.592 372.54V458.356H222.59V372.54H202.373V361.421H254.809V372.54H234.592Z" fill="white"/>
<path d="M336.177 458.361L331.245 440.287H302.059L297.127 458.361H284.618L310.522 361.168H322.782L348.555 458.361H336.177ZM316.594 376.841L310.02 408.561L305.097 428.91H328.094L323.04 408.182L316.594 376.836V376.841Z" fill="white"/>
<path d="M403.513 388.339C403.387 376.587 400.981 371.279 384.811 371.279C368.64 371.279 365.86 377.347 365.86 392.766V426.133C365.86 441.548 368.392 447.616 384.811 447.616C401.23 447.616 403.762 443.954 403.762 428.53H415.267C415.267 447.363 413.242 458.989 384.811 458.989C356.38 458.989 353.731 447.359 353.731 426.002V392.888C353.731 371.527 358.785 360.023 384.811 360.023C410.837 360.023 415.014 369.506 415.267 388.335H403.513V388.339Z" fill="white"/>
<path d="M475.898 388.339C475.772 376.587 473.367 371.279 457.196 371.279C440.271 371.279 438.245 377.347 438.245 392.766V426.133C438.245 441.548 440.777 447.616 457.196 447.616C473.624 447.616 476.147 443.954 476.147 428.53H487.652C487.652 447.363 485.627 458.989 457.196 458.989C428.77 458.989 426.116 447.359 426.116 426.002V392.888C426.116 371.527 431.17 360.023 457.196 360.023C482.472 360.023 487.399 369.506 487.652 388.335H475.898V388.339Z" fill="white"/>
<path d="M561.683 426.387C561.683 447.748 556.878 459.247 530.088 459.247C503.298 459.247 498.501 447.748 498.501 426.387V392.387C498.501 371.025 503.307 359.526 530.088 359.526C556.868 359.526 561.683 371.025 561.683 392.387V426.387ZM549.55 392.26C549.55 376.841 548.284 370.519 530.088 370.519C511.892 370.519 510.631 376.836 510.631 392.26V426.508C510.631 441.928 511.896 447.996 530.088 447.996C548.279 447.996 549.55 441.928 549.55 426.508V392.26Z" fill="white"/>
<path d="M625.095 360.788H637.224V426.255C637.224 447.617 630.402 459.116 607.279 459.116C584.155 459.116 577.075 447.617 577.075 426.255V360.915H589.205V426.387C589.205 441.802 592.238 447.87 607.274 447.87C622.31 447.87 625.09 441.802 625.09 426.387V360.793L625.095 360.788Z" fill="white"/>
<path d="M698.615 435.484L696.847 402.371V360.915H708.85V458.361H697.607L665.509 388.34L666.269 420.318V458.361H654.266V360.915H665.636L698.615 435.484Z" fill="white"/>
<path d="M750.783 372.54V458.356H738.781V372.54H718.564V361.421H771V372.54H750.783Z" fill="white"/>
<path d="M549.024 176.874L498.239 20.5453C494.568 9.24328 481.848 0 469.972 0H305.646C293.77 0 281.05 9.24328 277.379 20.5453L226.594 176.874C222.927 188.167 227.785 203.127 237.391 210.11L370.342 306.726C379.954 313.709 395.669 313.709 405.281 306.726L538.232 210.11C547.843 203.122 552.7 188.167 549.029 176.874M338.573 67.3057H437.045C442.985 67.3057 449.338 71.9297 451.181 77.576L460.656 106.75L415.722 113.489C414.84 113.621 414.245 114.446 414.404 115.323L418.141 136.586C418.3 137.463 418.16 138.86 417.832 139.69L412.595 153.037C412.266 153.867 411.296 154.725 410.433 154.936L389.865 160.062C389.002 160.273 387.586 160.273 386.719 160.062L366.151 154.936C365.288 154.725 364.317 153.867 363.989 153.037L358.752 139.69C358.424 138.86 358.288 137.463 358.443 136.586L362.18 115.323C362.339 114.446 361.739 113.616 360.862 113.489L315.018 106.619L324.451 77.576C326.289 71.925 332.647 67.3057 338.587 67.3057M294.033 171.252L313.973 109.874L347.866 132.67C348.602 133.167 349.469 134.26 349.783 135.09L366.596 179.782C366.91 180.617 367.82 181.625 368.617 182.028L384.225 189.855C385.022 190.254 385.594 191.309 385.491 192.191L384.403 202.02C384.304 202.911 383.554 203.92 382.738 204.276L353.909 216.835C353.093 217.191 351.701 217.571 350.819 217.688L342.043 218.828L299.448 187.867C294.637 184.378 292.213 176.898 294.047 171.252M396.579 245.765C391.768 249.254 383.915 249.254 379.105 245.765L342.746 219.339L353.628 219.386C354.523 219.386 355.958 219.217 356.821 218.997L386.752 211.437C387.61 211.221 389.026 211.221 389.888 211.437L419.824 218.997C420.687 219.212 422.122 219.391 423.012 219.386L432.933 219.344L396.579 245.77V245.765ZM476.241 187.872L433.786 218.725L425.816 217.698C424.935 217.58 423.542 217.196 422.726 216.844L393.892 204.285C393.077 203.929 392.331 202.911 392.228 202.03L391.14 192.2C391.042 191.309 391.614 190.263 392.411 189.865L408.019 182.038C408.811 181.639 409.716 180.626 410.035 179.791L426.848 135.099C427.162 134.264 428.02 133.176 428.765 132.679L461.87 110.413L481.642 171.266C483.475 176.917 481.051 184.392 476.241 187.881" fill="white"/>
</svg>
