<svg width="504" height="504" viewBox="0 0 504 504" fill="none" xmlns="http://www.w3.org/2000/svg">
<g clip-path="url(#clip0_58_1870)">
<path d="M252.048 -0.591735C113.071 -0.591735 0 112.475 0 251.456C0 390.437 113.067 503.408 252.048 503.408C391.029 503.408 504 390.381 504 251.456C504 112.53 390.977 -0.595703 252.048 -0.595703M252.048 497.245C116.464 497.245 6.15912 386.98 6.15912 251.448C6.15912 115.916 116.464 5.55945 252.048 5.55945C387.632 5.55945 497.841 115.868 497.841 251.448C497.841 387.028 387.58 497.253 252.048 497.253" fill="#1D1E1C"/>
<path d="M252.048 13.9854C121.103 13.9854 14.5723 120.512 14.5723 251.453C14.5723 382.294 121.103 488.741 252.048 488.741C382.889 488.741 489.332 382.294 489.332 251.457C489.332 120.512 382.885 13.9854 252.048 13.9854ZM252.048 472.661C129.968 472.661 30.6526 373.425 30.6526 251.453C30.6526 129.374 129.968 30.0618 252.048 30.0618C374.023 30.0618 473.252 129.378 473.252 251.453C473.252 373.429 374.023 472.661 252.048 472.661Z" fill="#1D1E1C"/>
<path d="M148.573 243.805C148.573 248.781 147.374 256.06 140.461 259.838V260.576H192.524V259.838C186.627 256.98 184.23 250.349 184.23 243.805V208.239L206.807 244.083C211.779 252.099 215.835 256.246 223.391 258.365C222.558 258.921 221.732 259.469 220.812 260.024L220.534 260.762H259.604L259.695 260.576H264.394V259.838C261.327 257.627 258.623 254.953 256.377 251.913C256.469 251.361 256.655 250.809 256.838 250.166C258.219 247.492 260.338 244.265 263.382 240.213L274.99 225.193H312.861L311.94 242.146C311.94 245.003 311.385 247.492 310.373 249.797C308.896 253.571 305.948 256.429 300.698 259.008C300.051 259.377 299.316 259.655 298.487 260.024L298.209 260.758H355.983L356.261 260.024C351.101 253.389 349.439 248.964 349.99 236.618L350.546 143.096H304.015L303.92 143.461C307.888 146.874 308.254 150.097 306.777 153.875C305.579 156.823 303.642 159.681 300.698 163.55C300.511 163.828 300.328 164.105 300.051 164.379L246.516 233.947C246.059 234.503 245.69 235.146 245.23 235.693L214.359 190.73L257.02 143.465V143.096H209.569V143.461C215.097 146.136 217.03 149.731 217.03 153.506C217.03 159.22 211.045 164.748 208.739 167.606L184.23 196.076V159.589C184.23 154.521 185.797 147.239 192.524 143.461V143.096H140.461V143.461C147.835 147.977 148.573 154.521 148.573 163.272V243.805ZM300.698 190.548L314.242 172.765L313.321 208.33H287.24L300.698 190.548ZM301.436 333.366L313.226 345.16C317.834 350.137 322.719 351.335 331.561 351.335C334.696 351.335 337.922 351.149 341.514 351.149L361.88 350.323C354.506 347.097 349.256 342.585 346.768 340.557L323.457 319.548C342.438 314.666 344.557 307.476 344.557 304.249C344.188 293.01 329.445 287.204 309.726 287.204H251.032V287.482C257.667 289.875 258.405 293.288 258.405 297.8V341.66C258.405 344.795 257.667 348.478 251.032 350.51V350.875H299.503V350.506C292.776 348.482 291.673 344.148 291.673 341.382V323.512L301.436 333.366ZM291.669 296.419H293.137C296.368 296.419 299.13 296.788 301.432 297.34C308.158 298.908 311.198 302.594 311.198 306.737C310.92 310.702 307.424 314.293 301.436 316.413C298.67 317.429 295.443 318.071 291.669 318.44V296.419ZM136.04 319.917C136.409 336.315 161.836 352.26 205.699 352.26C219.244 352.074 230.487 351.705 241.817 349.768L250.849 335.854C241.079 338.803 225.967 341.847 211.87 342.029C210.029 341.847 208.279 341.847 206.803 341.847C181.742 340.37 173.082 329.132 173.082 317.429C173.082 306.277 180.083 296.606 200.171 295.59H205.33C218.506 295.59 227.903 298.169 234.63 300.471L233.709 287.018C231.499 286.835 210.398 285.732 205.33 285.732C164.602 285.915 137.699 297.431 136.409 318.627C136.409 318.992 136.409 319.361 136.04 319.917ZM75.9651 268.779H134.012V278.454H75.9651V268.779ZM144.517 268.779H232.328V278.454H144.517V268.779ZM243.107 268.779H420.205V278.454H243.107V268.779ZM452.453 218.466C451.35 220.863 449.505 221.141 447.108 221.601L433.654 223.994C432.564 224.223 431.454 224.346 430.341 224.363C427.761 224.55 425.273 223.903 424.626 220.68C423.983 216.902 427.114 215.613 429.233 215.244L430.341 215.057L445.449 212.386C448.862 211.831 450.151 211.926 451.624 213.493H451.715L449.413 200.318L449.227 200.409C448.215 202.711 446.556 202.989 443.607 203.54L430.341 205.842L426.193 206.58C418.086 208.057 417.808 214.688 418.177 217.271C418.546 219.664 420.019 223.72 424.443 225.566L420.479 226.3L422.415 237.356H422.598C423.154 235.788 424.717 234.868 426.563 234.499L430.341 233.856L449.231 230.443C451.163 230.078 453.1 229.987 454.85 231.645H454.941L452.544 218.47L452.453 218.466ZM192.984 79.0564C192.707 81.9137 192.615 84.5845 190.683 87.0728L190.77 87.3505L200.814 84.9536L200.723 84.771C199.433 84.2154 198.699 83.6638 198.326 82.5606C198.234 81.5798 198.234 80.5927 198.326 79.612L198.786 75.1871L202.564 74.3577L208.557 72.9766L211.136 77.215C211.597 77.9531 211.87 78.596 211.966 79.2389C212.244 80.4374 211.874 81.3621 210.676 82.4653V82.7431L225.51 79.3302L225.419 79.0564C223.022 77.7666 221.823 76.7546 219.982 73.6195L204.592 50.3085L202.568 50.7689L192.707 52.9833V53.0746C194.274 53.7175 194.917 54.5469 195.195 55.5628C195.377 56.3922 195.286 57.309 195.195 58.5114L192.984 79.0564ZM200.167 59.7972L202.564 63.4879L205.882 68.7383L202.564 69.4724L199.155 70.3058L200.167 59.7972ZM464.343 214.323C463.878 211.743 462.037 210.358 459.918 210.45H459.362C456.418 210.91 455.128 213.029 455.588 215.795C455.953 217.64 457.334 219.756 459.914 219.851H460.656C462.68 219.482 464.894 217.823 464.339 214.323H464.343ZM459.918 216.807H459.731C458.35 217.085 457.616 216.807 457.338 215.795C457.061 214.414 458.35 213.676 459.827 213.493L459.918 213.398C460.656 213.307 462.315 213.12 462.497 214.597C462.775 215.978 461.025 216.533 459.918 216.807ZM384.179 102.828C385.1 103.661 385.925 104.487 385.834 104.582L372.293 119.138L371.555 119.972C371.265 120.168 371.015 120.417 370.817 120.706C369.436 122.178 367.868 123.563 365.84 123.008L365.658 123.194L372.293 129.365L375.607 132.5L375.794 132.314C375.424 129.456 377.452 127.246 378.373 126.325L392.656 110.939C393.299 111.308 393.85 111.674 394.402 112.229C394.866 112.598 395.326 113.15 395.696 113.61C396.338 114.622 396.616 115.634 396.247 116.837L402.696 112.598L395.696 106.054L385.655 96.6567L385.008 95.8233L378.282 100.157C380.583 100.713 382.52 101.264 384.179 102.828ZM353.494 104.764C352.661 105.872 351.927 106.788 351.193 107.344C350.359 108.082 349.439 108.356 348.058 108.356V108.451L351.193 110.844L358.562 116.65L358.654 116.559C358.098 114.535 358.376 113.61 360.681 110.566L372.293 95.736L373.397 94.351C375.333 91.8667 376.254 90.6682 378.833 90.7595V90.6682L372.293 85.5092L368.329 82.4653H368.237C368.884 84.7671 368.237 85.8782 365.84 88.9181L353.494 104.764ZM252.048 77.8619C250.936 76.9372 250.389 76.199 250.389 75.0045C250.479 74.2664 250.755 73.3444 251.218 72.2385L252.964 68.1827L258.219 68.5517L262.822 68.8295L264.025 73.7108C264.302 74.5442 264.395 75.281 264.302 75.9213C264.207 77.1197 263.564 77.8579 262.088 78.596V78.7786L277.2 79.8858V79.608C275.267 77.6753 274.529 76.3856 273.605 72.7901L265.683 45.9789L258.219 45.4233L253.615 45.1455V45.2407C254.901 46.2527 255.27 47.1774 255.27 48.2806C255.179 49.2013 254.901 50.0307 254.349 51.1379L246.242 70.1193C245.134 72.7901 244.396 75.2784 241.726 77.215V77.3975L251.952 78.0444L252.048 77.8619ZM258.219 55.2811L258.774 53.8127L261.536 64.0356L258.219 63.7578L254.81 63.5752L258.219 55.2811ZM395.696 130.286H395.604C388.231 135.723 385.834 146.041 392.656 155.446C393.668 156.732 394.588 157.839 395.696 158.76C402.236 164.935 409.609 164.379 414.859 161.895C415.871 161.431 416.705 160.879 417.534 160.327C417.534 160.327 417.626 160.327 417.717 160.232C425.455 154.613 427.67 144.938 420.757 135.354C419.147 133.139 417.149 131.235 414.859 129.734C408.962 125.956 401.962 126.047 396.247 129.921C396.156 130.012 395.882 130.103 395.696 130.286ZM401.958 137.751C402.151 137.643 402.31 137.483 402.418 137.29C406.748 134.25 411.633 133.973 414.855 136.37C415.411 136.83 415.963 137.29 416.423 137.937C419.003 141.711 417.53 145.858 414.855 149.176C413.474 150.835 411.907 152.311 410.343 153.414C405.641 156.914 400.482 157.375 396.981 152.676C396.148 151.482 395.692 150.283 395.692 148.898C395.602 148.662 395.602 148.4 395.692 148.164C395.874 144.386 398.731 140.517 401.958 137.751ZM291.483 83.8503C293.88 84.5845 298.118 85.0448 301.709 81.9137L300.606 85.783L311.385 88.8229L311.476 88.6403C310.277 87.5331 310.186 85.783 310.742 83.8503L317.008 61.7339C317.286 60.7219 317.56 59.7099 318.203 58.8765C318.758 58.1424 319.492 57.5868 320.504 57.2177V57.1264L318.203 56.4835L307.607 53.4397V53.5349C309.266 55.6541 308.714 57.4042 308.067 59.7972L304.289 72.8853C303.46 76.0165 302.079 80.9017 297.38 79.5167C293.784 78.5048 293.971 75.0958 294.618 73.0679L299.13 57.2177C300.051 53.9953 300.698 52.7968 302.821 52.1499V52.0586L290.006 48.3759L289.919 48.5584C291.574 50.495 291.114 52.0586 290.284 55.0072L285.403 72.0559C283.188 79.8858 289.086 83.1122 291.483 83.8503ZM148.204 74.818C148.847 75.4649 149.307 76.2943 149.863 77.3063L160.089 96.5654L160.459 97.2996C161.288 98.7759 162.022 100.526 160.824 102.367L160.919 102.554L161.653 102.185L172.805 96.1924L172.713 96.0138C170.594 96.0138 169.3 94.0772 168.657 92.8787L164.328 84.6797L174.832 91.7715C177.134 93.4303 178.61 93.339 180.821 92.2358C181.559 91.7715 182.293 91.3111 183.218 90.8508L188.008 87.8109C185.428 87.2553 183.031 85.8782 181.928 85.3226L171.146 78.7825C174.555 73.9886 173.356 70.4884 172.527 69.0161C170.134 64.4999 165.891 63.3927 161.653 64.9602C161.101 65.1428 160.459 65.4206 159.907 65.7897L148.2 71.9607L145.438 73.437L145.529 73.5282C146.636 73.6195 147.466 74.0838 148.204 74.818ZM158.062 72.1472C159.351 71.4091 160.641 71.3138 161.653 71.5916C163.038 71.9607 164.233 72.9766 164.971 74.4489C166.356 77.215 165.709 80.3461 163.038 82.374L161.657 79.7945L157.692 72.3337C157.784 72.2385 157.879 72.2385 158.062 72.1472ZM318.203 89.8388C317.651 90.2991 316.913 90.4817 315.992 90.573L315.901 90.7595L318.203 91.958L329.168 97.8512C332.025 99.3275 334.696 100.157 337.093 100.339C343.359 100.804 348.149 97.5774 351.193 93.1565C351.649 92.4183 352.113 91.7715 352.483 91.0333C355.34 84.8623 354.876 78.7786 351.193 73.9886C349.625 71.9647 347.502 70.2106 344.74 68.7343L337.093 64.6864L331.378 61.6465V61.7378C332.668 63.4879 331.473 65.9762 331.013 66.9881L330.826 67.3572L320.877 85.9695C319.861 87.9061 319.219 89.1919 318.203 89.8388ZM337.093 75.1911L338.843 71.9647C339.763 72.3337 340.779 72.6115 341.7 73.0719C345.478 75.0958 347.506 79.1516 343.724 86.8029C341.883 90.3031 339.581 92.6961 337.093 93.6208C335.156 94.355 333.132 94.2637 331.009 93.2517C330.183 92.6961 329.354 92.1445 328.525 91.4064L337.093 75.1911ZM117.797 113.15C118.349 113.888 118.992 114.622 119.73 115.269C120.928 116.375 122.218 117.297 123.599 118.035C129.222 120.892 136.409 120.615 142.949 115.638C145.251 113.888 146.91 112.043 148.204 110.11C152.529 103.475 151.061 96.3789 148.204 91.7754C147.926 91.4024 147.739 91.0333 147.466 90.6642C147.466 90.6642 147.374 90.573 147.374 90.4817C141.842 83.2035 132.631 80.993 123.603 87.0728C123.23 87.3505 122.77 87.6283 122.401 87.9061C121.389 88.6403 120.559 89.4697 119.73 90.2991C113.281 96.8392 112.547 105.594 117.333 112.412C117.54 112.62 117.699 112.872 117.797 113.15ZM123.599 93.6168C124.059 93.1565 124.524 92.6009 125.075 92.2318C130.695 88.0847 137.33 93.5216 140.648 97.9465C144.148 102.645 144.795 107.709 140.187 111.304C135.393 114.9 129.127 111.213 125.167 106.606C124.984 106.423 124.889 106.237 124.611 106.145C124.246 105.59 123.877 105.042 123.599 104.487C121.48 100.617 121.48 96.4741 123.599 93.6168ZM74.4888 234.959C75.0444 235.419 75.5008 235.975 75.7786 236.713H75.9651L78.3581 223.351H78.0803C77.2549 224.458 75.9611 224.827 74.4888 224.827C74.1197 224.827 73.7507 224.732 73.2903 224.732L63.5278 222.986L74.3975 218.93H74.4888C78.9137 217.271 79.6479 215.795 81.0289 208.057L81.5845 205.017L81.398 204.921C79.8344 206.398 78.4494 206.858 76.0564 207.779L74.4888 208.426L60.0236 214.414L48.8721 201.239L48.7808 201.147L46.5704 213.307H46.6617C47.6776 212.017 48.7809 211.743 49.7968 211.926C51.3604 212.204 52.6541 213.95 53.297 214.692L60.1149 222.339L49.9793 220.585C48.5983 220.307 46.6617 219.573 45.9235 217.64H45.8322L43.5305 230.998H43.6218C45.1894 229.34 47.0307 229.435 49.4277 229.895C49.7968 229.987 50.2571 230.078 50.6222 230.078L71.7228 233.856C72.5562 233.947 73.6594 234.312 74.4888 234.959ZM66.9328 195.064C67.1153 195.155 67.3931 195.246 67.5796 195.433C69.8814 196.353 72.1831 196.723 74.4888 196.631C81.0289 196.445 87.2952 192.484 90.5216 184.559C95.4981 171.661 88.0333 163.645 81.4932 160.879C81.4932 160.879 81.398 160.788 81.3067 160.788C79.1469 159.884 76.8303 159.413 74.4888 159.403C67.9448 159.403 61.865 163.272 58.6386 171.384C54.4003 181.702 58.2735 191.286 66.9328 195.064ZM63.0635 173.685C65.0001 169.082 69.9727 168.435 74.4928 169.264C76.2389 169.542 77.989 170.094 79.374 170.645C84.8109 172.856 87.942 176.912 85.9141 182.349C84.164 186.674 79.2788 187.599 74.4888 186.952C73.1392 186.782 71.8107 186.473 70.5243 186.031C70.3417 185.94 70.1592 185.849 69.8814 185.849C64.262 183.452 61.2181 178.388 63.0635 173.685ZM410.899 174.058C410.604 174.086 410.319 174.18 410.066 174.332C408.597 174.975 406.752 175.531 405.093 174.241L404.91 174.332L410.161 186.77L410.347 186.678C410.53 184.559 412.558 183.361 413.847 182.809L414.859 182.44L422.324 179.217L414.859 188.428L414.308 189.075C412.466 191.286 412.466 192.762 413.478 195.068C413.756 195.802 414.213 196.631 414.586 197.552L414.859 198.012L417.161 202.616C417.899 200.036 419.558 197.83 420.205 196.723L427.666 186.496C428.59 187.325 429.511 187.968 430.341 188.337C433.563 189.996 436.055 189.349 437.25 188.797C442.595 186.496 443.794 181.519 441.583 176.455L435.222 161.431L435.131 161.526C434.67 163.645 433.194 164.566 430.983 165.486L430.341 165.764L414.859 172.304L410.899 174.058ZM430.341 175.805L435.317 173.685C435.317 173.777 435.317 173.872 435.408 174.146C436.789 177.372 435.131 179.678 432.46 180.781C431.817 181.059 431.079 181.241 430.341 181.241C428.221 181.333 426.102 180.321 424.812 178.202L430.341 175.805ZM74.4888 140.239C76.608 139.961 77.6239 140.517 78.7272 141.346C79.005 141.624 79.2828 141.806 79.5566 142.084L94.756 157.47C96.6013 159.407 97.8911 160.788 97.8911 163.185L98.0776 163.367L104.249 155.72L104.066 155.629C102.776 156.18 101.304 156.18 99.6412 154.795L87.2991 142.731L87.3865 142.544L102.499 147.704C105.265 148.716 107.38 149.176 113.094 145.767L100.106 126.877L100.197 126.786L113.741 135.635C114.202 136 114.753 136.278 115.309 136.739C115.952 137.294 116.599 138.12 116.781 139.874L116.872 140.056L119.73 136.552L123.599 131.762L125.258 129.829L125.075 129.643C124.52 129.734 124.059 129.734 123.599 129.734C122.309 129.643 121.111 129.183 119.73 128.444C119.361 128.262 118.992 127.984 118.623 127.802L99.4547 115.455C99.1809 115.269 98.9983 115.086 98.6292 114.9C97.8911 114.166 97.522 113.61 97.6173 111.765L97.522 111.582L89.966 120.888L101.3 137.659L81.4932 131.302L74.4888 139.965L74.3023 140.243L74.3936 140.334C74.3936 140.334 74.4888 140.334 74.4888 140.239ZM147.926 409.387L159.998 406.252L164.697 405.148V405.053L159.998 401.553L154.744 397.775L154.653 397.866C155.391 399.342 155.208 400.446 154.561 401.279C153.641 402.569 151.521 402.934 150.506 403.212L140.648 405.978L146.727 397.684C147.561 396.485 149.029 395.104 151.152 395.287V395.195L140.187 387.27V387.365C140.926 389.485 140.001 391.048 138.62 393.08C138.342 393.354 138.159 393.723 137.886 393.997L127.29 408.649L125.258 411.319C124.524 412.518 123.047 413.994 120.932 413.716L120.837 413.903L127.286 418.602L131.802 421.915L131.893 421.733C131.064 420.165 131.711 418.324 132.818 416.756L138.711 408.74L137.517 420.352C136.961 425.05 137.977 426.34 144.422 430.948L146.914 432.789L147.005 432.606C146.45 430.67 146.636 429.194 146.823 426.709L147.926 409.387ZM184.139 412.24L182.388 411.411L169.213 405.24L169.118 405.331C170.408 407.45 169.673 409.109 168.475 411.506L159.994 429.749L159.169 431.408C158.431 433.067 157.415 434.726 155.299 434.908L155.204 435.095L159.998 437.305L175.384 444.401L180.265 438.504L179.988 438.317C177.686 439.607 174.646 438.777 172.158 437.674C170.038 436.658 168.288 435.372 167.832 434.817L171.789 426.34L174.646 427.721C175.936 428.277 177.225 429.102 177.043 430.67H177.225L180.174 424.404H179.992C179.345 424.404 178.515 424.034 177.043 423.3L173.908 421.824L177.412 414.454L180.452 415.836C181.19 416.205 181.833 416.574 182.388 417.034C183.4 417.863 183.952 418.78 184.043 419.891H184.139L187.178 413.343L186.992 413.256C186.349 413.256 186.075 413.165 184.139 412.24ZM182.388 403.763L177.503 404.132L179.436 406.898L182.388 407.176L191.877 408.002L191.508 402.934L182.388 403.763ZM102.685 369.487L102.594 369.305C101.947 369.027 101.487 368.289 100.566 366.908L98.538 364.142L105.265 359.443L105.907 360.276L107.201 362.209C108.582 364.233 109.043 365.892 108.213 367.459H108.396L114.293 363.316L114.202 363.225C113.646 362.947 113.467 362.669 112.178 360.923L105.907 351.8L102.685 347.379C102.685 349.867 101.209 350.97 98.9983 352.447L97.4347 353.55L87.1126 360.828L81.0329 365.066C79.5566 366.082 77.8065 367.094 75.8738 366.174L75.6873 366.265L87.1126 382.484L88.4937 384.417L95.7759 381.746L95.5894 381.468C92.9185 381.468 90.6128 379.167 89.0493 376.956C88.2683 375.836 87.6186 374.629 87.1126 373.361C86.9301 372.9 86.8348 372.531 86.7436 372.349L87.1126 372.162L94.4861 366.912L96.3275 369.491C97.0656 370.69 97.7085 372.071 96.7878 373.361L96.9704 373.452L97.4307 373.174L102.685 369.487ZM70.3417 351.058C70.1592 350.597 69.9727 350.137 69.7861 349.768C67.3019 343.228 71.3577 338.434 76.7906 335.672C80.386 333.826 84.164 332.997 87.1087 334.382C88.3111 334.934 89.4144 335.854 90.2438 337.239C90.5216 337.7 90.7041 338.16 90.8906 338.529C92.5495 341.843 92.5495 344.7 92.363 346.911L97.4307 344.053L98.4467 343.597C98.1439 342.692 97.805 341.8 97.4307 340.922C96.8495 339.331 96.2047 337.763 95.4981 336.223C93.2836 331.894 90.4303 328.763 87.1126 326.917C82.5965 324.338 77.3461 324.246 71.6355 326.917C71.4097 327.046 71.1531 327.11 70.8934 327.104C66.1946 329.588 62.7857 334.565 62.3254 340.557V343.502C62.5119 346.176 63.3413 349.034 64.8136 351.982C66.5637 355.296 68.2265 357.971 70.5282 360.276L78.0843 359.261C75.5048 357.602 72.1831 354.471 70.3417 351.058ZM100.379 322.496L97.4307 320.377L97.1529 320.191L96.51 333.735L97.4307 334.382L105.907 339.819L107.753 341.017L107.935 337.239L105.911 335.485L101.026 331.433L100.379 322.496ZM121.94 388.377C121.111 385.703 118.992 382.02 120.928 380.083C122.861 378.885 124.615 379.163 126.365 381.004C126.643 381.373 127.008 381.742 127.286 382.202C128.206 383.587 128.945 385.429 129.405 387.826L133.735 383.77C132.656 381.16 131.129 378.758 129.222 376.674C128.576 376.031 127.933 375.476 127.286 374.924C122.956 371.333 117.98 370.503 114.019 373.543C109.781 377.504 109.781 381.742 111.717 387.457C112.729 390.679 114.297 394.275 111.9 396.394C110.055 397.775 107.935 396.854 105.907 394.826C103.606 392.155 101.764 387.917 101.669 384.413L97.4307 390.501C98.2641 392.802 100.288 396.215 102.685 398.886C103.606 399.898 104.709 400.91 105.907 401.743C109.781 404.505 114.571 405.704 119.269 402.204C119.547 402.017 119.825 401.739 120.103 401.466C124.059 397.779 123.139 392.429 121.94 388.377ZM379.754 406.712C379.385 406.99 379.111 407.268 378.742 407.545C377.73 408.279 376.532 409.014 375.424 409.291L360.959 392.247C360.312 391.509 358.562 389.576 359.296 387.27V387.179L349.347 395.656L348.978 395.933L349.07 396.025C349.165 396.025 349.256 395.933 349.347 395.933C350.546 395.838 352.113 396.211 353.677 398.144L367.964 414.82C369.801 417.034 371 418.415 370.357 420.903L370.448 420.995L378.742 413.899L387.036 406.803L383.992 400.263C383.346 402.105 382.98 403.95 379.754 406.712ZM349.347 411.875C348.335 411.875 347.323 412.058 346.308 412.518C349.347 409.569 349.165 406.525 348.058 404.41C347.415 403.212 346.677 402.291 345.847 401.831C342.434 399.803 340.041 400.081 337.644 401.093C336.815 401.462 336.077 401.831 335.247 402.291L326.036 407.172L322.072 409.291L322.167 409.387C324.286 409.478 325.39 411.133 326.036 412.427C326.128 412.518 326.219 412.704 326.314 412.796L336.91 432.606C337.188 433.249 337.462 433.71 337.644 434.265C338.291 435.92 338.013 436.936 337.644 437.857C337.553 437.948 337.553 438.043 337.462 438.135L337.553 438.317H337.644L349.347 432.051L352.113 430.579C358.471 427.261 358.931 421.272 356.995 417.125C355.336 414.085 352.574 411.966 349.347 411.875ZM338.934 414.915C338.565 414.915 338.291 415.097 338.013 415.097L337.644 414.359L334.422 408.371C334.7 408.002 335.065 407.633 335.434 407.359C336.081 407.081 336.91 406.898 337.644 407.172C338.565 407.359 339.49 408.093 340.224 409.474C341.609 412.054 340.319 413.994 338.934 414.915ZM349.347 425.789C348.894 426.732 348.152 427.506 347.228 427.999C346.308 428.364 345.478 428.551 345.109 428.459L340.133 419.058L341.24 418.506C344.557 416.756 346.954 417.494 348.887 421.177C349.07 421.546 349.256 421.824 349.347 422.193C349.808 423.574 349.716 424.777 349.347 425.789ZM436.607 333.275L429.233 329.128L417.995 312.452L416.244 315.587L413.57 320.377H413.661C414.494 319.822 415.411 319.822 416.241 320.191C416.336 320.282 416.427 320.282 416.614 320.377C417.717 321.02 418.546 322.401 419.007 322.957L422.785 328.298L416.244 327.929L409.609 327.564L409.514 327.473L403.799 337.7H403.894C405.093 337.053 405.922 336.775 408.502 336.866L416.241 336.961L424.717 337.239L433.472 342.121C435.039 342.954 436.607 344.331 436.516 346.359L436.698 346.45L443.425 334.565L443.242 334.473C440.476 335.394 438.266 334.195 436.607 333.275ZM397.446 389.85L393.021 385.429L382.703 375.293C380.492 373.079 379.476 372.067 379.754 369.579V369.487L378.742 370.499L370.357 378.976V379.071C372.75 378.793 373.766 379.532 376.528 382.206L378.738 384.322L390.81 396.299C391.731 397.223 392.469 397.957 393.021 398.696C393.668 399.708 394.037 400.632 393.759 402.108H393.85L403.252 392.616L403.156 392.521C401.132 392.798 400.212 392.521 397.446 389.85ZM326.588 438.504L326.032 436.936L319.032 416.848C318.389 415.006 317.929 413.069 319.31 411.133V411.046L306.686 415.466V415.558C309.265 416.296 309.821 418.046 310.651 420.352L315.071 433.158C316.083 436.198 317.742 440.992 313.226 442.555C309.635 443.754 307.884 440.897 307.146 438.873L301.805 423.392C300.694 420.165 300.606 418.875 301.987 417.125L301.896 417.034L289.272 421.455L289.363 421.641C291.76 422.197 292.312 423.761 293.328 426.618L299.13 443.294C301.805 451.032 308.436 450.298 310.833 449.56C313.135 448.726 316.913 446.703 318.111 442.004L319.401 445.782L326.036 443.571L329.997 442.186V442.004C328.338 441.726 327.235 440.345 326.588 438.504ZM219.796 439.424C225.415 437.857 226.705 434.265 226.983 432.698C227.903 426.983 224.312 423.296 218.966 422.38L214.454 421.641L202.842 419.522V419.614C204.41 421.177 204.318 422.931 203.949 425.328L200.171 446.703C200.076 446.885 200.076 447.163 199.985 447.532C199.707 449.191 199.155 451.032 197.128 451.77V451.953L210.398 454.255L210.489 454.072C208.831 452.691 208.922 450.481 209.108 449.096L210.767 439.976L214.454 451.401L214.637 452.048C215.557 454.81 216.756 455.64 219.153 456.009C219.982 456.191 220.899 456.286 221.915 456.378L227.534 457.021C225.788 454.997 224.772 452.417 224.312 451.306L219.796 439.424ZM217.585 432.329C217.423 433.228 217.056 434.079 216.512 434.814C215.969 435.549 215.263 436.149 214.45 436.567C213.529 437.123 212.426 437.396 211.228 437.305L213.164 426.249H213.621L214.454 426.527C217.216 427.352 218.045 429.749 217.585 432.329ZM422.507 361.288L416.244 360.642L405.184 359.538L401.593 342.672L401.501 342.581L393.85 352.256L393.945 352.347C395.418 351.705 396.525 351.887 397.354 352.534C398.644 353.546 398.922 355.76 399.196 356.681L401.593 366.63L393.485 360.272C393.299 360.181 393.207 360.09 393.021 359.907C392.009 358.983 390.997 357.602 391.275 355.852L391.179 355.76L382.794 366.447H382.885C385.1 365.709 386.663 366.725 388.6 368.289C388.878 368.475 389.247 368.749 389.521 369.027L393.021 371.698L406.383 382.202C407.49 383.036 408.871 384.599 408.593 386.627L408.78 386.81L416.241 377.23L417.165 376.123L416.979 376.031C416.743 376.125 416.496 376.187 416.244 376.214C414.859 376.492 413.292 375.845 412.097 374.924L404.264 368.749L415.78 370.317C415.967 370.408 416.058 370.408 416.244 370.408C420.57 370.964 421.959 369.948 426.745 363.868L428.682 361.38L428.499 361.288C426.471 361.844 424.995 361.566 422.507 361.288ZM274.251 422.102L259.786 424.221V424.312C261.259 425.142 262.088 426.154 262.552 429.011L265.683 451.493C266.052 454.259 265.497 455.548 264.302 456.652V456.747L277.569 454.905L277.478 454.719C276.001 453.798 274.898 452.048 274.438 449.096L271.394 427.443C273.696 427.261 276.74 427.904 277.478 433.067C277.938 436.845 276.279 439.516 273.605 441.083H275.45C276.74 440.805 277.847 440.528 278.585 440.345C281.53 439.329 287.244 436.567 286.232 429.38C285.863 426.523 283.375 420.808 274.251 422.102ZM249.833 452.6C247.44 452.508 245.321 451.953 244.765 451.679L245.043 442.278L248.178 442.373C249.559 442.373 251.123 442.738 251.583 444.214H251.77L252.048 437.214H251.77C251.214 437.492 250.294 437.492 248.73 437.396L245.226 437.305L245.504 429.102L248.916 429.289C251.401 429.38 252.964 430.023 253.798 431.59L253.889 431.499L254.076 424.404L253.889 424.312C253.333 424.681 253.06 424.59 250.94 424.59L234.352 423.943V424.034C236.384 425.511 236.289 427.352 236.197 429.932L235.459 451.862C235.368 453.703 235.094 455.64 233.249 456.652V456.838L255.365 457.576L257.667 450.203H257.298C255.734 452.227 252.504 452.691 249.833 452.6Z" fill="#1D1E1C"/>
</g>
<defs>
<clipPath id="clip0_58_1870">
<rect width="504" height="504" fill="white"/>
</clipPath>
</defs>
</svg>
