<svg width="422" height="471" viewBox="0 0 422 471" fill="none" xmlns="http://www.w3.org/2000/svg">
<g clip-path="url(#clip0_58_1867)">
<path fill-rule="evenodd" clip-rule="evenodd" d="M15.0693 26.6731L27.4204 9.7876C29.0931 7.84502 29.7802 6.17141 29.7802 4.78173C29.7802 3.31732 29.0931 2.42075 27.4204 1.44946L41.9371 1.16555L23.612 25.2087L39.5774 46.323C40.7573 47.7874 41.6534 48.9679 42.8332 49.6552C44.2819 50.8357 46.4475 52.3001 49.0163 53.4806V53.6898H40.9664C37.9047 53.6898 35.2762 53.0024 33.6035 51.1196C33.1256 50.6415 31.9308 49.2518 30.5418 47.0851L15.0544 26.6581L15.0693 26.6731ZM6.03369 42.3033V12.1635C6.03369 9.04045 6.03369 6.67947 5.8246 5.70818C5.34669 3.61618 4.36099 2.16672 2.97204 1.4644L17.6978 1.18049C16.2342 1.94258 15.3381 3.12306 14.8602 4.51275C14.5764 6.18636 14.3674 8.60711 14.3674 11.8796V42.5872C14.3674 46.3379 14.5764 49.2518 14.8602 50.4323C15.3381 51.6128 16.2492 52.7932 17.429 53.4956V53.7048H2.98698V53.4956C4.37592 53.0024 5.34669 51.6128 5.55578 50.1633C5.8246 48.4897 6.03369 45.9195 6.03369 42.3183V42.3033ZM64.7128 28.272C64.7128 20.0085 67.5654 13.1199 73.2556 7.63582C78.5276 2.62995 85.4126 0 93.4625 0C101.512 0 108.666 2.43569 114.147 7.15765C120.047 12.1635 122.899 18.5441 122.899 26.4041C122.899 34.2641 120.33 40.9286 115.327 46.3379C110.115 52.3151 103.17 54.8852 94.9112 54.8852C85.8905 54.8852 78.5276 52.3151 72.7627 46.831C67.3414 41.8252 64.7128 35.7135 64.7128 28.5559V28.2869V28.272ZM73.5244 28.0628C73.5244 34.0399 75.6153 38.9711 79.7075 43.2746C83.949 47.3092 88.9372 49.461 95.1203 49.461C101.303 49.461 106.023 47.1 109.637 42.5872C112.475 38.7619 114.147 34.0399 114.147 28.272V25.7018C113.386 20.2177 111.295 15.4958 107.964 11.8796C104.141 7.84502 99.1377 5.69324 93.4475 5.69324C87.7574 5.69324 82.7542 7.63582 78.9308 11.6704C75.3913 15.4958 73.5095 20.9051 73.5095 28.0628H73.5244ZM144.973 43.4988L149.274 10.0117C149.274 8.83125 149.483 7.85996 149.483 7.36685V5.97716C149.483 5.00587 149.274 4.1093 149.065 3.33227C148.498 2.55523 147.766 1.91269 146.914 1.4644L160.938 1.18049C160.938 1.65866 161.147 2.15178 161.147 2.83915C161.147 3.31732 161.356 4.28861 161.834 5.27484L176.56 40.6297L190.106 5.96221C190.39 5.27484 190.584 4.49781 190.584 3.81044C190.868 3.12306 190.868 2.13683 191.062 1.16555H204.817C203.921 1.64372 203.159 2.13683 202.95 2.82421C202.472 3.58629 202.248 4.48287 202.248 5.4691C202.457 5.94727 202.457 6.9335 202.457 7.83008L207.67 45.6207C207.67 47.9816 208.162 49.6403 208.64 50.8357C209.133 52.076 210.313 52.9875 211.971 53.6749H196.767V53.4657C197.633 53.2714 198.35 52.6438 198.649 51.7921C199.127 50.8208 199.411 49.9242 199.411 48.7288L199.888 45.3965L195.378 7.81513L177.322 54.5714C175.664 53.6749 174.469 52.7634 173.499 51.299C172.528 50.1185 171.617 48.4449 170.855 46.2931L155.158 8.77148L150.439 45.8747V46.7713C150.439 47.2494 150.23 47.7425 150.23 48.4299C150.23 50.1035 150.439 51.284 150.932 52.2553C151.41 52.7335 152.112 53.4358 153.083 53.645H140.448V53.4358C141.911 52.2702 143.001 50.7012 143.569 48.923C144.062 47.5333 144.54 45.8597 144.958 43.439L144.973 43.4988ZM228.354 28.272C228.354 20.0085 231.192 13.1199 236.897 7.63582C242.109 2.64489 249.054 0 257.104 0C265.154 0 272.308 2.43569 277.789 7.15765C283.688 12.1635 286.541 18.5441 286.541 26.4041C286.541 34.2641 283.972 40.9286 278.969 46.3379C273.697 52.3151 266.812 54.8852 258.553 54.8852C249.532 54.8852 242.094 52.3151 236.404 46.831C230.983 41.8252 228.354 35.7135 228.354 28.5559V28.2869V28.272ZM237.181 28.0628C237.181 34.0399 239.257 38.9711 243.364 43.2746C247.605 47.3092 252.594 49.461 258.777 49.461C264.96 49.461 269.679 47.1 273.293 42.5872C276.131 38.7619 277.804 34.0399 277.804 28.272V25.7018C277.042 20.2177 274.951 15.4958 271.621 11.8796C267.797 7.84502 262.809 5.69324 257.104 5.69324C251.13 5.69324 246.411 7.63582 242.587 11.6704C239.048 15.4958 237.166 20.9051 237.166 28.0628H237.181ZM310.287 42.5872V11.8796C310.287 8.60711 310.078 6.45533 309.794 5.27484C309.585 3.61618 308.614 2.42075 307.225 1.65866V1.18049H325.491C330.972 1.18049 335.213 2.64489 338.126 5.48404C340.694 8.12893 341.874 11.4612 341.874 15.69C341.665 18.5292 340.485 20.9051 338.544 23.0569C336.468 25.4179 333.332 27.3604 329.314 28.5409L341.396 43.7528C342.502 45.1873 343.786 46.4724 345.22 47.5782C347.579 49.6552 350.223 51.822 353.27 53.6898H345.489C343.338 53.6898 341.665 53.4806 340.217 52.7932C338.872 51.6875 337.678 50.4024 336.677 48.9679L327.656 37.5814L319.816 26.6731C323.639 25.911 326.686 24.7305 329.12 23.0569C332.167 20.9051 333.839 18.051 333.839 14.7187C333.839 11.8796 332.66 9.50368 330.509 8.12893C328.851 6.94845 326.208 6.47027 323.355 6.47027H321.279C320.786 6.47027 319.816 6.67947 318.636 6.94845V42.7964C318.636 46.6218 318.845 48.9828 319.129 50.4323C319.621 51.822 320.801 53.0024 322.459 53.6898H307.255V53.4806C308.644 52.9875 309.406 51.807 309.824 50.1484C310.108 48.4897 310.317 45.9046 310.317 42.5723L310.287 42.5872ZM370.131 42.5872L383.677 8.33813C383.961 7.84502 383.961 7.36685 384.155 6.66453C384.439 5.96221 384.439 5.27484 384.439 4.78173C384.439 3.12306 383.677 1.92763 382.288 1.44946L394.639 1.16555L412.203 44.9333C413.099 47.2943 414.07 48.9679 414.562 49.9391C415.742 51.3288 417.206 52.7783 419.073 53.4806V53.6898H402.689V53.4806C404.571 52.7783 405.542 51.807 405.542 50.8357C405.542 50.1334 405.333 48.9529 405.049 47.5632L399.628 34.2342H379.63L375.119 47.2943C374.91 47.7724 374.641 48.2655 374.641 48.4747C374.432 48.9529 374.149 49.446 374.149 50.1484C374.149 51.1196 374.432 51.807 374.91 52.3001C375.119 52.7783 376.09 53.2714 377.061 53.4806V53.6898H362.544V53.4806C364.411 52.5093 366.084 50.8357 367.264 48.7587C367.742 47.9966 368.727 45.9046 370.116 42.5723L370.131 42.5872ZM381.108 28.5559H397.492L389.651 7.36685L381.108 28.5559ZM184.759 155.481L130.396 117.974C128.724 113.671 128.724 107.962 129.351 102.628C129.067 97.2782 126.708 89.224 120.047 90.539C118.374 87.8941 115.671 86.2354 113.027 85.5331L113.998 92.1976C112.475 94.7678 110.533 96.7851 108.367 98.5932C105.097 97.069 100.034 95.6793 97.0469 98.2495C99.8247 99.3553 101.557 100.82 102.737 102.628C102.11 104.75 101.438 106.857 100.721 108.949C102.871 111.728 102.11 114.776 100.303 117.421C96.8975 118.049 94.0599 120.544 92.8053 123.189C96.1358 122.009 98.63 122.905 100.586 124.086C103.23 127.284 101.901 133.888 108.009 134.441C107.322 138.61 108.696 142.361 110.653 146.112L105.381 149.519C112.878 153.613 117.806 145.768 123.989 143.825C131.278 156.392 135.519 169.736 145.72 181.616C145.645 173.771 158.847 170.289 162.387 182.662L130.382 207.736C122.048 211.771 114.207 202.387 115.999 195.304C111.623 185.785 98.854 190.925 98.5105 195.857C93.582 195.304 88.31 198.98 87.1898 202.596C90.6697 200.922 94.6125 201.206 98.167 200.788L98.5105 206.825C93.3729 209.395 90.1021 213.773 91.3567 218.704C93.582 216.343 96.1508 213.908 99.4066 213.773C98.854 216.896 100.168 218.913 101.423 221.274C97.3904 224.547 96.4943 229.687 98.7196 233.154C99.765 230.927 101.781 228.91 104.903 229.478C106.919 232.048 111.429 232.257 115.103 232.601C115.656 235.171 116.567 236.979 118.225 238.997C118.225 241.283 118.568 244.002 118.568 246.363C120.375 240.67 125.304 236.292 131.487 235.186L132.248 226.997C147.034 221.304 164.194 224.771 179.458 218.943C177.65 212.906 176.396 204.284 186.955 204.837C193.481 219.631 226.039 244.989 226.039 244.989C210.836 245.96 195.901 247.275 180.906 249.501C167.988 240.879 151.111 237.278 137.52 250.816C148.348 250.607 156.189 253.461 157.727 263.04L152.246 300.83C151.007 304.028 139.746 311.739 134.339 311.739C126.633 311.32 121.988 302.713 115.043 302.713C108.099 302.713 110.593 306.464 107.188 307.226C103.782 307.988 101.363 309.871 100.601 312.65C105.321 313.069 106.784 314.384 108.308 317.372C107.964 318.896 108.308 320.361 109.204 321.123C106.769 323.977 104.903 326.547 105.515 330.507C107.531 329.954 110.175 329.401 112.041 330.372C112.385 333.914 113.908 337.112 117.254 339.338C117.254 342.536 116.701 345.734 119.539 348.364C120.435 345.943 121.406 343.851 123.422 342.387C129.052 344.06 134.668 344.254 140.089 342.387C142.524 341.834 141.269 327.04 153.202 327.309L161.252 327.518C160.565 332.584 163.477 335.707 169.66 334.81C165.912 328.206 168.54 322.438 177.083 318C187.224 317.372 196.737 316.266 198.47 304.94C192.779 307.585 187.507 308.481 183.266 304.312C182.639 294.584 184.58 283.676 202.009 282.63C211.448 281.733 221.664 281.659 231.521 281.24C230.893 296.108 229.504 312.023 240.959 324.455C241.437 317.791 246.784 301.323 249.218 308.825L254.909 326.263C251.16 338.352 244.977 349.335 234.418 356.418C215.316 360.721 212.747 366.983 215.525 376.217C214.898 378.728 215.316 381.283 216.287 384.212C217.049 382.478 218.647 381.089 220.17 379.699C223.082 382.822 227.384 385.736 231.072 388.112C231.356 386.558 231.969 385.093 232.88 383.808C237.33 384.227 240.661 380.894 242.602 377.771C246.694 379.714 249.413 384.017 253.923 385.826C254.266 381.866 253.714 378.19 255.446 374.439C255.939 374.155 256.492 373.886 257.044 373.677C257.328 374.783 257.671 375.903 258.015 377.009C262.316 376.382 264.825 371.525 263.436 362.275C263.093 357.823 267.947 353.863 271.636 351.517C280.238 349.992 287.676 347.826 290.797 342.342C287.676 342.058 283.016 344.15 281.418 341.505C276.564 333.794 283.359 327.757 287.661 321.989C292.515 315.385 299.116 308.855 298.354 300.248C293.709 305.313 287.377 308.586 280.656 299.411C272.457 288.293 270.665 270.451 271.845 255.374C279.835 265.939 290.588 265.177 298.16 273.784C304.403 281.629 309.122 290.042 311.84 299.411C316.903 294.898 318.367 282.6 314.2 277.878C324.55 278.162 332.182 279.342 336.274 268.434C331.271 267.956 326.895 267.463 321.906 266.985C326.91 262.532 329.538 256.002 328.911 248.366C323.086 254.836 313.632 260.724 308.36 257.541C305.448 254.552 310.093 243.644 310.72 236.008C331.614 217.942 343.622 200.295 341.889 155.989C339.111 158.066 335.706 165.164 333.63 162.235C330.718 146.889 322.175 130.9 314.26 124.444C341.889 103.181 343.069 98.4587 327.178 88.1182C331.271 103.749 317.456 112.923 307.808 119.095C297.189 111.384 286.003 102 290.11 89.2838C269.56 102.897 279.835 114.089 301.909 124.713C289.274 135.891 285.45 150.071 281.284 165.418C278.371 167.226 275.668 158.753 271.636 156.587C265.109 185.621 279.835 216.254 301.909 235.993C301.147 243.913 300.594 251.833 294.829 256.838C268.798 239.191 255.177 215.716 245.679 187.503C245.201 179.868 243.603 168.257 257.268 173.816C257.552 164.013 244.424 153.254 246.5 148.458C251.712 147.143 257.746 143.736 258.299 135.607C254.132 135.816 249.89 136.922 247.546 132.14C248.024 122.412 247.262 111.579 241.781 107.126C242.826 102.882 248.307 101.298 250.667 97.3231C234.149 99.4748 211.717 98.3691 201.86 98.638C200.053 99.8932 199.709 102.673 200.889 104.466C190.196 103.988 181.026 101.133 181.026 111.489C181.026 120.305 188.523 117.257 192.406 116.211C197.962 115.374 201.218 117.048 199.694 122.532C198.514 124.549 189.897 121.979 180.876 124.205C172.259 126.566 160.192 126.088 157.682 116.57C156.503 121.994 156.294 127.612 162.402 129.495C175.321 129.286 186.776 123.862 199.336 125.744C200.232 127.627 200.232 128.868 199.47 130.123C194.198 129.839 189.822 131.722 184.326 131.722C183.281 136.025 185.984 142.839 193.422 140.329C196.752 139.283 200.083 139.357 203.488 138.864C198.694 146.784 187.941 147.979 184.67 155.541L184.759 155.481ZM307.718 130.123C325.909 149.638 332.226 196.185 311.467 215.088C314.32 206.959 314.529 194.452 307.718 190.283C299.25 194.243 299.668 206.331 302.297 215.297C280.641 195.991 286.541 149.444 307.718 130.123ZM217.452 105.108C203.772 104.899 204.115 105.318 204.115 110.174L205.638 110.383C209.282 108.022 213.255 106.244 217.437 105.108H217.452ZM186.91 163.117C194.751 159.71 199.276 152.911 205.235 148.592C202.592 154.704 203.368 161.309 205.444 166.524C208.775 160.068 214.33 154.988 221.962 152.418C222.799 158.529 221.275 164.79 223.695 170.618C227.712 164.91 233.148 160.337 239.451 157.349C235.628 167.286 239.317 177.014 243.827 180.346C244.723 182.423 241.96 185.068 240.571 184.022C236.688 180.196 232.73 172.277 233.91 166.165C229.534 168.87 226.204 174.085 223.157 178.254C216.899 172.829 219.543 164.85 217.945 158.723C211.762 161.503 209.611 169.497 205.31 174.428C199.485 169.004 201.905 163.46 200.247 158.036C197.051 161.727 193.511 164.432 189.972 167.076C188.299 167.973 185.312 164.432 186.91 163.117ZM202.532 93.5724H237.315C238.495 87.0423 241.691 80.6468 245.096 74.4604C239.272 75.5064 234.821 79.2571 231.341 84.0538C229.191 79.2571 225.576 74.8191 220.723 73.9823C215.869 74.6696 212.882 79.1973 210.164 83.8446C206.206 79.0479 200.934 75.6559 195.169 74.4007C198.231 80.4525 201.83 86.5642 202.532 93.5724ZM348.968 68.9166V258.975C348.968 334.063 287.661 395.419 212.598 395.419H212.523C137.461 395.419 76.1679 334.078 76.1679 258.975V68.9166H348.968ZM10.0661 73.1455H44.715C46.791 73.1455 48.3293 72.8615 49.3747 72.3087C50.4202 71.6811 51.2416 70.7098 51.7344 69.604L51.8688 87.9389C51.8688 96.8299 49.4345 103.704 44.715 108.575C40.2644 113.088 34.1561 115.449 26.599 115.449C20.1472 115.449 14.5914 113.088 10.2155 108.635C5.07786 103.42 2.50906 96.2023 2.50906 87.0274V69.5891H2.79282C3.47983 70.6948 4.45059 71.7408 5.64538 72.2937C6.89991 72.8466 8.42327 73.1305 10.096 73.1305L10.0661 73.1455ZM8.3934 80.9307C8.31873 81.4238 8.18431 82.3204 8.0499 83.2917C7.90055 84.3975 7.76614 85.3687 7.76614 85.9963C7.76614 91.4804 9.08041 96.2023 11.5895 100.028C14.6511 104.675 19.2361 107.036 25.0607 107.036H27.0023C34.1561 107.036 39.4281 104.809 42.6988 100.506C45.2676 97.1736 46.5222 92.7954 46.5222 87.5803C46.5222 86.1906 46.4475 85.0101 46.3877 84.3227C46.2085 83.1721 45.9696 82.0365 45.7007 80.9158H8.3934V80.9307ZM13.3219 136.713L45.402 149.429C45.8949 149.563 46.4475 149.713 47.1345 149.907C47.7617 150.042 48.3741 150.116 48.7923 150.116C50.3903 150.116 51.4955 149.414 51.8539 147.965L52.063 159.769L11.0966 176.236C9.49858 176.849 7.96029 177.626 6.51161 178.523C4.98825 179.569 3.86813 180.958 2.97204 182.617H2.76295V167.331H2.97204C3.65905 169.064 4.57007 169.975 5.46617 169.975C6.22785 169.975 7.27329 169.766 8.66223 169.423L21.1627 164.417V145.589L8.94599 141.345C8.52782 141.27 8.0499 141.001 7.76614 140.867C7.22848 140.657 6.67589 140.493 6.10837 140.388C5.42136 140.523 4.64475 140.807 4.22657 141.091C3.67398 141.434 3.2558 142.197 2.97204 143.243H2.76295V129.555H2.97204C3.86813 131.363 5.46617 132.887 7.48238 134.142C8.16938 134.486 10.1258 135.323 13.307 136.698L13.3219 136.713ZM26.5243 147.068V162.28L46.4475 154.988L26.5243 147.068ZM11.3804 201.042H43.0423C45.1183 201.042 46.7163 200.758 47.8364 200.354C49.076 199.936 50.3306 198.681 51.5104 196.813L51.6448 207.587C51.3611 207.587 50.674 207.93 49.8377 208.633C49.4195 208.917 48.7325 209.604 47.6871 210.501L13.4563 237.308H42.7586C44.9092 237.308 46.5819 237.099 47.4182 236.755C49.2254 236.262 50.6143 235.022 51.5104 233.139L51.6448 246.408C50.5994 244.884 49.5689 243.898 48.7325 243.554C47.6273 242.927 45.5365 242.658 42.7586 242.658H0C0.567525 240.446 1.64284 238.414 3.12139 236.68C3.88307 235.634 5.34669 234.454 7.15381 233.064L41.3846 206.391H11.4551C8.81158 206.391 6.66096 206.735 5.42136 207.288C4.52527 207.841 3.53957 208.961 2.5688 210.486H2.28504V196.798H2.5688C3.33048 198.262 4.37592 199.368 5.69019 199.996C7.07913 200.623 8.96093 201.042 11.3804 201.042ZM66.505 235.575L55.2591 223.426L66.505 211.472C66.505 213.205 66.0868 215.222 65.3252 217.314C64.6232 219.392 63.518 221.484 62.4129 223.292C63.518 225.159 64.5635 227.252 65.1908 228.985C66.1018 231.271 66.505 233.498 66.505 235.59V235.575ZM24.4335 258.213C32.0652 257.317 38.8008 259.11 44.4313 263.832C49.8526 268.285 52.974 274.396 53.8701 281.823C54.7662 289.459 53.4519 296.273 49.7033 301.966C45.8202 307.943 39.9807 311.485 32.6327 312.381C25.4042 313.278 18.8777 311.619 13.1875 307.584C7.15381 303.206 3.80839 297.095 2.83763 289.384C1.79219 280.971 3.31554 273.829 7.90055 267.851C12.0674 262.293 17.4887 259.035 24.075 258.258L24.4185 258.183L24.4335 258.213ZM25.6133 266.417C20.0575 267.104 15.4725 269.749 12.0674 274.053C8.81158 278.296 7.34796 283.422 8.03497 288.996C8.79664 294.689 11.4999 299.067 16.0251 301.772C20.0575 304.058 24.7023 304.969 29.9146 304.342L32.349 303.998C37.3521 302.818 41.6534 300.307 44.5657 296.706C47.8962 292.671 49.2851 287.89 48.5981 282.466C47.9111 277.041 45.4767 272.738 41.5787 269.749C37.4119 266.761 32.0652 265.655 25.6133 266.417ZM20.4757 349.215C20.6101 346.929 21.103 344.972 21.7303 343.731C22.3575 342.342 23.5971 340.877 25.4042 339.144L50.3305 314.07C51.8539 312.68 53.0338 311.425 53.5864 310.603C54.587 309.467 55.3039 308.108 55.6772 306.643L55.961 306.434L60.546 316.431L59.5752 316.64C59.1571 316.924 58.6045 317.477 57.9025 317.82C57.2155 318.373 56.3045 319.285 55.2591 320.122L29.4366 346.033L61.6512 343.597C62.4129 343.522 63.3836 343.462 64.5037 343.178C65.6836 342.969 66.6544 342.7 67.4907 342.282C69.5667 341.311 70.5374 339.921 70.2686 338.188L70.6121 337.978L75.2569 348.05L20.2666 352.084L20.4757 349.23V349.215ZM55.4084 390.488L66.2362 381.462L74.2861 356.104C74.5699 355.267 74.8387 354.087 74.8387 352.847C75.0627 351.457 75.0328 350.052 74.764 348.677L79.0653 353.952C80.5139 355.686 81.1412 357.21 81.0068 358.465C81.0068 358.54 80.5886 359.705 79.9614 361.588L73.7783 381.118L90.8638 379.236C91.4164 379.236 92.1183 379.101 92.7307 379.026C93.343 378.847 93.9105 378.533 94.4034 378.13C94.956 377.712 95.3741 377.084 95.5832 376.322C95.8222 375.485 95.7475 374.603 95.3741 373.826L104.051 383.823L71.1348 387.365L61.6213 395.419C60.0233 396.749 58.8434 397.855 58.3506 398.617C57.4545 399.857 57.111 401.605 57.2454 403.682L57.0363 403.817L47.8663 392.834L48.0754 392.699C49.3896 393.252 50.8533 393.177 52.1078 392.699C52.9442 392.415 54.0643 391.593 55.3785 390.473L55.4084 390.488ZM106.65 371.107L89.7736 360.124L108.099 364.502L106.635 371.107H106.65ZM86.4431 403.413L87.5483 401.889C91.9989 395.643 97.6891 391.892 104.35 390.637C111.086 389.531 117.687 391.265 124.273 395.987C125.946 397.167 127.604 398.691 129.202 400.23C130.8 401.889 132.398 403.697 133.787 405.58L128.724 412.603C127.544 409.689 126.021 407.044 124.273 405.027C122.884 403.503 121.361 401.964 119.613 400.724C115.238 397.601 110.653 396.554 105.933 397.944C101.632 399.05 97.943 401.695 94.956 405.729C91.7002 410.242 90.3112 415.114 90.6547 420.179C91.1326 425.872 93.9255 430.535 98.7793 434.076C101.064 435.69 103.603 436.945 106.277 437.767C108.502 438.454 111.13 438.947 113.849 439.216L105.799 443.938C103.782 443.445 101.841 442.683 100.034 441.652C98.5105 440.815 96.554 439.769 94.6871 438.32C88.7132 434.076 84.6808 428.951 82.8139 423.168C80.6633 416.354 81.8431 409.689 86.4132 403.443L86.4431 403.413ZM125.946 448.078L135.459 416.817L136.012 415.084C136.565 413.216 136.848 411.826 136.848 410.78C136.848 409.256 136.296 407.926 135.325 407.029L148.931 411.124C147.273 411.333 146.093 411.961 145.316 413.141C144.555 414.322 143.718 416.264 142.882 418.969L139.82 428.831L165.374 436.676L168.645 426.052C169.272 423.96 169.69 422.361 169.69 421.405C169.825 419.462 169.138 417.938 167.808 416.952L181.982 421.195C180.593 421.36 179.323 422.062 178.442 423.138C177.456 424.767 176.695 426.515 176.157 428.353L166.36 460.45C165.867 461.974 165.598 463.304 165.598 464.201C165.732 465.934 166.434 467.264 167.689 468.236L167.614 468.295L153.456 464.052L153.531 463.842C154.71 463.842 155.965 463.289 156.801 462.109C157.697 461.003 158.399 459.673 158.877 458.074L163.88 441.817L138.327 433.972L133.324 450.229C132.771 452.037 132.562 453.696 132.637 454.951C132.711 456.192 133.189 457.312 134.16 457.94L134.085 458.149L121.032 454.115V453.98C123.108 453.771 124.841 451.828 125.961 448.078H125.946ZM217.736 463.558L215.929 429.593C215.794 427.232 215.436 425.559 214.808 424.453C214.256 423.272 213.21 422.436 211.956 421.942L229.878 420.896C234.732 420.613 238.689 421.449 241.885 423.257C245.559 425.335 247.441 428.607 247.71 432.911C247.919 437.214 246.396 440.905 243.334 443.744C240.84 445.971 238.122 447.42 235.075 447.988H233.895C233.611 447.988 232.999 448.063 232.222 448.122C231.117 448.197 230.206 448.122 229.37 447.988C228.608 447.913 227.772 447.57 227.01 447.226C229.997 447.091 232.775 445.836 235.135 443.819C237.778 441.383 239.093 438.395 238.883 434.988C238.674 431.73 237.629 429.369 235.822 428.039C233.94 426.709 231.371 426.097 228.324 426.231C226.652 426.366 224.919 426.575 223.53 426.918L225.412 462.766C225.487 464.634 225.83 466.308 226.308 467.354C226.801 468.325 227.832 469.371 229.161 470.059L229.295 470.193L214.569 470.955L214.495 470.821C215.615 470.268 216.362 469.356 216.929 468.25C217.482 467.145 217.84 465.471 217.706 463.529L217.736 463.558ZM253.415 445.717C250.368 438.634 250.294 431.551 253.281 424.812C256.059 418.491 260.987 413.769 267.857 410.78C274.936 407.792 281.881 407.239 288.407 409.256C295.278 411.408 300.131 415.92 303.133 422.809C305.971 429.474 306.255 436.213 303.82 442.818C301.386 449.766 296.532 454.757 289.378 457.82C281.597 461.153 274.175 461.571 267.155 458.926C260.703 456.431 256.118 452.127 253.475 446.001L253.4 445.717H253.415ZM260.987 442.235C263.138 447.375 266.961 450.991 271.949 453.069C276.952 455.086 282.224 455.086 287.362 452.934C292.783 450.648 296.189 446.897 297.577 441.607C298.683 437.229 298.205 432.507 296.114 427.71L295.143 425.484C292.574 420.896 289.035 417.489 284.733 415.681C279.939 413.455 275.011 413.53 269.948 415.681C264.945 417.833 261.48 421.315 259.747 426.097C258.015 430.759 258.358 436.168 261.002 442.205L260.987 442.235ZM323.624 428.966L305.09 406.94C303.148 404.504 301.625 402.905 300.788 402.352C299.474 401.381 298.085 400.963 296.622 401.456L296.413 401.112L309.675 389.995C313.558 386.662 317.516 385.198 321.264 385.482C324.595 385.825 327.656 387.35 330.15 390.413C331.614 392.699 332.226 395.135 332.167 397.78C332.032 400.828 330.912 404.101 328.762 407.298L346.534 410.989C347.774 411.199 349.521 411.333 351.672 411.467C354.733 411.602 357.989 411.467 361.394 410.915L355.704 415.771C354.181 417.026 352.642 417.848 351.328 417.998C349.865 418.281 348.207 418.072 346.474 417.654L333.003 414.949L320.786 411.677C323.221 408.972 324.669 406.193 325.431 403.548C326.267 400.215 325.715 397.152 323.624 394.657C321.891 392.639 319.666 391.668 317.381 391.952C315.365 392.161 313.214 393.192 311.138 394.866C310.511 395.419 309.959 396.046 309.54 396.39C309.003 396.973 308.54 397.63 308.151 398.333L329.747 424.169C331.973 426.739 333.645 428.472 334.616 429.175C335.796 429.937 337.319 430.071 338.992 429.653L328.164 438.888L327.955 438.679C328.642 437.498 328.582 436.034 327.88 434.719C327.044 433.329 325.67 431.386 323.654 428.951L323.624 428.966ZM361.603 394.866L343.696 365.339C343.308 364.891 342.935 364.427 342.576 363.949L341.337 362.709C340.022 361.812 338.843 361.663 337.648 362.634L344.518 353.041L387.082 364.636C389.367 365.264 391.115 365.399 392.22 365.533C394.027 365.593 395.819 365.189 397.432 364.353L397.716 364.487L388.546 376.71L388.262 376.576C388.815 374.693 388.606 373.453 387.919 372.885C387.291 372.407 386.246 372.048 385.006 371.495L372.088 367.954L360.707 383.031L367.861 393.73C368.145 394.074 368.414 394.567 368.548 394.776C368.757 395.195 369.101 395.673 369.593 396.166C370.221 396.51 370.982 396.794 371.475 396.794C372.237 396.794 372.939 396.51 373.835 395.822L374.044 395.957L365.785 406.865L365.576 406.731C365.86 404.713 365.576 402.562 364.68 400.335C364.396 399.707 363.366 397.765 361.618 394.851L361.603 394.866ZM357.287 378.608L366.383 366.385L346.101 360.348L357.272 378.623L357.287 378.608ZM396.939 344.987L364.232 333.66C362.29 332.972 360.692 332.763 359.512 332.972C358.333 333.182 357.287 333.944 356.391 334.781L362.29 317.417C365.128 309.004 369.638 303.236 375.762 300.188C381.452 297.408 387.978 297.124 395.132 299.635C401.241 301.712 405.691 305.747 408.32 311.365C411.575 317.97 411.65 325.606 408.663 334.287L402.973 350.814L402.764 350.74C402.346 349.425 401.793 348.095 400.822 347.198C399.852 346.227 398.537 345.525 396.939 344.972V344.987ZM401.106 338.173C401.241 337.754 401.793 336.932 402.152 336.021C402.629 335.124 403.048 334.213 403.331 333.525C405.064 328.385 405.407 323.514 404.302 319.001C402.839 313.651 399.374 309.975 393.818 308.018L391.951 307.39C385.29 305.029 379.525 305.448 375.015 308.436C371.55 310.797 368.981 314.473 367.234 319.419C366.741 320.734 366.472 321.84 366.263 322.617C366.129 323.379 365.979 324.634 365.845 326.024L401.121 338.188L401.106 338.173ZM398.044 291.909H396.237C388.531 291.775 382.139 289.339 377.36 284.543C372.566 279.686 370.131 273.216 370.28 265.162C370.34 262.965 370.579 260.783 370.968 258.632C371.386 256.405 372.013 254.119 372.7 251.892L381.317 251.967C379.704 254.448 378.48 257.167 377.703 260.021C377.151 261.964 376.867 264.116 376.807 266.267C376.673 271.692 378.539 275.995 382.363 279.118C385.828 282.032 390.069 283.497 395.072 283.571C400.628 283.706 405.482 282.047 409.44 278.775C413.816 275.158 415.966 270.227 416.101 264.19C416.101 261.695 415.683 258.841 414.786 255.927C414.085 253.7 412.905 251.265 411.59 248.919L420.133 252.744C420.895 254.971 421.447 257.048 421.656 258.781C421.94 260.589 422 262.741 422 265.102C421.866 272.394 419.984 278.655 416.31 283.511C412.009 289.205 405.825 292.059 398.044 291.909ZM405.616 232.302H380.63C377.987 232.302 375.971 232.586 374.94 233.064C373.82 233.483 372.715 234.529 371.819 235.918L371.684 221.603C372.237 222.649 373.073 223.486 374.178 223.889C375.433 224.308 377.658 224.592 380.914 224.592H402.719C407.229 224.592 410.844 223.486 413.278 221.319C415.354 219.511 416.474 216.866 416.474 213.609C416.474 210.142 415.503 207.019 413.831 204.718C411.949 202.147 409.455 200.758 406.333 200.758H380.152C377.927 200.758 376.06 200.967 374.671 201.311C373.282 201.789 372.237 202.626 371.819 203.746L371.684 189.715C372.177 191.03 373.148 191.867 374.462 192.285C375.851 192.838 377.584 192.973 379.465 192.973H412.785C417.086 192.973 419.581 191.792 420.357 189.431H420.566V200.758H415.294C417.31 202.222 418.968 204.299 420.088 206.795C421.134 209.29 421.746 212.428 421.746 215.82C421.746 220.751 420.357 224.786 417.505 227.775C414.592 230.688 410.56 232.287 405.631 232.287L405.616 232.302ZM362.081 216.881C360.677 216.881 359.318 216.403 358.183 215.566C357.003 214.52 356.316 212.996 356.316 210.979C356.316 209.589 356.869 208.274 357.84 207.228C358.87 206.107 360.334 205.48 361.872 205.495C363.545 205.495 364.994 206.122 366.039 207.228C367.01 208.334 367.637 209.798 367.637 211.263C367.637 212.996 367.01 214.386 366.039 215.297C364.994 216.343 363.53 216.896 362.081 216.896V216.881ZM365.83 211.263C365.83 210.366 365.486 209.604 364.784 209.171C364.097 208.692 363.261 208.483 362.29 208.483C361.11 208.483 360.065 208.692 359.303 209.171C358.542 209.589 358.123 210.351 358.123 211.263C358.123 212.025 358.542 212.727 359.169 213.13C359.796 213.609 360.692 213.833 361.812 213.833C362.933 213.833 364.038 213.624 364.725 213.13C365.427 212.772 365.86 212.04 365.83 211.263ZM398.254 164.984H396.387C388.68 164.984 382.363 162.698 377.434 157.976C372.58 153.18 369.997 146.799 369.997 138.73C369.997 136.653 370.206 134.426 370.549 132.2C371.012 129.914 371.565 127.642 372.222 125.386H380.839C379.256 127.881 378.062 130.586 377.3 133.44C376.882 135.383 376.613 137.534 376.613 139.686C376.613 145.11 378.495 149.339 382.378 152.403C385.843 155.257 390.159 156.646 395.147 156.646C400.703 156.646 405.497 154.973 409.38 151.64C413.681 147.89 415.832 142.959 415.832 136.981C415.832 134.411 415.354 131.557 414.368 128.718C413.607 126.492 412.427 124.056 411.112 121.695L419.655 125.446C420.492 127.672 421.044 129.749 421.328 131.483C421.537 133.216 421.746 135.383 421.746 137.729C421.746 145.095 419.939 151.282 416.399 156.213C412.173 162.041 406.064 164.97 398.283 164.97L398.254 164.984ZM356.316 127.687L367.637 139.91L356.316 151.924C356.316 150.116 356.809 148.099 357.496 146.022C358.258 144.005 359.303 141.853 360.483 140.12C359.378 138.282 358.437 136.354 357.631 134.352C356.794 132.065 356.316 129.839 356.316 127.687ZM410.201 104.481H381.452C378.256 104.481 376.105 104.615 375.209 104.824C373.536 105.168 372.356 106.08 371.729 107.395H371.386V90.1654C371.386 85.0251 372.775 81.0652 375.418 78.3605C377.778 75.9996 380.974 74.6846 384.932 74.6846C387.515 75.0133 389.935 76.134 391.876 77.8824C394.102 79.9594 395.834 82.8882 396.939 86.5642L411.172 75.3122C412.143 74.5501 413.398 73.3696 414.921 71.7707C416.937 69.5442 418.879 66.9143 420.745 63.9855V71.4868C420.745 73.4294 420.402 75.103 419.64 76.2088C418.879 77.464 417.699 78.6444 416.235 79.6755L405.467 88.2228L395.117 95.515C394.624 91.9735 393.519 88.9849 391.921 86.7584C389.905 83.9193 387.202 82.4549 383.931 82.4549C381.288 82.4549 379.212 83.5009 377.823 85.5182C376.717 87.1171 376.09 89.4033 376.09 92.1229C376.09 93.0195 376.225 93.7965 376.225 94.2747C376.299 94.7529 376.508 95.5897 376.717 96.7104H410.455C413.786 96.7104 416.22 96.5012 417.46 96.1575C418.714 95.8138 419.819 94.7678 420.581 93.1689L420.716 107.41H420.432C419.879 106.095 418.774 105.258 417.31 104.974C415.772 104.705 413.278 104.496 410.157 104.496L410.201 104.481Z" fill="#242122"/>
</g>
<defs>
<clipPath id="clip0_58_1867">
<rect width="422" height="471" fill="white"/>
</clipPath>
</defs>
</svg>
